<svg xmlns="http://www.w3.org/2000/svg" width="352" height="352" viewBox="0 0 352 352">
  <g id="그룹_25" data-name="그룹 25" transform="translate(-702 -613)">
    <rect id="사각형_1057" data-name="사각형 1057" width="352" height="352" transform="translate(702 613)" fill="#f5f5f5"/>
    <g id="그룹_13" data-name="그룹 13" transform="translate(-531 -663)">
      <path id="패스_735" data-name="패스 735" d="M341.288,348.271H321.5v46.148h19.788c14.68,0,24.7-9.231,24.7-23.075S355.968,348.271,341.288,348.271Z" transform="translate(958.5 1037.284)" fill="#7851e7"/>
      <text id="esign" transform="translate(1324.651 1430)" fill="#424242" font-size="59" font-family="Montserrat-Bold, Montserrat" font-weight="700"><tspan x="0" y="0">esign</tspan></text>
      <text id="Systems" transform="translate(1280 1516.192)" fill="#424242" font-size="59" font-family="Montserrat-Bold, Montserrat" font-weight="700"><tspan x="0" y="0">Systems</tspan></text>
      <g id="사각형_1052" data-name="사각형 1052" transform="translate(1304.355 1377.049)" fill="#fff" stroke="#e0e0e0" stroke-width="0.5">
        <rect width="18.266" height="24.291" rx="9" stroke="none"/>
        <rect x="0.25" y="0.25" width="17.766" height="23.791" rx="8.75" fill="none"/>
      </g>
      <g id="사각형_1051" data-name="사각형 1051" transform="translate(1290.148 1377.049)" fill="#fff" stroke="#e0e0e0" stroke-width="0.5">
        <rect width="18.266" height="24.291" rx="9" stroke="none"/>
        <rect x="0.25" y="0.25" width="17.766" height="23.791" rx="8.75" fill="none"/>
      </g>
      <rect id="사각형_1053" data-name="사각형 1053" width="10.148" height="14.17" rx="5" transform="translate(1312.474 1381.097)" fill="#424242"/>
      <rect id="사각형_1054" data-name="사각형 1054" width="10.148" height="14.17" rx="5" transform="translate(1298.266 1381.097)" fill="#424242"/>
      <rect id="사각형_1055" data-name="사각형 1055" width="10.148" height="6.073" rx="3" transform="translate(1302.326 1397.291)" fill="#fd9931"/>
    </g>
  </g>
</svg>
