<svg width="500" height="259" viewBox="0 0 500 259" fill="none" xmlns="http://www.w3.org/2000/svg">
<path d="M10.0156 13.5625C9.59375 14.0677 8.9974 14.4609 8.22656 14.7422C7.45573 15.0182 6.60156 15.1562 5.66406 15.1562C4.67969 15.1562 3.8151 14.9427 3.07031 14.5156C2.33073 14.0833 1.75781 13.4583 1.35156 12.6406C0.950521 11.8229 0.744792 10.862 0.734375 9.75781V8.98438C0.734375 7.84896 0.924479 6.86719 1.30469 6.03906C1.6901 5.20573 2.24219 4.57031 2.96094 4.13281C3.6849 3.6901 4.53125 3.46875 5.5 3.46875C6.84896 3.46875 7.90365 3.79167 8.66406 4.4375C9.42448 5.07812 9.875 6.01302 10.0156 7.24219H7.73438C7.63021 6.59115 7.39844 6.11458 7.03906 5.8125C6.6849 5.51042 6.19531 5.35938 5.57031 5.35938C4.77344 5.35938 4.16667 5.65885 3.75 6.25781C3.33333 6.85677 3.1224 7.7474 3.11719 8.92969V9.65625C3.11719 10.849 3.34375 11.75 3.79688 12.3594C4.25 12.9688 4.91406 13.2734 5.78906 13.2734C6.66927 13.2734 7.29688 13.0859 7.67188 12.7109V10.75H5.53906V9.02344H10.0156V13.5625ZM16.1328 10.8359H14.2656V15H11.9219V3.625H16.1484C17.4922 3.625 18.5286 3.92448 19.2578 4.52344C19.987 5.1224 20.3516 5.96875 20.3516 7.0625C20.3516 7.83854 20.1823 8.48698 19.8438 9.00781C19.5104 9.52344 19.0026 9.9349 18.3203 10.2422L20.7812 14.8906V15H18.2656L16.1328 10.8359ZM14.2656 8.9375H16.1562C16.7448 8.9375 17.2005 8.78906 17.5234 8.49219C17.8464 8.1901 18.0078 7.77604 18.0078 7.25C18.0078 6.71354 17.8542 6.29167 17.5469 5.98438C17.2448 5.67708 16.7786 5.52344 16.1484 5.52344H14.2656V8.9375ZM28.5625 12.6562H24.4531L23.6719 15H21.1797L25.4141 3.625H27.5859L31.8438 15H29.3516L28.5625 12.6562ZM25.0859 10.7578H27.9297L26.5 6.5L25.0859 10.7578ZM35.6562 8.75L38.0234 3.625H40.5859L36.8516 10.875V15H34.4688V10.875L30.7344 3.625H33.3047L35.6562 8.75ZM51.5078 12.0156C51.5078 11.5729 51.3516 11.2344 51.0391 11C50.7266 10.7604 50.1641 10.5104 49.3516 10.25C48.5391 9.98438 47.8958 9.72396 47.4219 9.46875C46.1302 8.77083 45.4844 7.83073 45.4844 6.64844C45.4844 6.03385 45.6562 5.48698 46 5.00781C46.349 4.52344 46.8464 4.14583 47.4922 3.875C48.1432 3.60417 48.8724 3.46875 49.6797 3.46875C50.4922 3.46875 51.2161 3.61719 51.8516 3.91406C52.487 4.20573 52.9792 4.61979 53.3281 5.15625C53.6823 5.69271 53.8594 6.30208 53.8594 6.98438H51.5156C51.5156 6.46354 51.3516 6.0599 51.0234 5.77344C50.6953 5.48177 50.2344 5.33594 49.6406 5.33594C49.0677 5.33594 48.6224 5.45833 48.3047 5.70312C47.987 5.94271 47.8281 6.26042 47.8281 6.65625C47.8281 7.02604 48.013 7.33594 48.3828 7.58594C48.7578 7.83594 49.3073 8.07031 50.0312 8.28906C51.3646 8.6901 52.3359 9.1875 52.9453 9.78125C53.5547 10.375 53.8594 11.1146 53.8594 12C53.8594 12.9844 53.487 13.7578 52.7422 14.3203C51.9974 14.8776 50.9948 15.1562 49.7344 15.1562C48.8594 15.1562 48.0625 14.9974 47.3438 14.6797C46.625 14.3568 46.0755 13.9167 45.6953 13.3594C45.3203 12.8021 45.1328 12.1562 45.1328 11.4219H47.4844C47.4844 12.6771 48.2344 13.3047 49.7344 13.3047C50.2917 13.3047 50.7266 13.1927 51.0391 12.9688C51.3516 12.7396 51.5078 12.4219 51.5078 12.0156ZM64.3828 11.2109C64.2943 12.4349 63.8411 13.3984 63.0234 14.1016C62.2109 14.8047 61.138 15.1562 59.8047 15.1562C58.3464 15.1562 57.1979 14.6667 56.3594 13.6875C55.526 12.7031 55.1094 11.3542 55.1094 9.64062V8.94531C55.1094 7.85156 55.3021 6.88802 55.6875 6.05469C56.0729 5.22135 56.6224 4.58333 57.3359 4.14062C58.0547 3.69271 58.888 3.46875 59.8359 3.46875C61.1484 3.46875 62.2057 3.82031 63.0078 4.52344C63.8099 5.22656 64.2734 6.21354 64.3984 7.48438H62.0547C61.9974 6.75 61.7917 6.21875 61.4375 5.89062C61.0885 5.55729 60.5547 5.39062 59.8359 5.39062C59.0547 5.39062 58.4688 5.67188 58.0781 6.23438C57.6927 6.79167 57.4948 7.65885 57.4844 8.83594V9.69531C57.4844 10.9245 57.6693 11.8229 58.0391 12.3906C58.4141 12.9583 59.0026 13.2422 59.8047 13.2422C60.5286 13.2422 61.0677 13.0781 61.4219 12.75C61.7812 12.4167 61.987 11.9036 62.0391 11.2109H64.3828ZM72.3438 12.6562H68.2344L67.4531 15H64.9609L69.1953 3.625H71.3672L75.625 15H73.1328L72.3438 12.6562ZM68.8672 10.7578H71.7109L70.2812 6.5L68.8672 10.7578ZM79.0312 13.1172H84.0078V15H76.6875V3.625H79.0312V13.1172ZM92.2031 10.0703H87.7031V13.1172H92.9844V15H85.3594V3.625H92.9688V5.52344H87.7031V8.23438H92.2031V10.0703Z" fill="black"/>
<rect x="0.5" y="39.5" width="499" height="39" fill="white" stroke="#EEEEEE"/>
<rect y="99" width="160" height="40" fill="#F5F5F5"/>
<rect x="170" y="159" width="160" height="40" fill="#9E9E9E"/>
<rect y="159" width="160" height="40" fill="#EEEEEE"/>
<rect x="170" y="219" width="160" height="40" fill="#757575"/>
<rect y="219" width="160" height="40" fill="#E0E0E0"/>
<rect x="340" y="99" width="160" height="40" fill="#616161"/>
<rect x="170" y="99" width="160" height="40" fill="#BDBDBD"/>
<rect x="340" y="159" width="160" height="40" fill="#424242"/>
<rect x="340" y="219" width="160" height="40" fill="black"/>
<path d="M230.482 60.5977H228.936L228.467 63H227.629L228.098 60.5977H226.697V59.7949H228.25L228.654 57.7207H227.143V56.9062H228.812L229.293 54.4688H230.131L229.65 56.9062H231.197L231.678 54.4688H232.521L232.041 56.9062H233.236V57.7207H231.883L231.479 59.7949H232.797V60.5977H231.326L230.857 63H230.014L230.482 60.5977ZM229.088 59.7949H230.635L231.039 57.7207H229.492L229.088 59.7949ZM239.09 59.2324H235.51V63H234.385V54.4688H239.67V55.3945H235.51V58.3125H239.09V59.2324ZM245.723 59.2324H242.143V63H241.018V54.4688H246.303V55.3945H242.143V58.3125H245.723V59.2324ZM252.355 59.2324H248.775V63H247.65V54.4688H252.936V55.3945H248.775V58.3125H252.355V59.2324ZM258.988 59.2324H255.408V63H254.283V54.4688H259.568V55.3945H255.408V58.3125H258.988V59.2324ZM265.621 59.2324H262.041V63H260.916V54.4688H266.201V55.3945H262.041V58.3125H265.621V59.2324ZM272.254 59.2324H268.674V63H267.549V54.4688H272.834V55.3945H268.674V58.3125H272.254V59.2324Z" fill="black"/>
<path d="M60.4824 120.598H58.9355L58.4668 123H57.6289L58.0977 120.598H56.6973V119.795H58.25L58.6543 117.721H57.1426V116.906H58.8125L59.293 114.469H60.1309L59.6504 116.906H61.1973L61.6777 114.469H62.5215L62.041 116.906H63.2363V117.721H61.8828L61.4785 119.795H62.7969V120.598H61.3262L60.8574 123H60.0137L60.4824 120.598ZM59.0879 119.795H60.6348L61.0391 117.721H59.4922L59.0879 119.795ZM69.0898 119.232H65.5098V123H64.3848V114.469H69.6699V115.395H65.5098V118.312H69.0898V119.232ZM71.2344 118.723L71.668 114.469H76.0391V115.471H72.5879L72.3301 117.797C72.748 117.551 73.2227 117.428 73.7539 117.428C74.5312 117.428 75.1484 117.686 75.6055 118.201C76.0625 118.713 76.291 119.406 76.291 120.281C76.291 121.16 76.0527 121.854 75.5762 122.361C75.1035 122.865 74.4414 123.117 73.5898 123.117C72.8359 123.117 72.2207 122.908 71.7441 122.49C71.2676 122.072 70.9961 121.494 70.9297 120.756H71.9551C72.0215 121.244 72.1953 121.613 72.4766 121.863C72.7578 122.109 73.1289 122.232 73.5898 122.232C74.0938 122.232 74.4883 122.061 74.7734 121.717C75.0625 121.373 75.207 120.898 75.207 120.293C75.207 119.723 75.0508 119.266 74.7383 118.922C74.4297 118.574 74.0176 118.4 73.502 118.4C73.0293 118.4 72.6582 118.504 72.3887 118.711L72.1016 118.945L71.2344 118.723ZM82.4609 119.232H78.8809V123H77.7559V114.469H83.041V115.395H78.8809V118.312H82.4609V119.232ZM84.6055 118.723L85.0391 114.469H89.4102V115.471H85.959L85.7012 117.797C86.1191 117.551 86.5938 117.428 87.125 117.428C87.9023 117.428 88.5195 117.686 88.9766 118.201C89.4336 118.713 89.6621 119.406 89.6621 120.281C89.6621 121.16 89.4238 121.854 88.9473 122.361C88.4746 122.865 87.8125 123.117 86.9609 123.117C86.207 123.117 85.5918 122.908 85.1152 122.49C84.6387 122.072 84.3672 121.494 84.3008 120.756H85.3262C85.3926 121.244 85.5664 121.613 85.8477 121.863C86.1289 122.109 86.5 122.232 86.9609 122.232C87.4648 122.232 87.8594 122.061 88.1445 121.717C88.4336 121.373 88.5781 120.898 88.5781 120.293C88.5781 119.723 88.4219 119.266 88.1094 118.922C87.8008 118.574 87.3887 118.4 86.873 118.4C86.4004 118.4 86.0293 118.504 85.7598 118.711L85.4727 118.945L84.6055 118.723ZM95.832 119.232H92.252V123H91.127V114.469H96.4121V115.395H92.252V118.312H95.832V119.232ZM97.9766 118.723L98.4102 114.469H102.781V115.471H99.3301L99.0723 117.797C99.4902 117.551 99.9648 117.428 100.496 117.428C101.273 117.428 101.891 117.686 102.348 118.201C102.805 118.713 103.033 119.406 103.033 120.281C103.033 121.16 102.795 121.854 102.318 122.361C101.846 122.865 101.184 123.117 100.332 123.117C99.5781 123.117 98.9629 122.908 98.4863 122.49C98.0098 122.072 97.7383 121.494 97.6719 120.756H98.6973C98.7637 121.244 98.9375 121.613 99.2188 121.863C99.5 122.109 99.8711 122.232 100.332 122.232C100.836 122.232 101.23 122.061 101.516 121.717C101.805 121.373 101.949 120.898 101.949 120.293C101.949 119.723 101.793 119.266 101.48 118.922C101.172 118.574 100.76 118.4 100.244 118.4C99.7715 118.4 99.4004 118.504 99.1309 118.711L98.8438 118.945L97.9766 118.723Z" fill="black"/>
<path d="M229.482 180.598H227.936L227.467 183H226.629L227.098 180.598H225.697V179.795H227.25L227.654 177.721H226.143V176.906H227.812L228.293 174.469H229.131L228.65 176.906H230.197L230.678 174.469H231.521L231.041 176.906H232.236V177.721H230.883L230.479 179.795H231.797V180.598H230.326L229.857 183H229.014L229.482 180.598ZM228.088 179.795H229.635L230.039 177.721H228.492L228.088 179.795ZM237.258 179.25C237.031 179.52 236.76 179.736 236.443 179.9C236.131 180.064 235.787 180.146 235.412 180.146C234.92 180.146 234.49 180.025 234.123 179.783C233.76 179.541 233.479 179.201 233.279 178.764C233.08 178.322 232.98 177.836 232.98 177.305C232.98 176.734 233.088 176.221 233.303 175.764C233.521 175.307 233.83 174.957 234.229 174.715C234.627 174.473 235.092 174.352 235.623 174.352C236.467 174.352 237.131 174.668 237.615 175.301C238.104 175.93 238.348 176.789 238.348 177.879V178.195C238.348 179.855 238.02 181.068 237.363 181.834C236.707 182.596 235.717 182.986 234.393 183.006H234.182V182.092H234.41C235.305 182.076 235.992 181.844 236.473 181.395C236.953 180.941 237.215 180.227 237.258 179.25ZM235.588 179.25C235.951 179.25 236.285 179.139 236.59 178.916C236.898 178.693 237.123 178.418 237.264 178.09V177.656C237.264 176.945 237.109 176.367 236.801 175.922C236.492 175.477 236.102 175.254 235.629 175.254C235.152 175.254 234.77 175.438 234.48 175.805C234.191 176.168 234.047 176.648 234.047 177.246C234.047 177.828 234.186 178.309 234.463 178.688C234.744 179.062 235.119 179.25 235.588 179.25ZM244.945 179.057H241.248V182.08H245.543V183H240.123V174.469H245.484V175.395H241.248V178.137H244.945V179.057ZM250.816 179.25C250.59 179.52 250.318 179.736 250.002 179.9C249.689 180.064 249.346 180.146 248.971 180.146C248.479 180.146 248.049 180.025 247.682 179.783C247.318 179.541 247.037 179.201 246.838 178.764C246.639 178.322 246.539 177.836 246.539 177.305C246.539 176.734 246.646 176.221 246.861 175.764C247.08 175.307 247.389 174.957 247.787 174.715C248.186 174.473 248.65 174.352 249.182 174.352C250.025 174.352 250.689 174.668 251.174 175.301C251.662 175.93 251.906 176.789 251.906 177.879V178.195C251.906 179.855 251.578 181.068 250.922 181.834C250.266 182.596 249.275 182.986 247.951 183.006H247.74V182.092H247.969C248.863 182.076 249.551 181.844 250.031 181.395C250.512 180.941 250.773 180.227 250.816 179.25ZM249.146 179.25C249.51 179.25 249.844 179.139 250.148 178.916C250.457 178.693 250.682 178.418 250.822 178.09V177.656C250.822 176.945 250.668 176.367 250.359 175.922C250.051 175.477 249.66 175.254 249.188 175.254C248.711 175.254 248.328 175.438 248.039 175.805C247.75 176.168 247.605 176.648 247.605 177.246C247.605 177.828 247.744 178.309 248.021 178.688C248.303 179.062 248.678 179.25 249.146 179.25ZM258.504 179.057H254.807V182.08H259.102V183H253.682V174.469H259.043V175.395H254.807V178.137H258.504V179.057ZM264.375 179.25C264.148 179.52 263.877 179.736 263.561 179.9C263.248 180.064 262.904 180.146 262.529 180.146C262.037 180.146 261.607 180.025 261.24 179.783C260.877 179.541 260.596 179.201 260.396 178.764C260.197 178.322 260.098 177.836 260.098 177.305C260.098 176.734 260.205 176.221 260.42 175.764C260.639 175.307 260.947 174.957 261.346 174.715C261.744 174.473 262.209 174.352 262.74 174.352C263.584 174.352 264.248 174.668 264.732 175.301C265.221 175.93 265.465 176.789 265.465 177.879V178.195C265.465 179.855 265.137 181.068 264.48 181.834C263.824 182.596 262.834 182.986 261.51 183.006H261.299V182.092H261.527C262.422 182.076 263.109 181.844 263.59 181.395C264.07 180.941 264.332 180.227 264.375 179.25ZM262.705 179.25C263.068 179.25 263.402 179.139 263.707 178.916C264.016 178.693 264.24 178.418 264.381 178.09V177.656C264.381 176.945 264.227 176.367 263.918 175.922C263.609 175.477 263.219 175.254 262.746 175.254C262.27 175.254 261.887 175.438 261.598 175.805C261.309 176.168 261.164 176.648 261.164 177.246C261.164 177.828 261.303 178.309 261.58 178.688C261.861 179.062 262.236 179.25 262.705 179.25ZM272.062 179.057H268.365V182.08H272.66V183H267.24V174.469H272.602V175.395H268.365V178.137H272.062V179.057Z" fill="white"/>
<path d="M60.4824 180.598H58.9355L58.4668 183H57.6289L58.0977 180.598H56.6973V179.795H58.25L58.6543 177.721H57.1426V176.906H58.8125L59.293 174.469H60.1309L59.6504 176.906H61.1973L61.6777 174.469H62.5215L62.041 176.906H63.2363V177.721H61.8828L61.4785 179.795H62.7969V180.598H61.3262L60.8574 183H60.0137L60.4824 180.598ZM59.0879 179.795H60.6348L61.0391 177.721H59.4922L59.0879 179.795ZM69.207 179.057H65.5098V182.08H69.8047V183H64.3848V174.469H69.7461V175.395H65.5098V178.137H69.207V179.057ZM76.0273 179.057H72.3301V182.08H76.625V183H71.2051V174.469H76.5664V175.395H72.3301V178.137H76.0273V179.057ZM82.8477 179.057H79.1504V182.08H83.4453V183H78.0254V174.469H83.3867V175.395H79.1504V178.137H82.8477V179.057ZM89.668 179.057H85.9707V182.08H90.2656V183H84.8457V174.469H90.207V175.395H85.9707V178.137H89.668V179.057ZM96.4883 179.057H92.791V182.08H97.0859V183H91.666V174.469H97.0273V175.395H92.791V178.137H96.4883V179.057ZM103.309 179.057H99.6113V182.08H103.906V183H98.4863V174.469H103.848V175.395H99.6113V178.137H103.309V179.057Z" fill="black"/>
<path d="M230.482 240.598H228.936L228.467 243H227.629L228.098 240.598H226.697V239.795H228.25L228.654 237.721H227.143V236.906H228.812L229.293 234.469H230.131L229.65 236.906H231.197L231.678 234.469H232.521L232.041 236.906H233.236V237.721H231.883L231.479 239.795H232.797V240.598H231.326L230.857 243H230.014L230.482 240.598ZM229.088 239.795H230.635L231.039 237.721H229.492L229.088 239.795ZM239.611 235.078L236.078 243H234.941L238.463 235.359H233.846V234.469H239.611V235.078ZM241.34 238.723L241.773 234.469H246.145V235.471H242.693L242.436 237.797C242.854 237.551 243.328 237.428 243.859 237.428C244.637 237.428 245.254 237.686 245.711 238.201C246.168 238.713 246.396 239.406 246.396 240.281C246.396 241.16 246.158 241.854 245.682 242.361C245.209 242.865 244.547 243.117 243.695 243.117C242.941 243.117 242.326 242.908 241.85 242.49C241.373 242.072 241.102 241.494 241.035 240.756H242.061C242.127 241.244 242.301 241.613 242.582 241.863C242.863 242.109 243.234 242.232 243.695 242.232C244.199 242.232 244.594 242.061 244.879 241.717C245.168 241.373 245.312 240.898 245.312 240.293C245.312 239.723 245.156 239.266 244.844 238.922C244.535 238.574 244.123 238.4 243.607 238.4C243.135 238.4 242.764 238.504 242.494 238.711L242.207 238.945L241.34 238.723ZM253.088 235.078L249.555 243H248.418L251.939 235.359H247.322V234.469H253.088V235.078ZM254.816 238.723L255.25 234.469H259.621V235.471H256.17L255.912 237.797C256.33 237.551 256.805 237.428 257.336 237.428C258.113 237.428 258.73 237.686 259.188 238.201C259.645 238.713 259.873 239.406 259.873 240.281C259.873 241.16 259.635 241.854 259.158 242.361C258.686 242.865 258.023 243.117 257.172 243.117C256.418 243.117 255.803 242.908 255.326 242.49C254.85 242.072 254.578 241.494 254.512 240.756H255.537C255.604 241.244 255.777 241.613 256.059 241.863C256.34 242.109 256.711 242.232 257.172 242.232C257.676 242.232 258.07 242.061 258.355 241.717C258.645 241.373 258.789 240.898 258.789 240.293C258.789 239.723 258.633 239.266 258.32 238.922C258.012 238.574 257.6 238.4 257.084 238.4C256.611 238.4 256.24 238.504 255.971 238.711L255.684 238.945L254.816 238.723ZM266.564 235.078L263.031 243H261.895L265.416 235.359H260.799V234.469H266.564V235.078ZM268.293 238.723L268.727 234.469H273.098V235.471H269.646L269.389 237.797C269.807 237.551 270.281 237.428 270.812 237.428C271.59 237.428 272.207 237.686 272.664 238.201C273.121 238.713 273.35 239.406 273.35 240.281C273.35 241.16 273.111 241.854 272.635 242.361C272.162 242.865 271.5 243.117 270.648 243.117C269.895 243.117 269.279 242.908 268.803 242.49C268.326 242.072 268.055 241.494 267.988 240.756H269.014C269.08 241.244 269.254 241.613 269.535 241.863C269.816 242.109 270.188 242.232 270.648 242.232C271.152 242.232 271.547 242.061 271.832 241.717C272.121 241.373 272.266 240.898 272.266 240.293C272.266 239.723 272.109 239.266 271.797 238.922C271.488 238.574 271.076 238.4 270.561 238.4C270.088 238.4 269.717 238.504 269.447 238.711L269.16 238.945L268.293 238.723Z" fill="white"/>
<path d="M60.4824 240.598H58.9355L58.4668 243H57.6289L58.0977 240.598H56.6973V239.795H58.25L58.6543 237.721H57.1426V236.906H58.8125L59.293 234.469H60.1309L59.6504 236.906H61.1973L61.6777 234.469H62.5215L62.041 236.906H63.2363V237.721H61.8828L61.4785 239.795H62.7969V240.598H61.3262L60.8574 243H60.0137L60.4824 240.598ZM59.0879 239.795H60.6348L61.0391 237.721H59.4922L59.0879 239.795ZM69.207 239.057H65.5098V242.08H69.8047V243H64.3848V234.469H69.7461V235.395H65.5098V238.137H69.207V239.057ZM76.2734 239.361C76.2734 240.631 76.0566 241.574 75.623 242.191C75.1895 242.809 74.5117 243.117 73.5898 243.117C72.6797 243.117 72.0059 242.816 71.5684 242.215C71.1309 241.609 70.9043 240.707 70.8887 239.508V238.061C70.8887 236.807 71.1055 235.875 71.5391 235.266C71.9727 234.656 72.6523 234.352 73.5781 234.352C74.4961 234.352 75.1719 234.646 75.6055 235.236C76.0391 235.822 76.2617 236.729 76.2734 237.955V239.361ZM75.1895 237.879C75.1895 236.961 75.0605 236.293 74.8027 235.875C74.5449 235.453 74.1367 235.242 73.5781 235.242C73.0234 235.242 72.6191 235.451 72.3652 235.869C72.1113 236.287 71.9805 236.93 71.9727 237.797V239.531C71.9727 240.453 72.1055 241.135 72.3711 241.576C72.6406 242.014 73.0469 242.232 73.5898 242.232C74.125 242.232 74.5215 242.025 74.7793 241.611C75.041 241.197 75.1777 240.545 75.1895 239.654V237.879ZM82.7656 239.057H79.0684V242.08H83.3633V243H77.9434V234.469H83.3047V235.395H79.0684V238.137H82.7656V239.057ZM89.832 239.361C89.832 240.631 89.6152 241.574 89.1816 242.191C88.748 242.809 88.0703 243.117 87.1484 243.117C86.2383 243.117 85.5645 242.816 85.127 242.215C84.6895 241.609 84.4629 240.707 84.4473 239.508V238.061C84.4473 236.807 84.6641 235.875 85.0977 235.266C85.5312 234.656 86.2109 234.352 87.1367 234.352C88.0547 234.352 88.7305 234.646 89.1641 235.236C89.5977 235.822 89.8203 236.729 89.832 237.955V239.361ZM88.748 237.879C88.748 236.961 88.6191 236.293 88.3613 235.875C88.1035 235.453 87.6953 235.242 87.1367 235.242C86.582 235.242 86.1777 235.451 85.9238 235.869C85.6699 236.287 85.5391 236.93 85.5312 237.797V239.531C85.5312 240.453 85.6641 241.135 85.9297 241.576C86.1992 242.014 86.6055 242.232 87.1484 242.232C87.6836 242.232 88.0801 242.025 88.3379 241.611C88.5996 241.197 88.7363 240.545 88.748 239.654V237.879ZM96.3242 239.057H92.627V242.08H96.9219V243H91.502V234.469H96.8633V235.395H92.627V238.137H96.3242V239.057ZM103.391 239.361C103.391 240.631 103.174 241.574 102.74 242.191C102.307 242.809 101.629 243.117 100.707 243.117C99.7969 243.117 99.123 242.816 98.6855 242.215C98.248 241.609 98.0215 240.707 98.0059 239.508V238.061C98.0059 236.807 98.2227 235.875 98.6562 235.266C99.0898 234.656 99.7695 234.352 100.695 234.352C101.613 234.352 102.289 234.646 102.723 235.236C103.156 235.822 103.379 236.729 103.391 237.955V239.361ZM102.307 237.879C102.307 236.961 102.178 236.293 101.92 235.875C101.662 235.453 101.254 235.242 100.695 235.242C100.141 235.242 99.7363 235.451 99.4824 235.869C99.2285 236.287 99.0977 236.93 99.0898 237.797V239.531C99.0898 240.453 99.2227 241.135 99.4883 241.576C99.7578 242.014 100.164 242.232 100.707 242.232C101.242 242.232 101.639 242.025 101.896 241.611C102.158 241.197 102.295 240.545 102.307 239.654V237.879Z" fill="black"/>
<path d="M400.482 120.598H398.936L398.467 123H397.629L398.098 120.598H396.697V119.795H398.25L398.654 117.721H397.143V116.906H398.812L399.293 114.469H400.131L399.65 116.906H401.197L401.678 114.469H402.521L402.041 116.906H403.236V117.721H401.883L401.479 119.795H402.797V120.598H401.326L400.857 123H400.014L400.482 120.598ZM399.088 119.795H400.635L401.039 117.721H399.492L399.088 119.795ZM408.357 114.463V115.383H408.158C407.314 115.398 406.643 115.648 406.143 116.133C405.643 116.617 405.354 117.299 405.275 118.178C405.725 117.662 406.338 117.404 407.115 117.404C407.857 117.404 408.449 117.666 408.891 118.189C409.336 118.713 409.559 119.389 409.559 120.217C409.559 121.096 409.318 121.799 408.838 122.326C408.361 122.854 407.721 123.117 406.916 123.117C406.1 123.117 405.438 122.805 404.93 122.18C404.422 121.551 404.168 120.742 404.168 119.754V119.338C404.168 117.768 404.502 116.568 405.17 115.74C405.842 114.908 406.84 114.482 408.164 114.463H408.357ZM406.934 118.307C406.562 118.307 406.221 118.418 405.908 118.641C405.596 118.863 405.379 119.143 405.258 119.479V119.877C405.258 120.58 405.416 121.146 405.732 121.576C406.049 122.006 406.443 122.221 406.916 122.221C407.404 122.221 407.787 122.041 408.064 121.682C408.346 121.322 408.486 120.852 408.486 120.27C408.486 119.684 408.344 119.211 408.059 118.852C407.777 118.488 407.402 118.307 406.934 118.307ZM414.404 123H413.314V115.775L411.129 116.578V115.594L414.234 114.428H414.404V123ZM421.834 114.463V115.383H421.635C420.791 115.398 420.119 115.648 419.619 116.133C419.119 116.617 418.83 117.299 418.752 118.178C419.201 117.662 419.814 117.404 420.592 117.404C421.334 117.404 421.926 117.666 422.367 118.189C422.812 118.713 423.035 119.389 423.035 120.217C423.035 121.096 422.795 121.799 422.314 122.326C421.838 122.854 421.197 123.117 420.393 123.117C419.576 123.117 418.914 122.805 418.406 122.18C417.898 121.551 417.645 120.742 417.645 119.754V119.338C417.645 117.768 417.979 116.568 418.646 115.74C419.318 114.908 420.316 114.482 421.641 114.463H421.834ZM420.41 118.307C420.039 118.307 419.697 118.418 419.385 118.641C419.072 118.863 418.855 119.143 418.734 119.479V119.877C418.734 120.58 418.893 121.146 419.209 121.576C419.525 122.006 419.92 122.221 420.393 122.221C420.881 122.221 421.264 122.041 421.541 121.682C421.822 121.322 421.963 120.852 421.963 120.27C421.963 119.684 421.82 119.211 421.535 118.852C421.254 118.488 420.879 118.307 420.41 118.307ZM427.881 123H426.791V115.775L424.605 116.578V115.594L427.711 114.428H427.881V123ZM435.311 114.463V115.383H435.111C434.268 115.398 433.596 115.648 433.096 116.133C432.596 116.617 432.307 117.299 432.229 118.178C432.678 117.662 433.291 117.404 434.068 117.404C434.811 117.404 435.402 117.666 435.844 118.189C436.289 118.713 436.512 119.389 436.512 120.217C436.512 121.096 436.271 121.799 435.791 122.326C435.314 122.854 434.674 123.117 433.869 123.117C433.053 123.117 432.391 122.805 431.883 122.18C431.375 121.551 431.121 120.742 431.121 119.754V119.338C431.121 117.768 431.455 116.568 432.123 115.74C432.795 114.908 433.793 114.482 435.117 114.463H435.311ZM433.887 118.307C433.516 118.307 433.174 118.418 432.861 118.641C432.549 118.863 432.332 119.143 432.211 119.479V119.877C432.211 120.58 432.369 121.146 432.686 121.576C433.002 122.006 433.396 122.221 433.869 122.221C434.357 122.221 434.74 122.041 435.018 121.682C435.299 121.322 435.439 120.852 435.439 120.27C435.439 119.684 435.297 119.211 435.012 118.852C434.73 118.488 434.355 118.307 433.887 118.307ZM441.357 123H440.268V115.775L438.082 116.578V115.594L441.188 114.428H441.357V123Z" fill="white"/>
<path d="M227.482 120.598H225.936L225.467 123H224.629L225.098 120.598H223.697V119.795H225.25L225.654 117.721H224.143V116.906H225.812L226.293 114.469H227.131L226.65 116.906H228.197L228.678 114.469H229.521L229.041 116.906H230.236V117.721H228.883L228.479 119.795H229.797V120.598H228.326L227.857 123H227.014L227.482 120.598ZM226.088 119.795H227.635L228.039 117.721H226.492L226.088 119.795ZM231.385 123V114.469H234.174C235.1 114.469 235.795 114.66 236.26 115.043C236.729 115.426 236.963 115.992 236.963 116.742C236.963 117.141 236.85 117.494 236.623 117.803C236.396 118.107 236.088 118.344 235.697 118.512C236.158 118.641 236.521 118.887 236.787 119.25C237.057 119.609 237.191 120.039 237.191 120.539C237.191 121.305 236.943 121.906 236.447 122.344C235.951 122.781 235.25 123 234.344 123H231.385ZM232.51 119.01V122.08H234.367C234.891 122.08 235.303 121.945 235.604 121.676C235.908 121.402 236.061 121.027 236.061 120.551C236.061 119.523 235.502 119.01 234.385 119.01H232.51ZM232.51 118.107H234.209C234.701 118.107 235.094 117.984 235.387 117.738C235.684 117.492 235.832 117.158 235.832 116.736C235.832 116.268 235.695 115.928 235.422 115.717C235.148 115.502 234.732 115.395 234.174 115.395H232.51V118.107ZM238.861 123V114.469H241.27C242.012 114.469 242.668 114.633 243.238 114.961C243.809 115.289 244.248 115.756 244.557 116.361C244.869 116.967 245.027 117.662 245.031 118.447V118.992C245.031 119.797 244.875 120.502 244.562 121.107C244.254 121.713 243.811 122.178 243.232 122.502C242.658 122.826 241.988 122.992 241.223 123H238.861ZM239.986 115.395V122.08H241.17C242.037 122.08 242.711 121.811 243.191 121.271C243.676 120.732 243.918 119.965 243.918 118.969V118.471C243.918 117.502 243.689 116.75 243.232 116.215C242.779 115.676 242.135 115.402 241.299 115.395H239.986ZM246.736 123V114.469H249.525C250.451 114.469 251.146 114.66 251.611 115.043C252.08 115.426 252.314 115.992 252.314 116.742C252.314 117.141 252.201 117.494 251.975 117.803C251.748 118.107 251.439 118.344 251.049 118.512C251.51 118.641 251.873 118.887 252.139 119.25C252.408 119.609 252.543 120.039 252.543 120.539C252.543 121.305 252.295 121.906 251.799 122.344C251.303 122.781 250.602 123 249.695 123H246.736ZM247.861 119.01V122.08H249.719C250.242 122.08 250.654 121.945 250.955 121.676C251.26 121.402 251.412 121.027 251.412 120.551C251.412 119.523 250.854 119.01 249.736 119.01H247.861ZM247.861 118.107H249.561C250.053 118.107 250.445 117.984 250.738 117.738C251.035 117.492 251.184 117.158 251.184 116.736C251.184 116.268 251.047 115.928 250.773 115.717C250.5 115.502 250.084 115.395 249.525 115.395H247.861V118.107ZM254.213 123V114.469H256.621C257.363 114.469 258.02 114.633 258.59 114.961C259.16 115.289 259.6 115.756 259.908 116.361C260.221 116.967 260.379 117.662 260.383 118.447V118.992C260.383 119.797 260.227 120.502 259.914 121.107C259.605 121.713 259.162 122.178 258.584 122.502C258.01 122.826 257.34 122.992 256.574 123H254.213ZM255.338 115.395V122.08H256.521C257.389 122.08 258.062 121.811 258.543 121.271C259.027 120.732 259.27 119.965 259.27 118.969V118.471C259.27 117.502 259.041 116.75 258.584 116.215C258.131 115.676 257.486 115.402 256.65 115.395H255.338ZM262.088 123V114.469H264.877C265.803 114.469 266.498 114.66 266.963 115.043C267.432 115.426 267.666 115.992 267.666 116.742C267.666 117.141 267.553 117.494 267.326 117.803C267.1 118.107 266.791 118.344 266.4 118.512C266.861 118.641 267.225 118.887 267.49 119.25C267.76 119.609 267.895 120.039 267.895 120.539C267.895 121.305 267.646 121.906 267.15 122.344C266.654 122.781 265.953 123 265.047 123H262.088ZM263.213 119.01V122.08H265.07C265.594 122.08 266.006 121.945 266.307 121.676C266.611 121.402 266.764 121.027 266.764 120.551C266.764 119.523 266.205 119.01 265.088 119.01H263.213ZM263.213 118.107H264.912C265.404 118.107 265.797 117.984 266.09 117.738C266.387 117.492 266.535 117.158 266.535 116.736C266.535 116.268 266.398 115.928 266.125 115.717C265.852 115.502 265.436 115.395 264.877 115.395H263.213V118.107ZM269.564 123V114.469H271.973C272.715 114.469 273.371 114.633 273.941 114.961C274.512 115.289 274.951 115.756 275.26 116.361C275.572 116.967 275.73 117.662 275.734 118.447V118.992C275.734 119.797 275.578 120.502 275.266 121.107C274.957 121.713 274.514 122.178 273.936 122.502C273.361 122.826 272.691 122.992 271.926 123H269.564ZM270.689 115.395V122.08H271.873C272.74 122.08 273.414 121.811 273.895 121.271C274.379 120.732 274.621 119.965 274.621 118.969V118.471C274.621 117.502 274.393 116.75 273.936 116.215C273.482 115.676 272.838 115.402 272.002 115.395H270.689Z" fill="black"/>
<path d="M400.482 180.598H398.936L398.467 183H397.629L398.098 180.598H396.697V179.795H398.25L398.654 177.721H397.143V176.906H398.812L399.293 174.469H400.131L399.65 176.906H401.197L401.678 174.469H402.521L402.041 176.906H403.236V177.721H401.883L401.479 179.795H402.797V180.598H401.326L400.857 183H400.014L400.482 180.598ZM399.088 179.795H400.635L401.039 177.721H399.492L399.088 179.795ZM408.68 180.135H409.863V181.02H408.68V183H407.59V181.02H403.705V180.381L407.525 174.469H408.68V180.135ZM404.936 180.135H407.59V175.951L407.461 176.186L404.936 180.135ZM416.432 183H410.842V182.221L413.795 178.939C414.232 178.443 414.533 178.041 414.697 177.732C414.865 177.42 414.949 177.098 414.949 176.766C414.949 176.32 414.814 175.955 414.545 175.67C414.275 175.385 413.916 175.242 413.467 175.242C412.928 175.242 412.508 175.396 412.207 175.705C411.91 176.01 411.762 176.436 411.762 176.982H410.678C410.678 176.197 410.93 175.562 411.434 175.078C411.941 174.594 412.619 174.352 413.467 174.352C414.26 174.352 414.887 174.561 415.348 174.979C415.809 175.393 416.039 175.945 416.039 176.637C416.039 177.477 415.504 178.477 414.434 179.637L412.148 182.115H416.432V183ZM422.156 180.135H423.34V181.02H422.156V183H421.066V181.02H417.182V180.381L421.002 174.469H422.156V180.135ZM418.412 180.135H421.066V175.951L420.938 176.186L418.412 180.135ZM429.908 183H424.318V182.221L427.271 178.939C427.709 178.443 428.01 178.041 428.174 177.732C428.342 177.42 428.426 177.098 428.426 176.766C428.426 176.32 428.291 175.955 428.021 175.67C427.752 175.385 427.393 175.242 426.943 175.242C426.404 175.242 425.984 175.396 425.684 175.705C425.387 176.01 425.238 176.436 425.238 176.982H424.154C424.154 176.197 424.406 175.562 424.91 175.078C425.418 174.594 426.096 174.352 426.943 174.352C427.736 174.352 428.363 174.561 428.824 174.979C429.285 175.393 429.516 175.945 429.516 176.637C429.516 177.477 428.98 178.477 427.91 179.637L425.625 182.115H429.908V183ZM435.633 180.135H436.816V181.02H435.633V183H434.543V181.02H430.658V180.381L434.479 174.469H435.633V180.135ZM431.889 180.135H434.543V175.951L434.414 176.186L431.889 180.135ZM443.385 183H437.795V182.221L440.748 178.939C441.186 178.443 441.486 178.041 441.65 177.732C441.818 177.42 441.902 177.098 441.902 176.766C441.902 176.32 441.768 175.955 441.498 175.67C441.229 175.385 440.869 175.242 440.42 175.242C439.881 175.242 439.461 175.396 439.16 175.705C438.863 176.01 438.715 176.436 438.715 176.982H437.631C437.631 176.197 437.883 175.562 438.387 175.078C438.895 174.594 439.572 174.352 440.42 174.352C441.213 174.352 441.84 174.561 442.301 174.979C442.762 175.393 442.992 175.945 442.992 176.637C442.992 177.477 442.457 178.477 441.387 179.637L439.102 182.115H443.385V183Z" fill="white"/>
<path d="M400.482 240.598H398.936L398.467 243H397.629L398.098 240.598H396.697V239.795H398.25L398.654 237.721H397.143V236.906H398.812L399.293 234.469H400.131L399.65 236.906H401.197L401.678 234.469H402.521L402.041 236.906H403.236V237.721H401.883L401.479 239.795H402.797V240.598H401.326L400.857 243H400.014L400.482 240.598ZM399.088 239.795H400.635L401.039 237.721H399.492L399.088 239.795ZM409.453 239.361C409.453 240.631 409.236 241.574 408.803 242.191C408.369 242.809 407.691 243.117 406.77 243.117C405.859 243.117 405.186 242.816 404.748 242.215C404.311 241.609 404.084 240.707 404.068 239.508V238.061C404.068 236.807 404.285 235.875 404.719 235.266C405.152 234.656 405.832 234.352 406.758 234.352C407.676 234.352 408.352 234.646 408.785 235.236C409.219 235.822 409.441 236.729 409.453 237.955V239.361ZM408.369 237.879C408.369 236.961 408.24 236.293 407.982 235.875C407.725 235.453 407.316 235.242 406.758 235.242C406.203 235.242 405.799 235.451 405.545 235.869C405.291 236.287 405.16 236.93 405.152 237.797V239.531C405.152 240.453 405.285 241.135 405.551 241.576C405.82 242.014 406.227 242.232 406.77 242.232C407.305 242.232 407.701 242.025 407.959 241.611C408.221 241.197 408.357 240.545 408.369 239.654V237.879ZM416.191 239.361C416.191 240.631 415.975 241.574 415.541 242.191C415.107 242.809 414.43 243.117 413.508 243.117C412.598 243.117 411.924 242.816 411.486 242.215C411.049 241.609 410.822 240.707 410.807 239.508V238.061C410.807 236.807 411.023 235.875 411.457 235.266C411.891 234.656 412.57 234.352 413.496 234.352C414.414 234.352 415.09 234.646 415.523 235.236C415.957 235.822 416.18 236.729 416.191 237.955V239.361ZM415.107 237.879C415.107 236.961 414.979 236.293 414.721 235.875C414.463 235.453 414.055 235.242 413.496 235.242C412.941 235.242 412.537 235.451 412.283 235.869C412.029 236.287 411.898 236.93 411.891 237.797V239.531C411.891 240.453 412.023 241.135 412.289 241.576C412.559 242.014 412.965 242.232 413.508 242.232C414.043 242.232 414.439 242.025 414.697 241.611C414.959 241.197 415.096 240.545 415.107 239.654V237.879ZM422.93 239.361C422.93 240.631 422.713 241.574 422.279 242.191C421.846 242.809 421.168 243.117 420.246 243.117C419.336 243.117 418.662 242.816 418.225 242.215C417.787 241.609 417.561 240.707 417.545 239.508V238.061C417.545 236.807 417.762 235.875 418.195 235.266C418.629 234.656 419.309 234.352 420.234 234.352C421.152 234.352 421.828 234.646 422.262 235.236C422.695 235.822 422.918 236.729 422.93 237.955V239.361ZM421.846 237.879C421.846 236.961 421.717 236.293 421.459 235.875C421.201 235.453 420.793 235.242 420.234 235.242C419.68 235.242 419.275 235.451 419.021 235.869C418.768 236.287 418.637 236.93 418.629 237.797V239.531C418.629 240.453 418.762 241.135 419.027 241.576C419.297 242.014 419.703 242.232 420.246 242.232C420.781 242.232 421.178 242.025 421.436 241.611C421.697 241.197 421.834 240.545 421.846 239.654V237.879ZM429.668 239.361C429.668 240.631 429.451 241.574 429.018 242.191C428.584 242.809 427.906 243.117 426.984 243.117C426.074 243.117 425.4 242.816 424.963 242.215C424.525 241.609 424.299 240.707 424.283 239.508V238.061C424.283 236.807 424.5 235.875 424.934 235.266C425.367 234.656 426.047 234.352 426.973 234.352C427.891 234.352 428.566 234.646 429 235.236C429.434 235.822 429.656 236.729 429.668 237.955V239.361ZM428.584 237.879C428.584 236.961 428.455 236.293 428.197 235.875C427.939 235.453 427.531 235.242 426.973 235.242C426.418 235.242 426.014 235.451 425.76 235.869C425.506 236.287 425.375 236.93 425.367 237.797V239.531C425.367 240.453 425.5 241.135 425.766 241.576C426.035 242.014 426.441 242.232 426.984 242.232C427.52 242.232 427.916 242.025 428.174 241.611C428.436 241.197 428.572 240.545 428.584 239.654V237.879ZM436.406 239.361C436.406 240.631 436.189 241.574 435.756 242.191C435.322 242.809 434.645 243.117 433.723 243.117C432.812 243.117 432.139 242.816 431.701 242.215C431.264 241.609 431.037 240.707 431.021 239.508V238.061C431.021 236.807 431.238 235.875 431.672 235.266C432.105 234.656 432.785 234.352 433.711 234.352C434.629 234.352 435.305 234.646 435.738 235.236C436.172 235.822 436.395 236.729 436.406 237.955V239.361ZM435.322 237.879C435.322 236.961 435.193 236.293 434.936 235.875C434.678 235.453 434.27 235.242 433.711 235.242C433.156 235.242 432.752 235.451 432.498 235.869C432.244 236.287 432.113 236.93 432.105 237.797V239.531C432.105 240.453 432.238 241.135 432.504 241.576C432.773 242.014 433.18 242.232 433.723 242.232C434.258 242.232 434.654 242.025 434.912 241.611C435.174 241.197 435.311 240.545 435.322 239.654V237.879ZM443.145 239.361C443.145 240.631 442.928 241.574 442.494 242.191C442.061 242.809 441.383 243.117 440.461 243.117C439.551 243.117 438.877 242.816 438.439 242.215C438.002 241.609 437.775 240.707 437.76 239.508V238.061C437.76 236.807 437.977 235.875 438.41 235.266C438.844 234.656 439.523 234.352 440.449 234.352C441.367 234.352 442.043 234.646 442.477 235.236C442.91 235.822 443.133 236.729 443.145 237.955V239.361ZM442.061 237.879C442.061 236.961 441.932 236.293 441.674 235.875C441.416 235.453 441.008 235.242 440.449 235.242C439.895 235.242 439.49 235.451 439.236 235.869C438.982 236.287 438.852 236.93 438.844 237.797V239.531C438.844 240.453 438.977 241.135 439.242 241.576C439.512 242.014 439.918 242.232 440.461 242.232C440.996 242.232 441.393 242.025 441.65 241.611C441.912 241.197 442.049 240.545 442.061 239.654V237.879Z" fill="white"/>
</svg>
