<svg width="773" height="95" viewBox="0 0 773 95" fill="none" xmlns="http://www.w3.org/2000/svg">
<path d="M10.2734 15H7.92969V10.125H3.35938V15H1.01562V3.625H3.35938V8.23438H7.92969V3.625H10.2734V15ZM19.1719 10.0703H14.6719V13.1172H19.9531V15H12.3281V3.625H19.9375V5.52344H14.6719V8.23438H19.1719V10.0703ZM27.75 12.6562H23.6406L22.8594 15H20.3672L24.6016 3.625H26.7734L31.0312 15H28.5391L27.75 12.6562ZM24.2734 10.7578H27.1172L25.6875 6.5L24.2734 10.7578ZM39.7188 5.52344H36.2344V15H33.8906V5.52344H30.4531V3.625H39.7188V5.52344ZM44.125 3.625L47.0469 11.875L49.9531 3.625H53.0312V15H50.6797V11.8906L50.9141 6.52344L47.8438 15H46.2344L43.1719 6.53125L43.4062 11.8906V15H41.0625V3.625H44.125ZM61.6406 12.6562H57.5312L56.75 15H54.2578L58.4922 3.625H60.6641L64.9219 15H62.4297L61.6406 12.6562ZM58.1641 10.7578H61.0078L59.5781 6.5L58.1641 10.7578ZM68.3281 10.9922V15H65.9844V3.625H70.4219C71.276 3.625 72.026 3.78125 72.6719 4.09375C73.3229 4.40625 73.8229 4.85156 74.1719 5.42969C74.5208 6.0026 74.6953 6.65625 74.6953 7.39062C74.6953 8.50521 74.3125 9.38542 73.5469 10.0312C72.7865 10.6719 71.7318 10.9922 70.3828 10.9922H68.3281ZM68.3281 9.09375H70.4219C71.0417 9.09375 71.513 8.94792 71.8359 8.65625C72.1641 8.36458 72.3281 7.94792 72.3281 7.40625C72.3281 6.84896 72.1641 6.39844 71.8359 6.05469C71.5078 5.71094 71.0547 5.53385 70.4766 5.52344H68.3281V9.09375ZM89.2969 13.5625C88.875 14.0677 88.2786 14.4609 87.5078 14.7422C86.737 15.0182 85.8828 15.1562 84.9453 15.1562C83.9609 15.1562 83.0964 14.9427 82.3516 14.5156C81.612 14.0833 81.0391 13.4583 80.6328 12.6406C80.2318 11.8229 80.026 10.862 80.0156 9.75781V8.98438C80.0156 7.84896 80.2057 6.86719 80.5859 6.03906C80.9714 5.20573 81.5234 4.57031 82.2422 4.13281C82.9661 3.6901 83.8125 3.46875 84.7812 3.46875C86.1302 3.46875 87.1849 3.79167 87.9453 4.4375C88.7057 5.07812 89.1562 6.01302 89.2969 7.24219H87.0156C86.9115 6.59115 86.6797 6.11458 86.3203 5.8125C85.9661 5.51042 85.4766 5.35938 84.8516 5.35938C84.0547 5.35938 83.4479 5.65885 83.0312 6.25781C82.6146 6.85677 82.4036 7.7474 82.3984 8.92969V9.65625C82.3984 10.849 82.625 11.75 83.0781 12.3594C83.5312 12.9688 84.1953 13.2734 85.0703 13.2734C85.9505 13.2734 86.5781 13.0859 86.9531 12.7109V10.75H84.8203V9.02344H89.2969V13.5625ZM95.4141 10.8359H93.5469V15H91.2031V3.625H95.4297C96.7734 3.625 97.8099 3.92448 98.5391 4.52344C99.2682 5.1224 99.6328 5.96875 99.6328 7.0625C99.6328 7.83854 99.4635 8.48698 99.125 9.00781C98.7917 9.52344 98.2839 9.9349 97.6016 10.2422L100.062 14.8906V15H97.5469L95.4141 10.8359ZM93.5469 8.9375H95.4375C96.026 8.9375 96.4818 8.78906 96.8047 8.49219C97.1276 8.1901 97.2891 7.77604 97.2891 7.25C97.2891 6.71354 97.1354 6.29167 96.8281 5.98438C96.526 5.67708 96.0599 5.52344 95.4297 5.52344H93.5469V8.9375ZM107.844 12.6562H103.734L102.953 15H100.461L104.695 3.625H106.867L111.125 15H108.633L107.844 12.6562ZM104.367 10.7578H107.211L105.781 6.5L104.367 10.7578ZM112.188 15V3.625H115.688C116.688 3.625 117.581 3.85156 118.367 4.30469C119.159 4.7526 119.776 5.39323 120.219 6.22656C120.661 7.05469 120.883 7.9974 120.883 9.05469V9.57812C120.883 10.6354 120.664 11.5755 120.227 12.3984C119.794 13.2214 119.182 13.8594 118.391 14.3125C117.599 14.7656 116.706 14.9948 115.711 15H112.188ZM114.531 5.52344V13.1172H115.664C116.581 13.1172 117.281 12.8177 117.766 12.2188C118.25 11.6198 118.497 10.763 118.508 9.64844V9.04688C118.508 7.89062 118.268 7.01562 117.789 6.42188C117.31 5.82292 116.609 5.52344 115.688 5.52344H114.531ZM128.844 12.6562H124.734L123.953 15H121.461L125.695 3.625H127.867L132.125 15H129.633L128.844 12.6562ZM125.367 10.7578H128.211L126.781 6.5L125.367 10.7578ZM140.812 5.52344H137.328V15H134.984V5.52344H131.547V3.625H140.812V5.52344ZM144.648 15H142.305V3.625H144.648V15ZM156.172 9.57031C156.172 10.6901 155.974 11.6719 155.578 12.5156C155.182 13.3594 154.615 14.0104 153.875 14.4688C153.141 14.9271 152.297 15.1562 151.344 15.1562C150.401 15.1562 149.56 14.9297 148.82 14.4766C148.081 14.0234 147.508 13.3776 147.102 12.5391C146.695 11.6953 146.49 10.7266 146.484 9.63281V9.07031C146.484 7.95052 146.685 6.96615 147.086 6.11719C147.492 5.26302 148.062 4.60938 148.797 4.15625C149.536 3.69792 150.38 3.46875 151.328 3.46875C152.276 3.46875 153.117 3.69792 153.852 4.15625C154.591 4.60938 155.161 5.26302 155.562 6.11719C155.969 6.96615 156.172 7.94792 156.172 9.0625V9.57031ZM153.797 9.05469C153.797 7.86198 153.583 6.95573 153.156 6.33594C152.729 5.71615 152.12 5.40625 151.328 5.40625C150.542 5.40625 149.935 5.71354 149.508 6.32812C149.081 6.9375 148.865 7.83333 148.859 9.01562V9.57031C148.859 10.7318 149.073 11.6328 149.5 12.2734C149.927 12.9141 150.542 13.2344 151.344 13.2344C152.13 13.2344 152.734 12.9271 153.156 12.3125C153.578 11.6927 153.792 10.7917 153.797 9.60938V9.05469ZM167.125 15H164.781L160.219 7.51562V15H157.875V3.625H160.219L164.789 11.125V3.625H167.125V15ZM182.086 11.2109C181.997 12.4349 181.544 13.3984 180.727 14.1016C179.914 14.8047 178.841 15.1562 177.508 15.1562C176.049 15.1562 174.901 14.6667 174.062 13.6875C173.229 12.7031 172.812 11.3542 172.812 9.64062V8.94531C172.812 7.85156 173.005 6.88802 173.391 6.05469C173.776 5.22135 174.326 4.58333 175.039 4.14062C175.758 3.69271 176.591 3.46875 177.539 3.46875C178.852 3.46875 179.909 3.82031 180.711 4.52344C181.513 5.22656 181.977 6.21354 182.102 7.48438H179.758C179.701 6.75 179.495 6.21875 179.141 5.89062C178.792 5.55729 178.258 5.39062 177.539 5.39062C176.758 5.39062 176.172 5.67188 175.781 6.23438C175.396 6.79167 175.198 7.65885 175.188 8.83594V9.69531C175.188 10.9245 175.372 11.8229 175.742 12.3906C176.117 12.9583 176.706 13.2422 177.508 13.2422C178.232 13.2422 178.771 13.0781 179.125 12.75C179.484 12.4167 179.69 11.9036 179.742 11.2109H182.086ZM192.969 9.57031C192.969 10.6901 192.771 11.6719 192.375 12.5156C191.979 13.3594 191.411 14.0104 190.672 14.4688C189.938 14.9271 189.094 15.1562 188.141 15.1562C187.198 15.1562 186.357 14.9297 185.617 14.4766C184.878 14.0234 184.305 13.3776 183.898 12.5391C183.492 11.6953 183.286 10.7266 183.281 9.63281V9.07031C183.281 7.95052 183.482 6.96615 183.883 6.11719C184.289 5.26302 184.859 4.60938 185.594 4.15625C186.333 3.69792 187.177 3.46875 188.125 3.46875C189.073 3.46875 189.914 3.69792 190.648 4.15625C191.388 4.60938 191.958 5.26302 192.359 6.11719C192.766 6.96615 192.969 7.94792 192.969 9.0625V9.57031ZM190.594 9.05469C190.594 7.86198 190.38 6.95573 189.953 6.33594C189.526 5.71615 188.917 5.40625 188.125 5.40625C187.339 5.40625 186.732 5.71354 186.305 6.32812C185.878 6.9375 185.661 7.83333 185.656 9.01562V9.57031C185.656 10.7318 185.87 11.6328 186.297 12.2734C186.724 12.9141 187.339 13.2344 188.141 13.2344C188.927 13.2344 189.531 12.9271 189.953 12.3125C190.375 11.6927 190.589 10.7917 190.594 9.60938V9.05469ZM197.016 13.1172H201.992V15H194.672V3.625H197.016V13.1172ZM212.188 9.57031C212.188 10.6901 211.99 11.6719 211.594 12.5156C211.198 13.3594 210.63 14.0104 209.891 14.4688C209.156 14.9271 208.312 15.1562 207.359 15.1562C206.417 15.1562 205.576 14.9297 204.836 14.4766C204.096 14.0234 203.523 13.3776 203.117 12.5391C202.711 11.6953 202.505 10.7266 202.5 9.63281V9.07031C202.5 7.95052 202.701 6.96615 203.102 6.11719C203.508 5.26302 204.078 4.60938 204.812 4.15625C205.552 3.69792 206.396 3.46875 207.344 3.46875C208.292 3.46875 209.133 3.69792 209.867 4.15625C210.607 4.60938 211.177 5.26302 211.578 6.11719C211.984 6.96615 212.188 7.94792 212.188 9.0625V9.57031ZM209.812 9.05469C209.812 7.86198 209.599 6.95573 209.172 6.33594C208.745 5.71615 208.135 5.40625 207.344 5.40625C206.557 5.40625 205.951 5.71354 205.523 6.32812C205.096 6.9375 204.88 7.83333 204.875 9.01562V9.57031C204.875 10.7318 205.089 11.6328 205.516 12.2734C205.943 12.9141 206.557 13.2344 207.359 13.2344C208.146 13.2344 208.75 12.9271 209.172 12.3125C209.594 11.6927 209.807 10.7917 209.812 9.60938V9.05469ZM218.102 10.8359H216.234V15H213.891V3.625H218.117C219.461 3.625 220.497 3.92448 221.227 4.52344C221.956 5.1224 222.32 5.96875 222.32 7.0625C222.32 7.83854 222.151 8.48698 221.812 9.00781C221.479 9.52344 220.971 9.9349 220.289 10.2422L222.75 14.8906V15H220.234L218.102 10.8359ZM216.234 8.9375H218.125C218.714 8.9375 219.169 8.78906 219.492 8.49219C219.815 8.1901 219.977 7.77604 219.977 7.25C219.977 6.71354 219.823 6.29167 219.516 5.98438C219.214 5.67708 218.747 5.52344 218.117 5.52344H216.234V8.9375ZM230.008 12.0156C230.008 11.5729 229.852 11.2344 229.539 11C229.227 10.7604 228.664 10.5104 227.852 10.25C227.039 9.98438 226.396 9.72396 225.922 9.46875C224.63 8.77083 223.984 7.83073 223.984 6.64844C223.984 6.03385 224.156 5.48698 224.5 5.00781C224.849 4.52344 225.346 4.14583 225.992 3.875C226.643 3.60417 227.372 3.46875 228.18 3.46875C228.992 3.46875 229.716 3.61719 230.352 3.91406C230.987 4.20573 231.479 4.61979 231.828 5.15625C232.182 5.69271 232.359 6.30208 232.359 6.98438H230.016C230.016 6.46354 229.852 6.0599 229.523 5.77344C229.195 5.48177 228.734 5.33594 228.141 5.33594C227.568 5.33594 227.122 5.45833 226.805 5.70312C226.487 5.94271 226.328 6.26042 226.328 6.65625C226.328 7.02604 226.513 7.33594 226.883 7.58594C227.258 7.83594 227.807 8.07031 228.531 8.28906C229.865 8.6901 230.836 9.1875 231.445 9.78125C232.055 10.375 232.359 11.1146 232.359 12C232.359 12.9844 231.987 13.7578 231.242 14.3203C230.497 14.8776 229.495 15.1562 228.234 15.1562C227.359 15.1562 226.562 14.9974 225.844 14.6797C225.125 14.3568 224.576 13.9167 224.195 13.3594C223.82 12.8021 223.633 12.1562 223.633 11.4219H225.984C225.984 12.6771 226.734 13.3047 228.234 13.3047C228.792 13.3047 229.227 13.1927 229.539 12.9688C229.852 12.7396 230.008 12.4219 230.008 12.0156Z" fill="black"/>
<rect y="39" width="42" height="40" fill="#F16464"/>
<rect x="52" y="39" width="42" height="40" fill="#F26E5D"/>
<rect x="104" y="39" width="42" height="40" fill="#F27857"/>
<rect x="156" y="39" width="42" height="40" fill="#F38250"/>
<rect x="208" y="39" width="42" height="40" fill="#F38B4A"/>
<rect x="260" y="39" width="42" height="40" fill="#F49543"/>
<rect x="312" y="39" width="42" height="40" fill="#F49F3D"/>
<rect x="364" y="39" width="42" height="40" fill="#F5A936"/>
<rect x="416" y="39" width="42" height="40" fill="#DEAE48"/>
<rect x="468" y="39" width="42" height="40" fill="#C2B15F"/>
<rect x="520" y="39" width="42" height="40" fill="#A6B575"/>
<rect x="572" y="39" width="42" height="40" fill="#8AB98C"/>
<rect x="625" y="39" width="42" height="40" fill="#6EBCA3"/>
<rect x="678" y="39" width="42" height="40" fill="#52C0BA"/>
<rect x="731" y="39" width="42" height="40" fill="#47C1C3"/>
<path d="M3.73535 89.998H2.44629L2.05566 92H1.35742L1.74805 89.998H0.581055V89.3291H1.875L2.21191 87.6006H0.952148V86.9219H2.34375L2.74414 84.8906H3.44238L3.04199 86.9219H4.33105L4.73145 84.8906H5.43457L5.03418 86.9219H6.03027V87.6006H4.90234L4.56543 89.3291H5.66406V89.998H4.43848L4.04785 92H3.34473L3.73535 89.998ZM2.57324 89.3291H3.8623L4.19922 87.6006H2.91016L2.57324 89.3291ZM10.9082 88.8604H7.9248V92H6.9873V84.8906H11.3916V85.6621H7.9248V88.0938H10.9082V88.8604ZM12.6953 88.4355L13.0566 84.8906H16.6992V85.7256H13.8232L13.6084 87.6641C13.9567 87.459 14.3522 87.3564 14.7949 87.3564C15.4427 87.3564 15.957 87.5713 16.3379 88.001C16.7188 88.4274 16.9092 89.0052 16.9092 89.7344C16.9092 90.4668 16.7106 91.0446 16.3135 91.4678C15.9196 91.8877 15.3678 92.0977 14.6582 92.0977C14.0299 92.0977 13.5173 91.9235 13.1201 91.5752C12.723 91.2269 12.4967 90.7451 12.4414 90.1299H13.2959C13.3512 90.5368 13.4961 90.8444 13.7305 91.0527C13.9648 91.2578 14.2741 91.3604 14.6582 91.3604C15.0781 91.3604 15.4069 91.2171 15.6445 90.9307C15.8854 90.6442 16.0059 90.2487 16.0059 89.7441C16.0059 89.2689 15.8757 88.888 15.6152 88.6016C15.3581 88.3118 15.0146 88.167 14.585 88.167C14.1911 88.167 13.8818 88.2533 13.6572 88.4258L13.418 88.6211L12.6953 88.4355ZM22.0557 90.1445H19.0771L18.4082 92H17.4414L20.1562 84.8906H20.9766L23.6963 92H22.7344L22.0557 90.1445ZM19.3604 89.373H21.7773L20.5664 86.0479L19.3604 89.373ZM24.6533 92V84.8906H26.9775C27.749 84.8906 28.3285 85.0501 28.7158 85.3691C29.1064 85.6882 29.3018 86.1602 29.3018 86.7852C29.3018 87.1172 29.2074 87.4118 29.0186 87.6689C28.8298 87.9229 28.5726 88.1198 28.2471 88.2598C28.6312 88.3672 28.9339 88.5723 29.1553 88.875C29.3799 89.1745 29.4922 89.5326 29.4922 89.9492C29.4922 90.5872 29.2855 91.0885 28.8721 91.4531C28.4587 91.8177 27.8743 92 27.1191 92H24.6533ZM25.5908 88.6748V91.2334H27.1387C27.5749 91.2334 27.9183 91.1211 28.1689 90.8965C28.4229 90.6686 28.5498 90.3561 28.5498 89.959C28.5498 89.1029 28.0843 88.6748 27.1533 88.6748H25.5908ZM25.5908 87.9229H27.0068C27.417 87.9229 27.7441 87.8203 27.9883 87.6152C28.2357 87.4102 28.3594 87.1318 28.3594 86.7803C28.3594 86.3896 28.2454 86.1064 28.0176 85.9307C27.7897 85.7516 27.443 85.6621 26.9775 85.6621H25.5908V87.9229ZM31.9629 88.0059H32.6416C33.068 87.9993 33.4033 87.887 33.6475 87.6689C33.8916 87.4508 34.0137 87.1562 34.0137 86.7852C34.0137 85.9518 33.5986 85.5352 32.7686 85.5352C32.3779 85.5352 32.0654 85.6475 31.8311 85.8721C31.5999 86.0934 31.4844 86.388 31.4844 86.7559H30.5811C30.5811 86.1927 30.7861 85.7256 31.1963 85.3545C31.6097 84.9801 32.1338 84.793 32.7686 84.793C33.4391 84.793 33.9648 84.9704 34.3457 85.3252C34.7266 85.68 34.917 86.1732 34.917 86.8047C34.917 87.1139 34.8161 87.4134 34.6143 87.7031C34.4157 87.9928 34.1439 88.2093 33.7988 88.3525C34.1895 88.4762 34.4906 88.6813 34.7021 88.9678C34.917 89.2542 35.0244 89.6042 35.0244 90.0176C35.0244 90.6556 34.8161 91.1618 34.3994 91.5361C33.9827 91.9105 33.4408 92.0977 32.7734 92.0977C32.1061 92.0977 31.5625 91.917 31.1426 91.5557C30.7259 91.1943 30.5176 90.7174 30.5176 90.125H31.4258C31.4258 90.4993 31.5479 90.7988 31.792 91.0234C32.0361 91.248 32.3633 91.3604 32.7734 91.3604C33.2096 91.3604 33.5433 91.2464 33.7744 91.0186C34.0055 90.7907 34.1211 90.4635 34.1211 90.0371C34.1211 89.6237 33.9941 89.3063 33.7402 89.085C33.4863 88.8636 33.1201 88.7497 32.6416 88.7432H31.9629V88.0059ZM36.6797 88.4355L37.041 84.8906H40.6836V85.7256H37.8076L37.5928 87.6641C37.9411 87.459 38.3366 87.3564 38.7793 87.3564C39.4271 87.3564 39.9414 87.5713 40.3223 88.001C40.7031 88.4274 40.8936 89.0052 40.8936 89.7344C40.8936 90.4668 40.695 91.0446 40.2979 91.4678C39.904 91.8877 39.3522 92.0977 38.6426 92.0977C38.0143 92.0977 37.5016 91.9235 37.1045 91.5752C36.7074 91.2269 36.4811 90.7451 36.4258 90.1299H37.2803C37.3356 90.5368 37.4805 90.8444 37.7148 91.0527C37.9492 91.2578 38.2585 91.3604 38.6426 91.3604C39.0625 91.3604 39.3913 91.2171 39.6289 90.9307C39.8698 90.6442 39.9902 90.2487 39.9902 89.7441C39.9902 89.2689 39.86 88.888 39.5996 88.6016C39.3424 88.3118 38.999 88.167 38.5693 88.167C38.1755 88.167 37.8662 88.2533 37.6416 88.4258L37.4023 88.6211L36.6797 88.4355Z" fill="black"/>
<path d="M55.7354 89.998H54.4463L54.0557 92H53.3574L53.748 89.998H52.5811V89.3291H53.875L54.2119 87.6006H52.9521V86.9219H54.3438L54.7441 84.8906H55.4424L55.042 86.9219H56.3311L56.7314 84.8906H57.4346L57.0342 86.9219H58.0303V87.6006H56.9023L56.5654 89.3291H57.6641V89.998H56.4385L56.0479 92H55.3447L55.7354 89.998ZM54.5732 89.3291H55.8623L56.1992 87.6006H54.9102L54.5732 89.3291ZM62.9082 88.8604H59.9248V92H58.9873V84.8906H63.3916V85.6621H59.9248V88.0938H62.9082V88.8604ZM68.9385 92H64.2803V91.3506L66.7412 88.6162C67.1058 88.2028 67.3564 87.8675 67.4932 87.6104C67.6331 87.3499 67.7031 87.0814 67.7031 86.8047C67.7031 86.4336 67.5908 86.1292 67.3662 85.8916C67.1416 85.654 66.8421 85.5352 66.4678 85.5352C66.0186 85.5352 65.6686 85.6637 65.418 85.9209C65.1706 86.1748 65.0469 86.5296 65.0469 86.9854H64.1436C64.1436 86.3311 64.3535 85.8021 64.7734 85.3984C65.1966 84.9948 65.7614 84.793 66.4678 84.793C67.1286 84.793 67.651 84.9671 68.0352 85.3154C68.4193 85.6605 68.6113 86.1211 68.6113 86.6973C68.6113 87.3971 68.1654 88.2305 67.2734 89.1973L65.3691 91.2627H68.9385V92ZM73.4404 84.8857V85.6523H73.2744C72.5713 85.6654 72.0114 85.8737 71.5947 86.2773C71.1781 86.681 70.9372 87.249 70.8721 87.9814C71.2464 87.5518 71.7575 87.3369 72.4053 87.3369C73.0238 87.3369 73.5169 87.555 73.8848 87.9912C74.2559 88.4274 74.4414 88.9906 74.4414 89.6807C74.4414 90.4131 74.2412 90.999 73.8408 91.4385C73.4437 91.8779 72.9098 92.0977 72.2393 92.0977C71.5589 92.0977 71.0072 91.8372 70.584 91.3164C70.1608 90.7923 69.9492 90.1185 69.9492 89.2949V88.9482C69.9492 87.6396 70.2275 86.6403 70.7842 85.9502C71.3441 85.2568 72.1758 84.902 73.2793 84.8857H73.4404ZM72.2539 88.0889C71.9447 88.0889 71.6598 88.1816 71.3994 88.3672C71.139 88.5527 70.9583 88.7855 70.8574 89.0654V89.3975C70.8574 89.9834 70.9893 90.4554 71.2529 90.8135C71.5166 91.1715 71.8454 91.3506 72.2393 91.3506C72.6462 91.3506 72.9652 91.2008 73.1963 90.9014C73.4307 90.6019 73.5479 90.2096 73.5479 89.7246C73.5479 89.2363 73.429 88.8424 73.1914 88.543C72.957 88.2402 72.6445 88.0889 72.2539 88.0889ZM79.7637 88.7139H76.6826V91.2334H80.2617V92H75.7451V84.8906H80.2129V85.6621H76.6826V87.9473H79.7637V88.7139ZM81.6094 88.4355L81.9707 84.8906H85.6133V85.7256H82.7373L82.5225 87.6641C82.8708 87.459 83.2663 87.3564 83.709 87.3564C84.3568 87.3564 84.8711 87.5713 85.252 88.001C85.6328 88.4274 85.8232 89.0052 85.8232 89.7344C85.8232 90.4668 85.6247 91.0446 85.2275 91.4678C84.8337 91.8877 84.2819 92.0977 83.5723 92.0977C82.944 92.0977 82.4313 91.9235 82.0342 91.5752C81.637 91.2269 81.4108 90.7451 81.3555 90.1299H82.21C82.2653 90.5368 82.4102 90.8444 82.6445 91.0527C82.8789 91.2578 83.1882 91.3604 83.5723 91.3604C83.9922 91.3604 84.321 91.2171 84.5586 90.9307C84.7995 90.6442 84.9199 90.2487 84.9199 89.7441C84.9199 89.2689 84.7897 88.888 84.5293 88.6016C84.2721 88.3118 83.9287 88.167 83.499 88.167C83.1051 88.167 82.7959 88.2533 82.5713 88.4258L82.332 88.6211L81.6094 88.4355ZM87.0439 92V84.8906H89.0508C89.6693 84.8906 90.2161 85.0273 90.6914 85.3008C91.1667 85.5742 91.5329 85.9632 91.79 86.4678C92.0505 86.9723 92.1823 87.5518 92.1855 88.2061V88.6602C92.1855 89.3307 92.0553 89.9183 91.7949 90.4229C91.5378 90.9274 91.1683 91.3148 90.6865 91.585C90.208 91.8551 89.6497 91.9935 89.0117 92H87.0439ZM87.9814 85.6621V91.2334H88.9678C89.6904 91.2334 90.252 91.0088 90.6523 90.5596C91.056 90.1104 91.2578 89.4707 91.2578 88.6406V88.2256C91.2578 87.4183 91.0674 86.7917 90.6865 86.3457C90.3089 85.8965 89.7718 85.6686 89.0752 85.6621H87.9814Z" fill="black"/>
<path d="M107.735 89.998H106.446L106.056 92H105.357L105.748 89.998H104.581V89.3291H105.875L106.212 87.6006H104.952V86.9219H106.344L106.744 84.8906H107.442L107.042 86.9219H108.331L108.731 84.8906H109.435L109.034 86.9219H110.03V87.6006H108.902L108.565 89.3291H109.664V89.998H108.438L108.048 92H107.345L107.735 89.998ZM106.573 89.3291H107.862L108.199 87.6006H106.91L106.573 89.3291ZM114.908 88.8604H111.925V92H110.987V84.8906H115.392V85.6621H111.925V88.0938H114.908V88.8604ZM120.938 92H116.28V91.3506L118.741 88.6162C119.106 88.2028 119.356 87.8675 119.493 87.6104C119.633 87.3499 119.703 87.0814 119.703 86.8047C119.703 86.4336 119.591 86.1292 119.366 85.8916C119.142 85.654 118.842 85.5352 118.468 85.5352C118.019 85.5352 117.669 85.6637 117.418 85.9209C117.171 86.1748 117.047 86.5296 117.047 86.9854H116.144C116.144 86.3311 116.354 85.8021 116.773 85.3984C117.197 84.9948 117.761 84.793 118.468 84.793C119.129 84.793 119.651 84.9671 120.035 85.3154C120.419 85.6605 120.611 86.1211 120.611 86.6973C120.611 87.3971 120.165 88.2305 119.273 89.1973L117.369 91.2627H120.938V92ZM126.485 85.3984L123.541 92H122.594L125.528 85.6328H121.681V84.8906H126.485V85.3984ZM131.822 86.7461C131.822 87.1009 131.728 87.4167 131.539 87.6934C131.354 87.9701 131.101 88.1865 130.782 88.3428C131.153 88.5023 131.446 88.735 131.661 89.041C131.879 89.347 131.988 89.6937 131.988 90.0811C131.988 90.6963 131.78 91.1862 131.363 91.5508C130.95 91.9154 130.405 92.0977 129.728 92.0977C129.044 92.0977 128.495 91.9154 128.082 91.5508C127.672 91.1829 127.467 90.693 127.467 90.0811C127.467 89.6969 127.571 89.3503 127.779 89.041C127.991 88.7318 128.282 88.4974 128.653 88.3379C128.338 88.1816 128.089 87.9652 127.906 87.6885C127.724 87.4118 127.633 87.0977 127.633 86.7461C127.633 86.1471 127.825 85.6719 128.209 85.3203C128.593 84.9688 129.099 84.793 129.728 84.793C130.353 84.793 130.857 84.9688 131.241 85.3203C131.629 85.6719 131.822 86.1471 131.822 86.7461ZM131.085 90.0615C131.085 89.6644 130.958 89.3405 130.704 89.0898C130.453 88.8392 130.125 88.7139 129.718 88.7139C129.311 88.7139 128.984 88.8376 128.736 89.085C128.492 89.3324 128.37 89.6579 128.37 90.0615C128.37 90.4652 128.489 90.7826 128.727 91.0137C128.967 91.2448 129.301 91.3604 129.728 91.3604C130.151 91.3604 130.483 91.2448 130.724 91.0137C130.965 90.7793 131.085 90.4619 131.085 90.0615ZM129.728 85.5352C129.373 85.5352 129.085 85.6458 128.863 85.8672C128.645 86.0853 128.536 86.3831 128.536 86.7607C128.536 87.1221 128.644 87.415 128.858 87.6396C129.076 87.861 129.366 87.9717 129.728 87.9717C130.089 87.9717 130.377 87.861 130.592 87.6396C130.81 87.415 130.919 87.1221 130.919 86.7607C130.919 86.3994 130.807 86.1048 130.582 85.877C130.357 85.6491 130.073 85.5352 129.728 85.5352ZM133.541 88.4355L133.902 84.8906H137.545V85.7256H134.669L134.454 87.6641C134.802 87.459 135.198 87.3564 135.641 87.3564C136.288 87.3564 136.803 87.5713 137.184 88.001C137.564 88.4274 137.755 89.0052 137.755 89.7344C137.755 90.4668 137.556 91.0446 137.159 91.4678C136.765 91.8877 136.214 92.0977 135.504 92.0977C134.876 92.0977 134.363 91.9235 133.966 91.5752C133.569 91.2269 133.342 90.7451 133.287 90.1299H134.142C134.197 90.5368 134.342 90.8444 134.576 91.0527C134.811 91.2578 135.12 91.3604 135.504 91.3604C135.924 91.3604 136.253 91.2171 136.49 90.9307C136.731 90.6442 136.852 90.2487 136.852 89.7441C136.852 89.2689 136.721 88.888 136.461 88.6016C136.204 88.3118 135.86 88.167 135.431 88.167C135.037 88.167 134.728 88.2533 134.503 88.4258L134.264 88.6211L133.541 88.4355ZM143.331 85.3984L140.387 92H139.439L142.374 85.6328H138.526V84.8906H143.331V85.3984Z" fill="black"/>
<path d="M159.735 89.998H158.446L158.056 92H157.357L157.748 89.998H156.581V89.3291H157.875L158.212 87.6006H156.952V86.9219H158.344L158.744 84.8906H159.442L159.042 86.9219H160.331L160.731 84.8906H161.435L161.034 86.9219H162.03V87.6006H160.902L160.565 89.3291H161.664V89.998H160.438L160.048 92H159.345L159.735 89.998ZM158.573 89.3291H159.862L160.199 87.6006H158.91L158.573 89.3291ZM166.908 88.8604H163.925V92H162.987V84.8906H167.392V85.6621H163.925V88.0938H166.908V88.8604ZM169.594 88.0059H170.272C170.699 87.9993 171.034 87.887 171.278 87.6689C171.522 87.4508 171.645 87.1562 171.645 86.7852C171.645 85.9518 171.229 85.5352 170.399 85.5352C170.009 85.5352 169.696 85.6475 169.462 85.8721C169.231 86.0934 169.115 86.388 169.115 86.7559H168.212C168.212 86.1927 168.417 85.7256 168.827 85.3545C169.241 84.9801 169.765 84.793 170.399 84.793C171.07 84.793 171.596 84.9704 171.977 85.3252C172.357 85.68 172.548 86.1732 172.548 86.8047C172.548 87.1139 172.447 87.4134 172.245 87.7031C172.047 87.9928 171.775 88.2093 171.43 88.3525C171.82 88.4762 172.121 88.6813 172.333 88.9678C172.548 89.2542 172.655 89.6042 172.655 90.0176C172.655 90.6556 172.447 91.1618 172.03 91.5361C171.614 91.9105 171.072 92.0977 170.404 92.0977C169.737 92.0977 169.193 91.917 168.773 91.5557C168.357 91.1943 168.148 90.7174 168.148 90.125H169.057C169.057 90.4993 169.179 90.7988 169.423 91.0234C169.667 91.248 169.994 91.3604 170.404 91.3604C170.84 91.3604 171.174 91.2464 171.405 91.0186C171.636 90.7907 171.752 90.4635 171.752 90.0371C171.752 89.6237 171.625 89.3063 171.371 89.085C171.117 88.8636 170.751 88.7497 170.272 88.7432H169.594V88.0059ZM178.207 86.7461C178.207 87.1009 178.113 87.4167 177.924 87.6934C177.738 87.9701 177.486 88.1865 177.167 88.3428C177.538 88.5023 177.831 88.735 178.046 89.041C178.264 89.347 178.373 89.6937 178.373 90.0811C178.373 90.6963 178.165 91.1862 177.748 91.5508C177.335 91.9154 176.789 92.0977 176.112 92.0977C175.429 92.0977 174.88 91.9154 174.467 91.5508C174.057 91.1829 173.852 90.693 173.852 90.0811C173.852 89.6969 173.956 89.3503 174.164 89.041C174.376 88.7318 174.667 88.4974 175.038 88.3379C174.722 88.1816 174.473 87.9652 174.291 87.6885C174.109 87.4118 174.018 87.0977 174.018 86.7461C174.018 86.1471 174.21 85.6719 174.594 85.3203C174.978 84.9688 175.484 84.793 176.112 84.793C176.737 84.793 177.242 84.9688 177.626 85.3203C178.013 85.6719 178.207 86.1471 178.207 86.7461ZM177.47 90.0615C177.47 89.6644 177.343 89.3405 177.089 89.0898C176.838 88.8392 176.509 88.7139 176.103 88.7139C175.696 88.7139 175.368 88.8376 175.121 89.085C174.877 89.3324 174.755 89.6579 174.755 90.0615C174.755 90.4652 174.874 90.7826 175.111 91.0137C175.352 91.2448 175.686 91.3604 176.112 91.3604C176.535 91.3604 176.868 91.2448 177.108 91.0137C177.349 90.7793 177.47 90.4619 177.47 90.0615ZM176.112 85.5352C175.757 85.5352 175.469 85.6458 175.248 85.8672C175.03 86.0853 174.921 86.3831 174.921 86.7607C174.921 87.1221 175.028 87.415 175.243 87.6396C175.461 87.861 175.751 87.9717 176.112 87.9717C176.474 87.9717 176.762 87.861 176.977 87.6396C177.195 87.415 177.304 87.1221 177.304 86.7607C177.304 86.3994 177.191 86.1048 176.967 85.877C176.742 85.6491 176.457 85.5352 176.112 85.5352ZM184.169 92H179.511V91.3506L181.972 88.6162C182.336 88.2028 182.587 87.8675 182.724 87.6104C182.864 87.3499 182.934 87.0814 182.934 86.8047C182.934 86.4336 182.821 86.1292 182.597 85.8916C182.372 85.654 182.073 85.5352 181.698 85.5352C181.249 85.5352 180.899 85.6637 180.648 85.9209C180.401 86.1748 180.277 86.5296 180.277 86.9854H179.374C179.374 86.3311 179.584 85.8021 180.004 85.3984C180.427 84.9948 180.992 84.793 181.698 84.793C182.359 84.793 182.882 84.9671 183.266 85.3154C183.65 85.6605 183.842 86.1211 183.842 86.6973C183.842 87.3971 183.396 88.2305 182.504 89.1973L180.6 91.2627H184.169V92ZM185.541 88.4355L185.902 84.8906H189.545V85.7256H186.669L186.454 87.6641C186.802 87.459 187.198 87.3564 187.641 87.3564C188.288 87.3564 188.803 87.5713 189.184 88.001C189.564 88.4274 189.755 89.0052 189.755 89.7344C189.755 90.4668 189.556 91.0446 189.159 91.4678C188.765 91.8877 188.214 92.0977 187.504 92.0977C186.876 92.0977 186.363 91.9235 185.966 91.5752C185.569 91.2269 185.342 90.7451 185.287 90.1299H186.142C186.197 90.5368 186.342 90.8444 186.576 91.0527C186.811 91.2578 187.12 91.3604 187.504 91.3604C187.924 91.3604 188.253 91.2171 188.49 90.9307C188.731 90.6442 188.852 90.2487 188.852 89.7441C188.852 89.2689 188.721 88.888 188.461 88.6016C188.204 88.3118 187.86 88.167 187.431 88.167C187.037 88.167 186.728 88.2533 186.503 88.4258L186.264 88.6211L185.541 88.4355ZM195.199 88.9678C195.199 90.0257 195.019 90.8118 194.657 91.3262C194.296 91.8405 193.731 92.0977 192.963 92.0977C192.204 92.0977 191.643 91.847 191.278 91.3457C190.914 90.8411 190.725 90.0892 190.712 89.0898V87.8838C190.712 86.8389 190.893 86.0625 191.254 85.5547C191.615 85.0469 192.182 84.793 192.953 84.793C193.718 84.793 194.281 85.0387 194.643 85.5303C195.004 86.0186 195.189 86.7738 195.199 87.7959V88.9678ZM194.296 87.7324C194.296 86.9674 194.188 86.4108 193.974 86.0625C193.759 85.7109 193.419 85.5352 192.953 85.5352C192.491 85.5352 192.154 85.7093 191.942 86.0576C191.731 86.4059 191.622 86.9414 191.615 87.6641V89.1094C191.615 89.8776 191.726 90.4456 191.947 90.8135C192.172 91.1781 192.51 91.3604 192.963 91.3604C193.409 91.3604 193.739 91.1878 193.954 90.8428C194.172 90.4977 194.286 89.9541 194.296 89.2119V87.7324Z" fill="black"/>
<path d="M211.735 89.998H210.446L210.056 92H209.357L209.748 89.998H208.581V89.3291H209.875L210.212 87.6006H208.952V86.9219H210.344L210.744 84.8906H211.442L211.042 86.9219H212.331L212.731 84.8906H213.435L213.034 86.9219H214.03V87.6006H212.902L212.565 89.3291H213.664V89.998H212.438L212.048 92H211.345L211.735 89.998ZM210.573 89.3291H211.862L212.199 87.6006H210.91L210.573 89.3291ZM218.908 88.8604H215.925V92H214.987V84.8906H219.392V85.6621H215.925V88.0938H218.908V88.8604ZM221.594 88.0059H222.272C222.699 87.9993 223.034 87.887 223.278 87.6689C223.522 87.4508 223.645 87.1562 223.645 86.7852C223.645 85.9518 223.229 85.5352 222.399 85.5352C222.009 85.5352 221.696 85.6475 221.462 85.8721C221.231 86.0934 221.115 86.388 221.115 86.7559H220.212C220.212 86.1927 220.417 85.7256 220.827 85.3545C221.241 84.9801 221.765 84.793 222.399 84.793C223.07 84.793 223.596 84.9704 223.977 85.3252C224.357 85.68 224.548 86.1732 224.548 86.8047C224.548 87.1139 224.447 87.4134 224.245 87.7031C224.047 87.9928 223.775 88.2093 223.43 88.3525C223.82 88.4762 224.121 88.6813 224.333 88.9678C224.548 89.2542 224.655 89.6042 224.655 90.0176C224.655 90.6556 224.447 91.1618 224.03 91.5361C223.614 91.9105 223.072 92.0977 222.404 92.0977C221.737 92.0977 221.193 91.917 220.773 91.5557C220.357 91.1943 220.148 90.7174 220.148 90.125H221.057C221.057 90.4993 221.179 90.7988 221.423 91.0234C221.667 91.248 221.994 91.3604 222.404 91.3604C222.84 91.3604 223.174 91.2464 223.405 91.0186C223.636 90.7907 223.752 90.4635 223.752 90.0371C223.752 89.6237 223.625 89.3063 223.371 89.085C223.117 88.8636 222.751 88.7497 222.272 88.7432H221.594V88.0059ZM230.207 86.7461C230.207 87.1009 230.113 87.4167 229.924 87.6934C229.738 87.9701 229.486 88.1865 229.167 88.3428C229.538 88.5023 229.831 88.735 230.046 89.041C230.264 89.347 230.373 89.6937 230.373 90.0811C230.373 90.6963 230.165 91.1862 229.748 91.5508C229.335 91.9154 228.789 92.0977 228.112 92.0977C227.429 92.0977 226.88 91.9154 226.467 91.5508C226.057 91.1829 225.852 90.693 225.852 90.0811C225.852 89.6969 225.956 89.3503 226.164 89.041C226.376 88.7318 226.667 88.4974 227.038 88.3379C226.722 88.1816 226.473 87.9652 226.291 87.6885C226.109 87.4118 226.018 87.0977 226.018 86.7461C226.018 86.1471 226.21 85.6719 226.594 85.3203C226.978 84.9688 227.484 84.793 228.112 84.793C228.737 84.793 229.242 84.9688 229.626 85.3203C230.013 85.6719 230.207 86.1471 230.207 86.7461ZM229.47 90.0615C229.47 89.6644 229.343 89.3405 229.089 89.0898C228.838 88.8392 228.509 88.7139 228.103 88.7139C227.696 88.7139 227.368 88.8376 227.121 89.085C226.877 89.3324 226.755 89.6579 226.755 90.0615C226.755 90.4652 226.874 90.7826 227.111 91.0137C227.352 91.2448 227.686 91.3604 228.112 91.3604C228.535 91.3604 228.868 91.2448 229.108 91.0137C229.349 90.7793 229.47 90.4619 229.47 90.0615ZM228.112 85.5352C227.757 85.5352 227.469 85.6458 227.248 85.8672C227.03 86.0853 226.921 86.3831 226.921 86.7607C226.921 87.1221 227.028 87.415 227.243 87.6396C227.461 87.861 227.751 87.9717 228.112 87.9717C228.474 87.9717 228.762 87.861 228.977 87.6396C229.195 87.415 229.304 87.1221 229.304 86.7607C229.304 86.3994 229.191 86.1048 228.967 85.877C228.742 85.6491 228.457 85.5352 228.112 85.5352ZM231.745 92V84.8906H234.069C234.841 84.8906 235.42 85.0501 235.808 85.3691C236.198 85.6882 236.394 86.1602 236.394 86.7852C236.394 87.1172 236.299 87.4118 236.11 87.6689C235.922 87.9229 235.664 88.1198 235.339 88.2598C235.723 88.3672 236.026 88.5723 236.247 88.875C236.472 89.1745 236.584 89.5326 236.584 89.9492C236.584 90.5872 236.377 91.0885 235.964 91.4531C235.55 91.8177 234.966 92 234.211 92H231.745ZM232.683 88.6748V91.2334H234.23C234.667 91.2334 235.01 91.1211 235.261 90.8965C235.515 90.6686 235.642 90.3561 235.642 89.959C235.642 89.1029 235.176 88.6748 234.245 88.6748H232.683ZM232.683 87.9229H234.099C234.509 87.9229 234.836 87.8203 235.08 87.6152C235.327 87.4102 235.451 87.1318 235.451 86.7803C235.451 86.3896 235.337 86.1064 235.109 85.9307C234.882 85.7516 234.535 85.6621 234.069 85.6621H232.683V87.9229ZM241.555 89.6123H242.541V90.3496H241.555V92H240.646V90.3496H237.409V89.8174L240.593 84.8906H241.555V89.6123ZM238.435 89.6123H240.646V86.126L240.539 86.3213L238.435 89.6123ZM247.517 90.1445H244.538L243.869 92H242.902L245.617 84.8906H246.438L249.157 92H248.195L247.517 90.1445ZM244.821 89.373H247.238L246.027 86.0479L244.821 89.373Z" fill="black"/>
<path d="M263.735 89.998H262.446L262.056 92H261.357L261.748 89.998H260.581V89.3291H261.875L262.212 87.6006H260.952V86.9219H262.344L262.744 84.8906H263.442L263.042 86.9219H264.331L264.731 84.8906H265.435L265.034 86.9219H266.03V87.6006H264.902L264.565 89.3291H265.664V89.998H264.438L264.048 92H263.345L263.735 89.998ZM262.573 89.3291H263.862L264.199 87.6006H262.91L262.573 89.3291ZM270.908 88.8604H267.925V92H266.987V84.8906H271.392V85.6621H267.925V88.0938H270.908V88.8604ZM276.094 89.6123H277.08V90.3496H276.094V92H275.186V90.3496H271.948V89.8174L275.132 84.8906H276.094V89.6123ZM272.974 89.6123H275.186V86.126L275.078 86.3213L272.974 89.6123ZM281.357 88.875C281.169 89.0996 280.942 89.2803 280.679 89.417C280.418 89.5537 280.132 89.6221 279.819 89.6221C279.409 89.6221 279.051 89.5212 278.745 89.3193C278.442 89.1175 278.208 88.8343 278.042 88.4697C277.876 88.1019 277.793 87.6966 277.793 87.2539C277.793 86.7786 277.882 86.3506 278.062 85.9697C278.244 85.5889 278.501 85.2975 278.833 85.0957C279.165 84.8939 279.552 84.793 279.995 84.793C280.698 84.793 281.252 85.0566 281.655 85.584C282.062 86.1081 282.266 86.8242 282.266 87.7324V87.9961C282.266 89.3796 281.992 90.3903 281.445 91.0283C280.898 91.6631 280.073 91.9886 278.97 92.0049H278.794V91.2432H278.984C279.73 91.2301 280.303 91.0365 280.703 90.6621C281.104 90.2845 281.322 89.6888 281.357 88.875ZM279.966 88.875C280.269 88.875 280.547 88.7822 280.801 88.5967C281.058 88.4111 281.245 88.1816 281.362 87.9082V87.5469C281.362 86.9544 281.234 86.4727 280.977 86.1016C280.719 85.7305 280.394 85.5449 280 85.5449C279.603 85.5449 279.284 85.6979 279.043 86.0039C278.802 86.3066 278.682 86.707 278.682 87.2051C278.682 87.6901 278.797 88.0905 279.028 88.4062C279.263 88.7188 279.575 88.875 279.966 88.875ZM283.926 88.4355L284.287 84.8906H287.93V85.7256H285.054L284.839 87.6641C285.187 87.459 285.583 87.3564 286.025 87.3564C286.673 87.3564 287.188 87.5713 287.568 88.001C287.949 88.4274 288.14 89.0052 288.14 89.7344C288.14 90.4668 287.941 91.0446 287.544 91.4678C287.15 91.8877 286.598 92.0977 285.889 92.0977C285.26 92.0977 284.748 91.9235 284.351 91.5752C283.953 91.2269 283.727 90.7451 283.672 90.1299H284.526C284.582 90.5368 284.727 90.8444 284.961 91.0527C285.195 91.2578 285.505 91.3604 285.889 91.3604C286.309 91.3604 286.637 91.2171 286.875 90.9307C287.116 90.6442 287.236 90.2487 287.236 89.7441C287.236 89.2689 287.106 88.888 286.846 88.6016C286.589 88.3118 286.245 88.167 285.815 88.167C285.422 88.167 285.112 88.2533 284.888 88.4258L284.648 88.6211L283.926 88.4355ZM292.939 89.6123H293.926V90.3496H292.939V92H292.031V90.3496H288.794V89.8174L291.978 84.8906H292.939V89.6123ZM289.819 89.6123H292.031V86.126L291.924 86.3213L289.819 89.6123ZM296.055 88.0059H296.733C297.16 87.9993 297.495 87.887 297.739 87.6689C297.983 87.4508 298.105 87.1562 298.105 86.7852C298.105 85.9518 297.69 85.5352 296.86 85.5352C296.47 85.5352 296.157 85.6475 295.923 85.8721C295.692 86.0934 295.576 86.388 295.576 86.7559H294.673C294.673 86.1927 294.878 85.7256 295.288 85.3545C295.701 84.9801 296.226 84.793 296.86 84.793C297.531 84.793 298.057 84.9704 298.438 85.3252C298.818 85.68 299.009 86.1732 299.009 86.8047C299.009 87.1139 298.908 87.4134 298.706 87.7031C298.507 87.9928 298.236 88.2093 297.891 88.3525C298.281 88.4762 298.582 88.6813 298.794 88.9678C299.009 89.2542 299.116 89.6042 299.116 90.0176C299.116 90.6556 298.908 91.1618 298.491 91.5361C298.075 91.9105 297.533 92.0977 296.865 92.0977C296.198 92.0977 295.654 91.917 295.234 91.5557C294.818 91.1943 294.609 90.7174 294.609 90.125H295.518C295.518 90.4993 295.64 90.7988 295.884 91.0234C296.128 91.248 296.455 91.3604 296.865 91.3604C297.301 91.3604 297.635 91.2464 297.866 91.0186C298.097 90.7907 298.213 90.4635 298.213 90.0371C298.213 89.6237 298.086 89.3063 297.832 89.085C297.578 88.8636 297.212 88.7497 296.733 88.7432H296.055V88.0059Z" fill="black"/>
<path d="M315.735 89.998H314.446L314.056 92H313.357L313.748 89.998H312.581V89.3291H313.875L314.212 87.6006H312.952V86.9219H314.344L314.744 84.8906H315.442L315.042 86.9219H316.331L316.731 84.8906H317.435L317.034 86.9219H318.03V87.6006H316.902L316.565 89.3291H317.664V89.998H316.438L316.048 92H315.345L315.735 89.998ZM314.573 89.3291H315.862L316.199 87.6006H314.91L314.573 89.3291ZM322.908 88.8604H319.925V92H318.987V84.8906H323.392V85.6621H319.925V88.0938H322.908V88.8604ZM328.094 89.6123H329.08V90.3496H328.094V92H327.186V90.3496H323.948V89.8174L327.132 84.8906H328.094V89.6123ZM324.974 89.6123H327.186V86.126L327.078 86.3213L324.974 89.6123ZM333.357 88.875C333.169 89.0996 332.942 89.2803 332.679 89.417C332.418 89.5537 332.132 89.6221 331.819 89.6221C331.409 89.6221 331.051 89.5212 330.745 89.3193C330.442 89.1175 330.208 88.8343 330.042 88.4697C329.876 88.1019 329.793 87.6966 329.793 87.2539C329.793 86.7786 329.882 86.3506 330.062 85.9697C330.244 85.5889 330.501 85.2975 330.833 85.0957C331.165 84.8939 331.552 84.793 331.995 84.793C332.698 84.793 333.252 85.0566 333.655 85.584C334.062 86.1081 334.266 86.8242 334.266 87.7324V87.9961C334.266 89.3796 333.992 90.3903 333.445 91.0283C332.898 91.6631 332.073 91.9886 330.97 92.0049H330.794V91.2432H330.984C331.73 91.2301 332.303 91.0365 332.703 90.6621C333.104 90.2845 333.322 89.6888 333.357 88.875ZM331.966 88.875C332.269 88.875 332.547 88.7822 332.801 88.5967C333.058 88.4111 333.245 88.1816 333.362 87.9082V87.5469C333.362 86.9544 333.234 86.4727 332.977 86.1016C332.719 85.7305 332.394 85.5449 332 85.5449C331.603 85.5449 331.284 85.6979 331.043 86.0039C330.802 86.3066 330.682 86.707 330.682 87.2051C330.682 87.6901 330.797 88.0905 331.028 88.4062C331.263 88.7188 331.575 88.875 331.966 88.875ZM339.666 88.8604H336.683V92H335.745V84.8906H340.149V85.6621H336.683V88.0938H339.666V88.8604ZM342.352 88.0059H343.03C343.457 87.9993 343.792 87.887 344.036 87.6689C344.28 87.4508 344.402 87.1562 344.402 86.7852C344.402 85.9518 343.987 85.5352 343.157 85.5352C342.767 85.5352 342.454 85.6475 342.22 85.8721C341.989 86.0934 341.873 86.388 341.873 86.7559H340.97C340.97 86.1927 341.175 85.7256 341.585 85.3545C341.998 84.9801 342.522 84.793 343.157 84.793C343.828 84.793 344.354 84.9704 344.734 85.3252C345.115 85.68 345.306 86.1732 345.306 86.8047C345.306 87.1139 345.205 87.4134 345.003 87.7031C344.804 87.9928 344.533 88.2093 344.188 88.3525C344.578 88.4762 344.879 88.6813 345.091 88.9678C345.306 89.2542 345.413 89.6042 345.413 90.0176C345.413 90.6556 345.205 91.1618 344.788 91.5361C344.371 91.9105 343.829 92.0977 343.162 92.0977C342.495 92.0977 341.951 91.917 341.531 91.5557C341.115 91.1943 340.906 90.7174 340.906 90.125H341.814C341.814 90.4993 341.937 90.7988 342.181 91.0234C342.425 91.248 342.752 91.3604 343.162 91.3604C343.598 91.3604 343.932 91.2464 344.163 91.0186C344.394 90.7907 344.51 90.4635 344.51 90.0371C344.51 89.6237 344.383 89.3063 344.129 89.085C343.875 88.8636 343.509 88.7497 343.03 88.7432H342.352V88.0059ZM346.888 92V84.8906H348.895C349.513 84.8906 350.06 85.0273 350.535 85.3008C351.01 85.5742 351.377 85.9632 351.634 86.4678C351.894 86.9723 352.026 87.5518 352.029 88.2061V88.6602C352.029 89.3307 351.899 89.9183 351.639 90.4229C351.382 90.9274 351.012 91.3148 350.53 91.585C350.052 91.8551 349.493 91.9935 348.855 92H346.888ZM347.825 85.6621V91.2334H348.812C349.534 91.2334 350.096 91.0088 350.496 90.5596C350.9 90.1104 351.102 89.4707 351.102 88.6406V88.2256C351.102 87.4183 350.911 86.7917 350.53 86.3457C350.153 85.8965 349.616 85.6686 348.919 85.6621H347.825Z" fill="black"/>
<path d="M367.735 89.998H366.446L366.056 92H365.357L365.748 89.998H364.581V89.3291H365.875L366.212 87.6006H364.952V86.9219H366.344L366.744 84.8906H367.442L367.042 86.9219H368.331L368.731 84.8906H369.435L369.034 86.9219H370.03V87.6006H368.902L368.565 89.3291H369.664V89.998H368.438L368.048 92H367.345L367.735 89.998ZM366.573 89.3291H367.862L368.199 87.6006H366.91L366.573 89.3291ZM374.908 88.8604H371.925V92H370.987V84.8906H375.392V85.6621H371.925V88.0938H374.908V88.8604ZM376.695 88.4355L377.057 84.8906H380.699V85.7256H377.823L377.608 87.6641C377.957 87.459 378.352 87.3564 378.795 87.3564C379.443 87.3564 379.957 87.5713 380.338 88.001C380.719 88.4274 380.909 89.0052 380.909 89.7344C380.909 90.4668 380.711 91.0446 380.313 91.4678C379.92 91.8877 379.368 92.0977 378.658 92.0977C378.03 92.0977 377.517 91.9235 377.12 91.5752C376.723 91.2269 376.497 90.7451 376.441 90.1299H377.296C377.351 90.5368 377.496 90.8444 377.73 91.0527C377.965 91.2578 378.274 91.3604 378.658 91.3604C379.078 91.3604 379.407 91.2171 379.645 90.9307C379.885 90.6442 380.006 90.2487 380.006 89.7441C380.006 89.2689 379.876 88.888 379.615 88.6016C379.358 88.3118 379.015 88.167 378.585 88.167C378.191 88.167 377.882 88.2533 377.657 88.4258L377.418 88.6211L376.695 88.4355ZM386.056 90.1445H383.077L382.408 92H381.441L384.156 84.8906H384.977L387.696 92H386.734L386.056 90.1445ZM383.36 89.373H385.777L384.566 86.0479L383.36 89.373ZM391.881 88.875C391.692 89.0996 391.466 89.2803 391.202 89.417C390.942 89.5537 390.655 89.6221 390.343 89.6221C389.933 89.6221 389.575 89.5212 389.269 89.3193C388.966 89.1175 388.731 88.8343 388.565 88.4697C388.399 88.1019 388.316 87.6966 388.316 87.2539C388.316 86.7786 388.406 86.3506 388.585 85.9697C388.767 85.5889 389.024 85.2975 389.356 85.0957C389.688 84.8939 390.076 84.793 390.519 84.793C391.222 84.793 391.775 85.0566 392.179 85.584C392.586 86.1081 392.789 86.8242 392.789 87.7324V87.9961C392.789 89.3796 392.516 90.3903 391.969 91.0283C391.422 91.6631 390.597 91.9886 389.493 92.0049H389.317V91.2432H389.508C390.253 91.2301 390.826 91.0365 391.227 90.6621C391.627 90.2845 391.845 89.6888 391.881 88.875ZM390.489 88.875C390.792 88.875 391.07 88.7822 391.324 88.5967C391.581 88.4111 391.769 88.1816 391.886 87.9082V87.5469C391.886 86.9544 391.757 86.4727 391.5 86.1016C391.243 85.7305 390.917 85.5449 390.523 85.5449C390.126 85.5449 389.807 85.6979 389.566 86.0039C389.326 86.3066 389.205 86.707 389.205 87.2051C389.205 87.6901 389.321 88.0905 389.552 88.4062C389.786 88.7188 390.099 88.875 390.489 88.875ZM395.348 88.0059H396.026C396.453 87.9993 396.788 87.887 397.032 87.6689C397.276 87.4508 397.398 87.1562 397.398 86.7852C397.398 85.9518 396.983 85.5352 396.153 85.5352C395.763 85.5352 395.45 85.6475 395.216 85.8721C394.985 86.0934 394.869 86.388 394.869 86.7559H393.966C393.966 86.1927 394.171 85.7256 394.581 85.3545C394.994 84.9801 395.519 84.793 396.153 84.793C396.824 84.793 397.35 84.9704 397.73 85.3252C398.111 85.68 398.302 86.1732 398.302 86.8047C398.302 87.1139 398.201 87.4134 397.999 87.7031C397.8 87.9928 397.529 88.2093 397.184 88.3525C397.574 88.4762 397.875 88.6813 398.087 88.9678C398.302 89.2542 398.409 89.6042 398.409 90.0176C398.409 90.6556 398.201 91.1618 397.784 91.5361C397.368 91.9105 396.826 92.0977 396.158 92.0977C395.491 92.0977 394.947 91.917 394.527 91.5557C394.111 91.1943 393.902 90.7174 393.902 90.125H394.811C394.811 90.4993 394.933 90.7988 395.177 91.0234C395.421 91.248 395.748 91.3604 396.158 91.3604C396.594 91.3604 396.928 91.2464 397.159 91.0186C397.39 90.7907 397.506 90.4635 397.506 90.0371C397.506 89.6237 397.379 89.3063 397.125 89.085C396.871 88.8636 396.505 88.7497 396.026 88.7432H395.348V88.0059ZM403.194 84.8857V85.6523H403.028C402.325 85.6654 401.765 85.8737 401.349 86.2773C400.932 86.681 400.691 87.249 400.626 87.9814C401 87.5518 401.511 87.3369 402.159 87.3369C402.778 87.3369 403.271 87.555 403.639 87.9912C404.01 88.4274 404.195 88.9906 404.195 89.6807C404.195 90.4131 403.995 90.999 403.595 91.4385C403.198 91.8779 402.664 92.0977 401.993 92.0977C401.313 92.0977 400.761 91.8372 400.338 91.3164C399.915 90.7923 399.703 90.1185 399.703 89.2949V88.9482C399.703 87.6396 399.981 86.6403 400.538 85.9502C401.098 85.2568 401.93 84.902 403.033 84.8857H403.194ZM402.008 88.0889C401.699 88.0889 401.414 88.1816 401.153 88.3672C400.893 88.5527 400.712 88.7855 400.611 89.0654V89.3975C400.611 89.9834 400.743 90.4554 401.007 90.8135C401.271 91.1715 401.599 91.3506 401.993 91.3506C402.4 91.3506 402.719 91.2008 402.95 90.9014C403.185 90.6019 403.302 90.2096 403.302 89.7246C403.302 89.2363 403.183 88.8424 402.945 88.543C402.711 88.2402 402.398 88.0889 402.008 88.0889Z" fill="black"/>
<path d="M419.735 89.998H418.446L418.056 92H417.357L417.748 89.998H416.581V89.3291H417.875L418.212 87.6006H416.952V86.9219H418.344L418.744 84.8906H419.442L419.042 86.9219H420.331L420.731 84.8906H421.435L421.034 86.9219H422.03V87.6006H420.902L420.565 89.3291H421.664V89.998H420.438L420.048 92H419.345L419.735 89.998ZM418.573 89.3291H419.862L420.199 87.6006H418.91L418.573 89.3291ZM422.987 92V84.8906H424.994C425.613 84.8906 426.16 85.0273 426.635 85.3008C427.11 85.5742 427.476 85.9632 427.733 86.4678C427.994 86.9723 428.126 87.5518 428.129 88.2061V88.6602C428.129 89.3307 427.999 89.9183 427.738 90.4229C427.481 90.9274 427.112 91.3148 426.63 91.585C426.151 91.8551 425.593 91.9935 424.955 92H422.987ZM423.925 85.6621V91.2334H424.911C425.634 91.2334 426.195 91.0088 426.596 90.5596C426.999 90.1104 427.201 89.4707 427.201 88.6406V88.2256C427.201 87.4183 427.011 86.7917 426.63 86.3457C426.252 85.8965 425.715 85.6686 425.019 85.6621H423.925ZM433.568 88.7139H430.487V91.2334H434.066V92H429.55V84.8906H434.018V85.6621H430.487V87.9473H433.568V88.7139ZM439.159 90.1445H436.181L435.512 92H434.545L437.26 84.8906H438.08L440.8 92H439.838L439.159 90.1445ZM436.464 89.373H438.881L437.67 86.0479L436.464 89.373ZM445.775 88.7139H442.694V91.2334H446.273V92H441.757V84.8906H446.225V85.6621H442.694V87.9473H445.775V88.7139ZM451.02 89.6123H452.006V90.3496H451.02V92H450.111V90.3496H446.874V89.8174L450.058 84.8906H451.02V89.6123ZM447.899 89.6123H450.111V86.126L450.004 86.3213L447.899 89.6123ZM457.133 86.7461C457.133 87.1009 457.038 87.4167 456.85 87.6934C456.664 87.9701 456.412 88.1865 456.093 88.3428C456.464 88.5023 456.757 88.735 456.972 89.041C457.19 89.347 457.299 89.6937 457.299 90.0811C457.299 90.6963 457.09 91.1862 456.674 91.5508C456.26 91.9154 455.715 92.0977 455.038 92.0977C454.354 92.0977 453.806 91.9154 453.393 91.5508C452.982 91.1829 452.777 90.693 452.777 90.0811C452.777 89.6969 452.882 89.3503 453.09 89.041C453.301 88.7318 453.593 88.4974 453.964 88.3379C453.648 88.1816 453.399 87.9652 453.217 87.6885C453.035 87.4118 452.943 87.0977 452.943 86.7461C452.943 86.1471 453.135 85.6719 453.52 85.3203C453.904 84.9688 454.41 84.793 455.038 84.793C455.663 84.793 456.168 84.9688 456.552 85.3203C456.939 85.6719 457.133 86.1471 457.133 86.7461ZM456.396 90.0615C456.396 89.6644 456.269 89.3405 456.015 89.0898C455.764 88.8392 455.435 88.7139 455.028 88.7139C454.621 88.7139 454.294 88.8376 454.047 89.085C453.803 89.3324 453.681 89.6579 453.681 90.0615C453.681 90.4652 453.799 90.7826 454.037 91.0137C454.278 91.2448 454.612 91.3604 455.038 91.3604C455.461 91.3604 455.793 91.2448 456.034 91.0137C456.275 90.7793 456.396 90.4619 456.396 90.0615ZM455.038 85.5352C454.683 85.5352 454.395 85.6458 454.174 85.8672C453.956 86.0853 453.847 86.3831 453.847 86.7607C453.847 87.1221 453.954 87.415 454.169 87.6396C454.387 87.861 454.677 87.9717 455.038 87.9717C455.399 87.9717 455.688 87.861 455.902 87.6396C456.12 87.415 456.229 87.1221 456.229 86.7607C456.229 86.3994 456.117 86.1048 455.893 85.877C455.668 85.6491 455.383 85.5352 455.038 85.5352Z" fill="black"/>
<path d="M471.735 89.998H470.446L470.056 92H469.357L469.748 89.998H468.581V89.3291H469.875L470.212 87.6006H468.952V86.9219H470.344L470.744 84.8906H471.442L471.042 86.9219H472.331L472.731 84.8906H473.435L473.034 86.9219H474.03V87.6006H472.902L472.565 89.3291H473.664V89.998H472.438L472.048 92H471.345L471.735 89.998ZM470.573 89.3291H471.862L472.199 87.6006H470.91L470.573 89.3291ZM480.217 89.7441C480.129 90.4961 479.851 91.0771 479.382 91.4873C478.916 91.8942 478.296 92.0977 477.521 92.0977C476.682 92.0977 476.008 91.7965 475.5 91.1943C474.995 90.5921 474.743 89.7865 474.743 88.7773V88.0938C474.743 87.4329 474.86 86.8519 475.095 86.3506C475.332 85.8493 475.668 85.4652 476.101 85.1982C476.534 84.9281 477.035 84.793 477.604 84.793C478.36 84.793 478.965 85.0046 479.421 85.4277C479.877 85.8477 480.142 86.4303 480.217 87.1758H479.274C479.193 86.6094 479.016 86.1992 478.742 85.9453C478.472 85.6914 478.093 85.5645 477.604 85.5645C477.006 85.5645 476.535 85.7858 476.193 86.2285C475.855 86.6712 475.686 87.3011 475.686 88.1182V88.8066C475.686 89.5781 475.847 90.1917 476.169 90.6475C476.491 91.1032 476.942 91.3311 477.521 91.3311C478.042 91.3311 478.441 91.2139 478.718 90.9795C478.998 90.7419 479.183 90.3301 479.274 89.7441H480.217ZM485.925 92H481.267V91.3506L483.728 88.6162C484.092 88.2028 484.343 87.8675 484.479 87.6104C484.619 87.3499 484.689 87.0814 484.689 86.8047C484.689 86.4336 484.577 86.1292 484.353 85.8916C484.128 85.654 483.828 85.5352 483.454 85.5352C483.005 85.5352 482.655 85.6637 482.404 85.9209C482.157 86.1748 482.033 86.5296 482.033 86.9854H481.13C481.13 86.3311 481.34 85.8021 481.76 85.3984C482.183 84.9948 482.748 84.793 483.454 84.793C484.115 84.793 484.637 84.9671 485.021 85.3154C485.406 85.6605 485.598 86.1211 485.598 86.6973C485.598 87.3971 485.152 88.2305 484.26 89.1973L482.355 91.2627H485.925V92ZM487.116 92V84.8906H489.44C490.212 84.8906 490.791 85.0501 491.179 85.3691C491.569 85.6882 491.765 86.1602 491.765 86.7852C491.765 87.1172 491.67 87.4118 491.481 87.6689C491.293 87.9229 491.035 88.1198 490.71 88.2598C491.094 88.3672 491.397 88.5723 491.618 88.875C491.843 89.1745 491.955 89.5326 491.955 89.9492C491.955 90.5872 491.748 91.0885 491.335 91.4531C490.922 91.8177 490.337 92 489.582 92H487.116ZM488.054 88.6748V91.2334H489.602C490.038 91.2334 490.381 91.1211 490.632 90.8965C490.886 90.6686 491.013 90.3561 491.013 89.959C491.013 89.1029 490.547 88.6748 489.616 88.6748H488.054ZM488.054 87.9229H489.47C489.88 87.9229 490.207 87.8203 490.451 87.6152C490.699 87.4102 490.822 87.1318 490.822 86.7803C490.822 86.3896 490.708 86.1064 490.48 85.9307C490.253 85.7516 489.906 85.6621 489.44 85.6621H488.054V87.9229ZM496.081 92H495.173V85.9795L493.352 86.6484V85.8281L495.939 84.8564H496.081V92ZM499.143 88.4355L499.504 84.8906H503.146V85.7256H500.271L500.056 87.6641C500.404 87.459 500.799 87.3564 501.242 87.3564C501.89 87.3564 502.404 87.5713 502.785 88.001C503.166 88.4274 503.356 89.0052 503.356 89.7344C503.356 90.4668 503.158 91.0446 502.761 91.4678C502.367 91.8877 501.815 92.0977 501.105 92.0977C500.477 92.0977 499.965 91.9235 499.567 91.5752C499.17 91.2269 498.944 90.7451 498.889 90.1299H499.743C499.799 90.5368 499.943 90.8444 500.178 91.0527C500.412 91.2578 500.721 91.3604 501.105 91.3604C501.525 91.3604 501.854 91.2171 502.092 90.9307C502.333 90.6442 502.453 90.2487 502.453 89.7441C502.453 89.2689 502.323 88.888 502.062 88.6016C501.805 88.3118 501.462 88.167 501.032 88.167C500.638 88.167 500.329 88.2533 500.104 88.4258L499.865 88.6211L499.143 88.4355ZM508.498 88.8604H505.515V92H504.577V84.8906H508.981V85.6621H505.515V88.0938H508.498V88.8604Z" fill="black"/>
<path d="M523.735 89.998H522.446L522.056 92H521.357L521.748 89.998H520.581V89.3291H521.875L522.212 87.6006H520.952V86.9219H522.344L522.744 84.8906H523.442L523.042 86.9219H524.331L524.731 84.8906H525.435L525.034 86.9219H526.03V87.6006H524.902L524.565 89.3291H525.664V89.998H524.438L524.048 92H523.345L523.735 89.998ZM522.573 89.3291H523.862L524.199 87.6006H522.91L522.573 89.3291ZM530.913 90.1445H527.935L527.266 92H526.299L529.014 84.8906H529.834L532.554 92H531.592L530.913 90.1445ZM528.218 89.373H530.635L529.424 86.0479L528.218 89.373ZM536.821 84.8857V85.6523H536.655C535.952 85.6654 535.392 85.8737 534.976 86.2773C534.559 86.681 534.318 87.249 534.253 87.9814C534.627 87.5518 535.138 87.3369 535.786 87.3369C536.405 87.3369 536.898 87.555 537.266 87.9912C537.637 88.4274 537.822 88.9906 537.822 89.6807C537.822 90.4131 537.622 90.999 537.222 91.4385C536.825 91.8779 536.291 92.0977 535.62 92.0977C534.94 92.0977 534.388 91.8372 533.965 91.3164C533.542 90.7923 533.33 90.1185 533.33 89.2949V88.9482C533.33 87.6396 533.608 86.6403 534.165 85.9502C534.725 85.2568 535.557 84.902 536.66 84.8857H536.821ZM535.635 88.0889C535.326 88.0889 535.041 88.1816 534.78 88.3672C534.52 88.5527 534.339 88.7855 534.238 89.0654V89.3975C534.238 89.9834 534.37 90.4554 534.634 90.8135C534.897 91.1715 535.226 91.3506 535.62 91.3506C536.027 91.3506 536.346 91.2008 536.577 90.9014C536.812 90.6019 536.929 90.2096 536.929 89.7246C536.929 89.2363 536.81 88.8424 536.572 88.543C536.338 88.2402 536.025 88.0889 535.635 88.0889ZM539.126 92V84.8906H541.45C542.222 84.8906 542.801 85.0501 543.188 85.3691C543.579 85.6882 543.774 86.1602 543.774 86.7852C543.774 87.1172 543.68 87.4118 543.491 87.6689C543.302 87.9229 543.045 88.1198 542.72 88.2598C543.104 88.3672 543.407 88.5723 543.628 88.875C543.853 89.1745 543.965 89.5326 543.965 89.9492C543.965 90.5872 543.758 91.0885 543.345 91.4531C542.931 91.8177 542.347 92 541.592 92H539.126ZM540.063 88.6748V91.2334H541.611C542.048 91.2334 542.391 91.1211 542.642 90.8965C542.896 90.6686 543.022 90.3561 543.022 89.959C543.022 89.1029 542.557 88.6748 541.626 88.6748H540.063ZM540.063 87.9229H541.479C541.89 87.9229 542.217 87.8203 542.461 87.6152C542.708 87.4102 542.832 87.1318 542.832 86.7803C542.832 86.3896 542.718 86.1064 542.49 85.9307C542.262 85.7516 541.916 85.6621 541.45 85.6621H540.063V87.9229ZM545.537 88.4355L545.898 84.8906H549.541V85.7256H546.665L546.45 87.6641C546.799 87.459 547.194 87.3564 547.637 87.3564C548.285 87.3564 548.799 87.5713 549.18 88.001C549.561 88.4274 549.751 89.0052 549.751 89.7344C549.751 90.4668 549.552 91.0446 549.155 91.4678C548.761 91.8877 548.21 92.0977 547.5 92.0977C546.872 92.0977 546.359 91.9235 545.962 91.5752C545.565 91.2269 545.339 90.7451 545.283 90.1299H546.138C546.193 90.5368 546.338 90.8444 546.572 91.0527C546.807 91.2578 547.116 91.3604 547.5 91.3604C547.92 91.3604 548.249 91.2171 548.486 90.9307C548.727 90.6442 548.848 90.2487 548.848 89.7441C548.848 89.2689 548.717 88.888 548.457 88.6016C548.2 88.3118 547.856 88.167 547.427 88.167C547.033 88.167 546.724 88.2533 546.499 88.4258L546.26 88.6211L545.537 88.4355ZM555.327 85.3984L552.383 92H551.436L554.37 85.6328H550.522V84.8906H555.327V85.3984ZM556.768 88.4355L557.129 84.8906H560.771V85.7256H557.896L557.681 87.6641C558.029 87.459 558.424 87.3564 558.867 87.3564C559.515 87.3564 560.029 87.5713 560.41 88.001C560.791 88.4274 560.981 89.0052 560.981 89.7344C560.981 90.4668 560.783 91.0446 560.386 91.4678C559.992 91.8877 559.44 92.0977 558.73 92.0977C558.102 92.0977 557.59 91.9235 557.192 91.5752C556.795 91.2269 556.569 90.7451 556.514 90.1299H557.368C557.424 90.5368 557.568 90.8444 557.803 91.0527C558.037 91.2578 558.346 91.3604 558.73 91.3604C559.15 91.3604 559.479 91.2171 559.717 90.9307C559.958 90.6442 560.078 90.2487 560.078 89.7441C560.078 89.2689 559.948 88.888 559.688 88.6016C559.43 88.3118 559.087 88.167 558.657 88.167C558.263 88.167 557.954 88.2533 557.729 88.4258L557.49 88.6211L556.768 88.4355Z" fill="black"/>
<path d="M575.735 89.998H574.446L574.056 92H573.357L573.748 89.998H572.581V89.3291H573.875L574.212 87.6006H572.952V86.9219H574.344L574.744 84.8906H575.442L575.042 86.9219H576.331L576.731 84.8906H577.435L577.034 86.9219H578.03V87.6006H576.902L576.565 89.3291H577.664V89.998H576.438L576.048 92H575.345L575.735 89.998ZM574.573 89.3291H575.862L576.199 87.6006H574.91L574.573 89.3291ZM583.064 86.7461C583.064 87.1009 582.97 87.4167 582.781 87.6934C582.596 87.9701 582.343 88.1865 582.024 88.3428C582.396 88.5023 582.688 88.735 582.903 89.041C583.121 89.347 583.23 89.6937 583.23 90.0811C583.23 90.6963 583.022 91.1862 582.605 91.5508C582.192 91.9154 581.647 92.0977 580.97 92.0977C580.286 92.0977 579.738 91.9154 579.324 91.5508C578.914 91.1829 578.709 90.693 578.709 90.0811C578.709 89.6969 578.813 89.3503 579.021 89.041C579.233 88.7318 579.524 88.4974 579.896 88.3379C579.58 88.1816 579.331 87.9652 579.148 87.6885C578.966 87.4118 578.875 87.0977 578.875 86.7461C578.875 86.1471 579.067 85.6719 579.451 85.3203C579.835 84.9688 580.341 84.793 580.97 84.793C581.595 84.793 582.099 84.9688 582.483 85.3203C582.871 85.6719 583.064 86.1471 583.064 86.7461ZM582.327 90.0615C582.327 89.6644 582.2 89.3405 581.946 89.0898C581.696 88.8392 581.367 88.7139 580.96 88.7139C580.553 88.7139 580.226 88.8376 579.979 89.085C579.734 89.3324 579.612 89.6579 579.612 90.0615C579.612 90.4652 579.731 90.7826 579.969 91.0137C580.21 91.2448 580.543 91.3604 580.97 91.3604C581.393 91.3604 581.725 91.2448 581.966 91.0137C582.207 90.7793 582.327 90.4619 582.327 90.0615ZM580.97 85.5352C580.615 85.5352 580.327 85.6458 580.105 85.8672C579.887 86.0853 579.778 86.3831 579.778 86.7607C579.778 87.1221 579.886 87.415 580.101 87.6396C580.319 87.861 580.608 87.9717 580.97 87.9717C581.331 87.9717 581.619 87.861 581.834 87.6396C582.052 87.415 582.161 87.1221 582.161 86.7607C582.161 86.3994 582.049 86.1048 581.824 85.877C581.6 85.6491 581.315 85.5352 580.97 85.5352ZM588.528 90.1445H585.55L584.881 92H583.914L586.629 84.8906H587.449L590.169 92H589.207L588.528 90.1445ZM585.833 89.373H588.25L587.039 86.0479L585.833 89.373ZM591.126 92V84.8906H593.45C594.222 84.8906 594.801 85.0501 595.188 85.3691C595.579 85.6882 595.774 86.1602 595.774 86.7852C595.774 87.1172 595.68 87.4118 595.491 87.6689C595.302 87.9229 595.045 88.1198 594.72 88.2598C595.104 88.3672 595.407 88.5723 595.628 88.875C595.853 89.1745 595.965 89.5326 595.965 89.9492C595.965 90.5872 595.758 91.0885 595.345 91.4531C594.931 91.8177 594.347 92 593.592 92H591.126ZM592.063 88.6748V91.2334H593.611C594.048 91.2334 594.391 91.1211 594.642 90.8965C594.896 90.6686 595.022 90.3561 595.022 89.959C595.022 89.1029 594.557 88.6748 593.626 88.6748H592.063ZM592.063 87.9229H593.479C593.89 87.9229 594.217 87.8203 594.461 87.6152C594.708 87.4102 594.832 87.1318 594.832 86.7803C594.832 86.3896 594.718 86.1064 594.49 85.9307C594.262 85.7516 593.916 85.6621 593.45 85.6621H592.063V87.9229ZM600.584 88.875C600.395 89.0996 600.169 89.2803 599.905 89.417C599.645 89.5537 599.358 89.6221 599.046 89.6221C598.636 89.6221 598.278 89.5212 597.972 89.3193C597.669 89.1175 597.435 88.8343 597.269 88.4697C597.103 88.1019 597.02 87.6966 597.02 87.2539C597.02 86.7786 597.109 86.3506 597.288 85.9697C597.47 85.5889 597.728 85.2975 598.06 85.0957C598.392 84.8939 598.779 84.793 599.222 84.793C599.925 84.793 600.478 85.0566 600.882 85.584C601.289 86.1081 601.492 86.8242 601.492 87.7324V87.9961C601.492 89.3796 601.219 90.3903 600.672 91.0283C600.125 91.6631 599.3 91.9886 598.196 92.0049H598.021V91.2432H598.211C598.956 91.2301 599.529 91.0365 599.93 90.6621C600.33 90.2845 600.548 89.6888 600.584 88.875ZM599.192 88.875C599.495 88.875 599.773 88.7822 600.027 88.5967C600.285 88.4111 600.472 88.1816 600.589 87.9082V87.5469C600.589 86.9544 600.46 86.4727 600.203 86.1016C599.946 85.7305 599.62 85.5449 599.227 85.5449C598.829 85.5449 598.51 85.6979 598.27 86.0039C598.029 86.3066 597.908 86.707 597.908 87.2051C597.908 87.6901 598.024 88.0905 598.255 88.4062C598.489 88.7188 598.802 88.875 599.192 88.875ZM607.049 86.7461C607.049 87.1009 606.954 87.4167 606.766 87.6934C606.58 87.9701 606.328 88.1865 606.009 88.3428C606.38 88.5023 606.673 88.735 606.888 89.041C607.106 89.347 607.215 89.6937 607.215 90.0811C607.215 90.6963 607.007 91.1862 606.59 91.5508C606.176 91.9154 605.631 92.0977 604.954 92.0977C604.271 92.0977 603.722 91.9154 603.309 91.5508C602.898 91.1829 602.693 90.693 602.693 90.0811C602.693 89.6969 602.798 89.3503 603.006 89.041C603.217 88.7318 603.509 88.4974 603.88 88.3379C603.564 88.1816 603.315 87.9652 603.133 87.6885C602.951 87.4118 602.859 87.0977 602.859 86.7461C602.859 86.1471 603.051 85.6719 603.436 85.3203C603.82 84.9688 604.326 84.793 604.954 84.793C605.579 84.793 606.084 84.9688 606.468 85.3203C606.855 85.6719 607.049 86.1471 607.049 86.7461ZM606.312 90.0615C606.312 89.6644 606.185 89.3405 605.931 89.0898C605.68 88.8392 605.351 88.7139 604.944 88.7139C604.537 88.7139 604.21 88.8376 603.963 89.085C603.719 89.3324 603.597 89.6579 603.597 90.0615C603.597 90.4652 603.715 90.7826 603.953 91.0137C604.194 91.2448 604.528 91.3604 604.954 91.3604C605.377 91.3604 605.709 91.2448 605.95 91.0137C606.191 90.7793 606.312 90.4619 606.312 90.0615ZM604.954 85.5352C604.599 85.5352 604.311 85.6458 604.09 85.8672C603.872 86.0853 603.763 86.3831 603.763 86.7607C603.763 87.1221 603.87 87.415 604.085 87.6396C604.303 87.861 604.593 87.9717 604.954 87.9717C605.315 87.9717 605.604 87.861 605.818 87.6396C606.036 87.415 606.146 87.1221 606.146 86.7607C606.146 86.3994 606.033 86.1048 605.809 85.877C605.584 85.6491 605.299 85.5352 604.954 85.5352ZM613.816 89.7441C613.729 90.4961 613.45 91.0771 612.981 91.4873C612.516 91.8942 611.896 92.0977 611.121 92.0977C610.281 92.0977 609.607 91.7965 609.1 91.1943C608.595 90.5921 608.343 89.7865 608.343 88.7773V88.0938C608.343 87.4329 608.46 86.8519 608.694 86.3506C608.932 85.8493 609.267 85.4652 609.7 85.1982C610.133 84.9281 610.634 84.793 611.204 84.793C611.959 84.793 612.565 85.0046 613.021 85.4277C613.476 85.8477 613.742 86.4303 613.816 87.1758H612.874C612.793 86.6094 612.615 86.1992 612.342 85.9453C612.072 85.6914 611.692 85.5645 611.204 85.5645C610.605 85.5645 610.135 85.7858 609.793 86.2285C609.454 86.6712 609.285 87.3011 609.285 88.1182V88.8066C609.285 89.5781 609.446 90.1917 609.769 90.6475C610.091 91.1032 610.542 91.3311 611.121 91.3311C611.642 91.3311 612.041 91.2139 612.317 90.9795C612.597 90.7419 612.783 90.3301 612.874 89.7441H613.816Z" fill="black"/>
<path d="M628.735 89.998H627.446L627.056 92H626.357L626.748 89.998H625.581V89.3291H626.875L627.212 87.6006H625.952V86.9219H627.344L627.744 84.8906H628.442L628.042 86.9219H629.331L629.731 84.8906H630.435L630.034 86.9219H631.03V87.6006H629.902L629.565 89.3291H630.664V89.998H629.438L629.048 92H628.345L628.735 89.998ZM627.573 89.3291H628.862L629.199 87.6006H627.91L627.573 89.3291ZM635.298 84.8857V85.6523H635.132C634.429 85.6654 633.869 85.8737 633.452 86.2773C633.035 86.681 632.795 87.249 632.729 87.9814C633.104 87.5518 633.615 87.3369 634.263 87.3369C634.881 87.3369 635.374 87.555 635.742 87.9912C636.113 88.4274 636.299 88.9906 636.299 89.6807C636.299 90.4131 636.099 90.999 635.698 91.4385C635.301 91.8779 634.767 92.0977 634.097 92.0977C633.416 92.0977 632.865 91.8372 632.441 91.3164C632.018 90.7923 631.807 90.1185 631.807 89.2949V88.9482C631.807 87.6396 632.085 86.6403 632.642 85.9502C633.201 85.2568 634.033 84.902 635.137 84.8857H635.298ZM634.111 88.0889C633.802 88.0889 633.517 88.1816 633.257 88.3672C632.996 88.5527 632.816 88.7855 632.715 89.0654V89.3975C632.715 89.9834 632.847 90.4554 633.11 90.8135C633.374 91.1715 633.703 91.3506 634.097 91.3506C634.504 91.3506 634.823 91.2008 635.054 90.9014C635.288 90.6019 635.405 90.2096 635.405 89.7246C635.405 89.2363 635.286 88.8424 635.049 88.543C634.814 88.2402 634.502 88.0889 634.111 88.0889ZM641.621 88.7139H638.54V91.2334H642.119V92H637.603V84.8906H642.07V85.6621H638.54V87.9473H641.621V88.7139ZM643.286 92V84.8906H645.61C646.382 84.8906 646.961 85.0501 647.349 85.3691C647.739 85.6882 647.935 86.1602 647.935 86.7852C647.935 87.1172 647.84 87.4118 647.651 87.6689C647.463 87.9229 647.205 88.1198 646.88 88.2598C647.264 88.3672 647.567 88.5723 647.788 88.875C648.013 89.1745 648.125 89.5326 648.125 89.9492C648.125 90.5872 647.918 91.0885 647.505 91.4531C647.091 91.8177 646.507 92 645.752 92H643.286ZM644.224 88.6748V91.2334H645.771C646.208 91.2334 646.551 91.1211 646.802 90.8965C647.056 90.6686 647.183 90.3561 647.183 89.959C647.183 89.1029 646.717 88.6748 645.786 88.6748H644.224ZM644.224 87.9229H645.64C646.05 87.9229 646.377 87.8203 646.621 87.6152C646.868 87.4102 646.992 87.1318 646.992 86.7803C646.992 86.3896 646.878 86.1064 646.65 85.9307C646.423 85.7516 646.076 85.6621 645.61 85.6621H644.224V87.9229ZM654.746 89.7441C654.658 90.4961 654.38 91.0771 653.911 91.4873C653.446 91.8942 652.826 92.0977 652.051 92.0977C651.211 92.0977 650.537 91.7965 650.029 91.1943C649.525 90.5921 649.272 89.7865 649.272 88.7773V88.0938C649.272 87.4329 649.39 86.8519 649.624 86.3506C649.862 85.8493 650.197 85.4652 650.63 85.1982C651.063 84.9281 651.564 84.793 652.134 84.793C652.889 84.793 653.494 85.0046 653.95 85.4277C654.406 85.8477 654.671 86.4303 654.746 87.1758H653.804C653.722 86.6094 653.545 86.1992 653.271 85.9453C653.001 85.6914 652.622 85.5645 652.134 85.5645C651.535 85.5645 651.064 85.7858 650.723 86.2285C650.384 86.6712 650.215 87.3011 650.215 88.1182V88.8066C650.215 89.5781 650.376 90.1917 650.698 90.6475C651.021 91.1032 651.471 91.3311 652.051 91.3311C652.572 91.3311 652.97 91.2139 653.247 90.9795C653.527 90.7419 653.713 90.3301 653.804 89.7441H654.746ZM659.956 90.1445H656.978L656.309 92H655.342L658.057 84.8906H658.877L661.597 92H660.635L659.956 90.1445ZM657.261 89.373H659.678L658.467 86.0479L657.261 89.373ZM663.633 88.0059H664.312C664.738 87.9993 665.073 87.887 665.317 87.6689C665.562 87.4508 665.684 87.1562 665.684 86.7852C665.684 85.9518 665.269 85.5352 664.438 85.5352C664.048 85.5352 663.735 85.6475 663.501 85.8721C663.27 86.0934 663.154 86.388 663.154 86.7559H662.251C662.251 86.1927 662.456 85.7256 662.866 85.3545C663.28 84.9801 663.804 84.793 664.438 84.793C665.109 84.793 665.635 84.9704 666.016 85.3252C666.396 85.68 666.587 86.1732 666.587 86.8047C666.587 87.1139 666.486 87.4134 666.284 87.7031C666.086 87.9928 665.814 88.2093 665.469 88.3525C665.859 88.4762 666.16 88.6813 666.372 88.9678C666.587 89.2542 666.694 89.6042 666.694 90.0176C666.694 90.6556 666.486 91.1618 666.069 91.5361C665.653 91.9105 665.111 92.0977 664.443 92.0977C663.776 92.0977 663.232 91.917 662.812 91.5557C662.396 91.1943 662.188 90.7174 662.188 90.125H663.096C663.096 90.4993 663.218 90.7988 663.462 91.0234C663.706 91.248 664.033 91.3604 664.443 91.3604C664.88 91.3604 665.213 91.2464 665.444 91.0186C665.675 90.7907 665.791 90.4635 665.791 90.0371C665.791 89.6237 665.664 89.3063 665.41 89.085C665.156 88.8636 664.79 88.7497 664.312 88.7432H663.633V88.0059Z" fill="black"/>
<path d="M681.735 89.998H680.446L680.056 92H679.357L679.748 89.998H678.581V89.3291H679.875L680.212 87.6006H678.952V86.9219H680.344L680.744 84.8906H681.442L681.042 86.9219H682.331L682.731 84.8906H683.435L683.034 86.9219H684.03V87.6006H682.902L682.565 89.3291H683.664V89.998H682.438L682.048 92H681.345L681.735 89.998ZM680.573 89.3291H681.862L682.199 87.6006H680.91L680.573 89.3291ZM685.168 88.4355L685.529 84.8906H689.172V85.7256H686.296L686.081 87.6641C686.429 87.459 686.825 87.3564 687.268 87.3564C687.915 87.3564 688.43 87.5713 688.811 88.001C689.191 88.4274 689.382 89.0052 689.382 89.7344C689.382 90.4668 689.183 91.0446 688.786 91.4678C688.392 91.8877 687.84 92.0977 687.131 92.0977C686.503 92.0977 685.99 91.9235 685.593 91.5752C685.196 91.2269 684.969 90.7451 684.914 90.1299H685.769C685.824 90.5368 685.969 90.8444 686.203 91.0527C686.438 91.2578 686.747 91.3604 687.131 91.3604C687.551 91.3604 687.88 91.2171 688.117 90.9307C688.358 90.6442 688.479 90.2487 688.479 89.7441C688.479 89.2689 688.348 88.888 688.088 88.6016C687.831 88.3118 687.487 88.167 687.058 88.167C686.664 88.167 686.354 88.2533 686.13 88.4258L685.891 88.6211L685.168 88.4355ZM695.026 92H690.368V91.3506L692.829 88.6162C693.194 88.2028 693.444 87.8675 693.581 87.6104C693.721 87.3499 693.791 87.0814 693.791 86.8047C693.791 86.4336 693.679 86.1292 693.454 85.8916C693.229 85.654 692.93 85.5352 692.556 85.5352C692.106 85.5352 691.757 85.6637 691.506 85.9209C691.258 86.1748 691.135 86.5296 691.135 86.9854H690.231C690.231 86.3311 690.441 85.8021 690.861 85.3984C691.285 84.9948 691.849 84.793 692.556 84.793C693.216 84.793 693.739 84.9671 694.123 85.3154C694.507 85.6605 694.699 86.1211 694.699 86.6973C694.699 87.3971 694.253 88.2305 693.361 89.1973L691.457 91.2627H695.026V92ZM701.447 89.7441C701.359 90.4961 701.081 91.0771 700.612 91.4873C700.147 91.8942 699.527 92.0977 698.752 92.0977C697.912 92.0977 697.238 91.7965 696.73 91.1943C696.226 90.5921 695.974 89.7865 695.974 88.7773V88.0938C695.974 87.4329 696.091 86.8519 696.325 86.3506C696.563 85.8493 696.898 85.4652 697.331 85.1982C697.764 84.9281 698.265 84.793 698.835 84.793C699.59 84.793 700.196 85.0046 700.651 85.4277C701.107 85.8477 701.372 86.4303 701.447 87.1758H700.505C700.424 86.6094 700.246 86.1992 699.973 85.9453C699.702 85.6914 699.323 85.5645 698.835 85.5645C698.236 85.5645 697.766 85.7858 697.424 86.2285C697.085 86.6712 696.916 87.3011 696.916 88.1182V88.8066C696.916 89.5781 697.077 90.1917 697.399 90.6475C697.722 91.1032 698.173 91.3311 698.752 91.3311C699.273 91.3311 699.672 91.2139 699.948 90.9795C700.228 90.7419 700.414 90.3301 700.505 89.7441H701.447ZM706.955 88.9678C706.955 90.0257 706.774 90.8118 706.413 91.3262C706.052 91.8405 705.487 92.0977 704.719 92.0977C703.96 92.0977 703.399 91.847 703.034 91.3457C702.67 90.8411 702.481 90.0892 702.468 89.0898V87.8838C702.468 86.8389 702.648 86.0625 703.01 85.5547C703.371 85.0469 703.938 84.793 704.709 84.793C705.474 84.793 706.037 85.0387 706.398 85.5303C706.76 86.0186 706.945 86.7738 706.955 87.7959V88.9678ZM706.052 87.7324C706.052 86.9674 705.944 86.4108 705.729 86.0625C705.515 85.7109 705.174 85.5352 704.709 85.5352C704.247 85.5352 703.91 85.7093 703.698 86.0576C703.487 86.4059 703.378 86.9414 703.371 87.6641V89.1094C703.371 89.8776 703.482 90.4456 703.703 90.8135C703.928 91.1781 704.266 91.3604 704.719 91.3604C705.165 91.3604 705.495 91.1878 705.71 90.8428C705.928 90.4977 706.042 89.9541 706.052 89.2119V87.7324ZM708.347 92V84.8906H710.671C711.442 84.8906 712.022 85.0501 712.409 85.3691C712.8 85.6882 712.995 86.1602 712.995 86.7852C712.995 87.1172 712.901 87.4118 712.712 87.6689C712.523 87.9229 712.266 88.1198 711.94 88.2598C712.325 88.3672 712.627 88.5723 712.849 88.875C713.073 89.1745 713.186 89.5326 713.186 89.9492C713.186 90.5872 712.979 91.0885 712.565 91.4531C712.152 91.8177 711.568 92 710.812 92H708.347ZM709.284 88.6748V91.2334H710.832C711.268 91.2334 711.612 91.1211 711.862 90.8965C712.116 90.6686 712.243 90.3561 712.243 89.959C712.243 89.1029 711.778 88.6748 710.847 88.6748H709.284ZM709.284 87.9229H710.7C711.11 87.9229 711.438 87.8203 711.682 87.6152C711.929 87.4102 712.053 87.1318 712.053 86.7803C712.053 86.3896 711.939 86.1064 711.711 85.9307C711.483 85.7516 711.136 85.6621 710.671 85.6621H709.284V87.9229ZM718.503 90.1445H715.524L714.855 92H713.889L716.604 84.8906H717.424L720.144 92H719.182L718.503 90.1445ZM715.808 89.373H718.225L717.014 86.0479L715.808 89.373Z" fill="black"/>
<path d="M734.735 89.998H733.446L733.056 92H732.357L732.748 89.998H731.581V89.3291H732.875L733.212 87.6006H731.952V86.9219H733.344L733.744 84.8906H734.442L734.042 86.9219H735.331L735.731 84.8906H736.435L736.034 86.9219H737.03V87.6006H735.902L735.565 89.3291H736.664V89.998H735.438L735.048 92H734.345L734.735 89.998ZM733.573 89.3291H734.862L735.199 87.6006H733.91L733.573 89.3291ZM741.566 89.6123H742.553V90.3496H741.566V92H740.658V90.3496H737.421V89.8174L740.604 84.8906H741.566V89.6123ZM738.446 89.6123H740.658V86.126L740.551 86.3213L738.446 89.6123ZM747.958 85.3984L745.014 92H744.066L747.001 85.6328H743.153V84.8906H747.958V85.3984ZM754.447 89.7441C754.359 90.4961 754.081 91.0771 753.612 91.4873C753.147 91.8942 752.527 92.0977 751.752 92.0977C750.912 92.0977 750.238 91.7965 749.73 91.1943C749.226 90.5921 748.974 89.7865 748.974 88.7773V88.0938C748.974 87.4329 749.091 86.8519 749.325 86.3506C749.563 85.8493 749.898 85.4652 750.331 85.1982C750.764 84.9281 751.265 84.793 751.835 84.793C752.59 84.793 753.196 85.0046 753.651 85.4277C754.107 85.8477 754.372 86.4303 754.447 87.1758H753.505C753.424 86.6094 753.246 86.1992 752.973 85.9453C752.702 85.6914 752.323 85.5645 751.835 85.5645C751.236 85.5645 750.766 85.7858 750.424 86.2285C750.085 86.6712 749.916 87.3011 749.916 88.1182V88.8066C749.916 89.5781 750.077 90.1917 750.399 90.6475C750.722 91.1032 751.173 91.3311 751.752 91.3311C752.273 91.3311 752.672 91.2139 752.948 90.9795C753.228 90.7419 753.414 90.3301 753.505 89.7441H754.447ZM758.466 92H757.558V85.9795L755.736 86.6484V85.8281L758.324 84.8564H758.466V92ZM766.576 89.7441C766.488 90.4961 766.21 91.0771 765.741 91.4873C765.276 91.8942 764.656 92.0977 763.881 92.0977C763.041 92.0977 762.367 91.7965 761.859 91.1943C761.355 90.5921 761.103 89.7865 761.103 88.7773V88.0938C761.103 87.4329 761.22 86.8519 761.454 86.3506C761.692 85.8493 762.027 85.4652 762.46 85.1982C762.893 84.9281 763.394 84.793 763.964 84.793C764.719 84.793 765.325 85.0046 765.78 85.4277C766.236 85.8477 766.501 86.4303 766.576 87.1758H765.634C765.552 86.6094 765.375 86.1992 765.102 85.9453C764.831 85.6914 764.452 85.5645 763.964 85.5645C763.365 85.5645 762.895 85.7858 762.553 86.2285C762.214 86.6712 762.045 87.3011 762.045 88.1182V88.8066C762.045 89.5781 762.206 90.1917 762.528 90.6475C762.851 91.1032 763.301 91.3311 763.881 91.3311C764.402 91.3311 764.8 91.2139 765.077 90.9795C765.357 90.7419 765.543 90.3301 765.634 89.7441H766.576ZM768.939 88.0059H769.618C770.045 87.9993 770.38 87.887 770.624 87.6689C770.868 87.4508 770.99 87.1562 770.99 86.7852C770.99 85.9518 770.575 85.5352 769.745 85.5352C769.354 85.5352 769.042 85.6475 768.808 85.8721C768.576 86.0934 768.461 86.388 768.461 86.7559H767.558C767.558 86.1927 767.763 85.7256 768.173 85.3545C768.586 84.9801 769.11 84.793 769.745 84.793C770.416 84.793 770.941 84.9704 771.322 85.3252C771.703 85.68 771.894 86.1732 771.894 86.8047C771.894 87.1139 771.793 87.4134 771.591 87.7031C771.392 87.9928 771.12 88.2093 770.775 88.3525C771.166 88.4762 771.467 88.6813 771.679 88.9678C771.894 89.2542 772.001 89.6042 772.001 90.0176C772.001 90.6556 771.793 91.1618 771.376 91.5361C770.959 91.9105 770.417 92.0977 769.75 92.0977C769.083 92.0977 768.539 91.917 768.119 91.5557C767.702 91.1943 767.494 90.7174 767.494 90.125H768.402C768.402 90.4993 768.524 90.7988 768.769 91.0234C769.013 91.248 769.34 91.3604 769.75 91.3604C770.186 91.3604 770.52 91.2464 770.751 91.0186C770.982 90.7907 771.098 90.4635 771.098 90.0371C771.098 89.6237 770.971 89.3063 770.717 89.085C770.463 88.8636 770.097 88.7497 769.618 88.7432H768.939V88.0059Z" fill="black"/>
</svg>
