<svg width="932" height="464" viewBox="0 0 932 464" fill="none" xmlns="http://www.w3.org/2000/svg">
<rect width="932" height="464" fill="white"/>
<path d="M64.3848 78H61.4551V63.7812H64.3848V78ZM71.3184 75.9199C71.8392 75.9199 72.2624 75.7767 72.5879 75.4902C72.9134 75.2038 73.0827 74.8229 73.0957 74.3477H75.7422C75.7357 75.0638 75.5404 75.7214 75.1562 76.3203C74.7721 76.9128 74.2448 77.375 73.5742 77.707C72.9102 78.0326 72.1745 78.1953 71.3672 78.1953C69.8568 78.1953 68.6654 77.7168 67.793 76.7598C66.9206 75.7962 66.4844 74.4681 66.4844 72.7754V72.5898C66.4844 70.9622 66.9173 69.6634 67.7832 68.6934C68.6491 67.7233 69.8372 67.2383 71.3477 67.2383C72.6693 67.2383 73.7272 67.6159 74.5215 68.3711C75.3223 69.1198 75.7292 70.1191 75.7422 71.3691H73.0957C73.0827 70.8223 72.9134 70.3796 72.5879 70.041C72.2624 69.696 71.8327 69.5234 71.2988 69.5234C70.6413 69.5234 70.1432 69.7643 69.8047 70.2461C69.4727 70.7214 69.3066 71.4961 69.3066 72.5703V72.8633C69.3066 73.9505 69.4727 74.7318 69.8047 75.207C70.1367 75.6823 70.6413 75.9199 71.3184 75.9199ZM76.9141 72.6191C76.9141 71.571 77.1159 70.6367 77.5195 69.8164C77.9232 68.9961 78.5026 68.3613 79.2578 67.9121C80.0195 67.4629 80.9017 67.2383 81.9043 67.2383C83.3301 67.2383 84.4922 67.6745 85.3906 68.5469C86.2956 69.4193 86.8001 70.6042 86.9043 72.1016L86.9238 72.8242C86.9238 74.4453 86.4714 75.7474 85.5664 76.7305C84.6615 77.707 83.4473 78.1953 81.9238 78.1953C80.4004 78.1953 79.1829 77.707 78.2715 76.7305C77.3665 75.7539 76.9141 74.4258 76.9141 72.7461V72.6191ZM79.7363 72.8242C79.7363 73.8268 79.9251 74.5951 80.3027 75.1289C80.6803 75.6562 81.2207 75.9199 81.9238 75.9199C82.6074 75.9199 83.1413 75.6595 83.5254 75.1387C83.9095 74.6113 84.1016 73.7715 84.1016 72.6191C84.1016 71.6361 83.9095 70.8743 83.5254 70.334C83.1413 69.7936 82.6009 69.5234 81.9043 69.5234C81.2142 69.5234 80.6803 69.7936 80.3027 70.334C79.9251 70.8678 79.7363 71.6979 79.7363 72.8242ZM91.2598 67.4336L91.3477 68.6543C92.1029 67.7103 93.1152 67.2383 94.3848 67.2383C95.5046 67.2383 96.3379 67.5671 96.8848 68.2246C97.4316 68.8822 97.7116 69.8652 97.7246 71.1738V78H94.9023V71.2422C94.9023 70.6432 94.7721 70.2103 94.5117 69.9434C94.2513 69.6699 93.8184 69.5332 93.2129 69.5332C92.4186 69.5332 91.8229 69.8717 91.4258 70.5488V78H88.6035V67.4336H91.2598ZM105.596 75.0801C105.596 74.735 105.423 74.4648 105.078 74.2695C104.74 74.0677 104.193 73.8887 103.438 73.7324C100.924 73.2051 99.668 72.1374 99.668 70.5293C99.668 69.5918 100.055 68.8105 100.83 68.1855C101.611 67.554 102.63 67.2383 103.887 67.2383C105.228 67.2383 106.299 67.554 107.1 68.1855C107.907 68.8171 108.311 69.6374 108.311 70.6465H105.488C105.488 70.2428 105.358 69.9108 105.098 69.6504C104.837 69.3835 104.43 69.25 103.877 69.25C103.402 69.25 103.034 69.3574 102.773 69.5723C102.513 69.7871 102.383 70.0605 102.383 70.3926C102.383 70.7051 102.529 70.959 102.822 71.1543C103.122 71.3431 103.623 71.5091 104.326 71.6523C105.029 71.7891 105.622 71.9453 106.104 72.1211C107.594 72.668 108.34 73.6152 108.34 74.9629C108.34 75.9264 107.926 76.7077 107.1 77.3066C106.273 77.8991 105.205 78.1953 103.896 78.1953C103.011 78.1953 102.223 78.0391 101.533 77.7266C100.85 77.4076 100.312 76.9746 99.9219 76.4277C99.5312 75.8743 99.3359 75.2786 99.3359 74.6406H102.012C102.038 75.1419 102.223 75.526 102.568 75.793C102.913 76.0599 103.376 76.1934 103.955 76.1934C104.495 76.1934 104.902 76.0924 105.176 75.8906C105.456 75.6823 105.596 75.4121 105.596 75.0801Z" fill="black"/>
<path d="M70.0156 116.562C69.5938 117.068 68.9974 117.461 68.2266 117.742C67.4557 118.018 66.6016 118.156 65.6641 118.156C64.6797 118.156 63.8151 117.943 63.0703 117.516C62.3307 117.083 61.7578 116.458 61.3516 115.641C60.9505 114.823 60.7448 113.862 60.7344 112.758V111.984C60.7344 110.849 60.9245 109.867 61.3047 109.039C61.6901 108.206 62.2422 107.57 62.9609 107.133C63.6849 106.69 64.5312 106.469 65.5 106.469C66.849 106.469 67.9036 106.792 68.6641 107.438C69.4245 108.078 69.875 109.013 70.0156 110.242H67.7344C67.6302 109.591 67.3984 109.115 67.0391 108.812C66.6849 108.51 66.1953 108.359 65.5703 108.359C64.7734 108.359 64.1667 108.659 63.75 109.258C63.3333 109.857 63.1224 110.747 63.1172 111.93V112.656C63.1172 113.849 63.3438 114.75 63.7969 115.359C64.25 115.969 64.9141 116.273 65.7891 116.273C66.6693 116.273 67.2969 116.086 67.6719 115.711V113.75H65.5391V112.023H70.0156V116.562ZM76.5234 111.664C76.2161 111.622 75.9453 111.602 75.7109 111.602C74.8568 111.602 74.2969 111.891 74.0312 112.469V118H71.7734V109.547H73.9062L73.9688 110.555C74.4219 109.779 75.0495 109.391 75.8516 109.391C76.1016 109.391 76.3359 109.424 76.5547 109.492L76.5234 111.664ZM80 118H77.7344V109.547H80V118ZM77.6016 107.359C77.6016 107.021 77.7135 106.742 77.9375 106.523C78.1667 106.305 78.4766 106.195 78.8672 106.195C79.2526 106.195 79.5599 106.305 79.7891 106.523C80.0182 106.742 80.1328 107.021 80.1328 107.359C80.1328 107.703 80.0156 107.984 79.7812 108.203C79.5521 108.422 79.2474 108.531 78.8672 108.531C78.487 108.531 78.1797 108.422 77.9453 108.203C77.7161 107.984 77.6016 107.703 77.6016 107.359ZM81.5156 113.711C81.5156 112.393 81.8099 111.344 82.3984 110.562C82.9922 109.781 83.8021 109.391 84.8281 109.391C85.651 109.391 86.3307 109.698 86.8672 110.312V106H89.1328V118H87.0938L86.9844 117.102C86.4219 117.805 85.6979 118.156 84.8125 118.156C83.8177 118.156 83.0182 117.766 82.4141 116.984C81.8151 116.198 81.5156 115.107 81.5156 113.711ZM83.7734 113.875C83.7734 114.667 83.9115 115.273 84.1875 115.695C84.4635 116.117 84.8646 116.328 85.3906 116.328C86.0885 116.328 86.5807 116.034 86.8672 115.445V112.109C86.5859 111.521 86.099 111.227 85.4062 111.227C84.3177 111.227 83.7734 112.109 83.7734 113.875ZM101.438 115.656H97.3281L96.5469 118H94.0547L98.2891 106.625H100.461L104.719 118H102.227L101.438 115.656ZM97.9609 113.758H100.805L99.375 109.5L97.9609 113.758ZM107.336 109.547L107.406 110.523C108.01 109.768 108.82 109.391 109.836 109.391C110.732 109.391 111.398 109.654 111.836 110.18C112.273 110.706 112.497 111.492 112.508 112.539V118H110.25V112.594C110.25 112.115 110.146 111.768 109.938 111.555C109.729 111.336 109.383 111.227 108.898 111.227C108.263 111.227 107.786 111.497 107.469 112.039V118H105.211V109.547H107.336ZM113.875 113.711C113.875 112.393 114.169 111.344 114.758 110.562C115.352 109.781 116.161 109.391 117.188 109.391C118.01 109.391 118.69 109.698 119.227 110.312V106H121.492V118H119.453L119.344 117.102C118.781 117.805 118.057 118.156 117.172 118.156C116.177 118.156 115.378 117.766 114.773 116.984C114.174 116.198 113.875 115.107 113.875 113.711ZM116.133 113.875C116.133 114.667 116.271 115.273 116.547 115.695C116.823 116.117 117.224 116.328 117.75 116.328C118.448 116.328 118.94 116.034 119.227 115.445V112.109C118.945 111.521 118.458 111.227 117.766 111.227C116.677 111.227 116.133 112.109 116.133 113.875ZM130.938 113.438L129.719 114.75V118H127.375V106.625H129.719V111.781L130.75 110.367L133.648 106.625H136.531L132.492 111.68L136.648 118H133.859L130.938 113.438ZM141.07 118.156C139.831 118.156 138.82 117.776 138.039 117.016C137.263 116.255 136.875 115.242 136.875 113.977V113.758C136.875 112.909 137.039 112.151 137.367 111.484C137.695 110.812 138.159 110.297 138.758 109.938C139.362 109.573 140.049 109.391 140.82 109.391C141.977 109.391 142.885 109.755 143.547 110.484C144.214 111.214 144.547 112.247 144.547 113.586V114.508H139.164C139.237 115.06 139.456 115.503 139.82 115.836C140.19 116.169 140.656 116.336 141.219 116.336C142.089 116.336 142.768 116.021 143.258 115.391L144.367 116.633C144.029 117.112 143.57 117.487 142.992 117.758C142.414 118.023 141.773 118.156 141.07 118.156ZM140.812 111.219C140.365 111.219 140 111.37 139.719 111.672C139.443 111.974 139.266 112.406 139.188 112.969H142.328V112.789C142.318 112.289 142.182 111.904 141.922 111.633C141.661 111.357 141.292 111.219 140.812 111.219ZM148.883 114.805L150.445 109.547H152.867L149.469 119.312L149.281 119.758C148.776 120.862 147.943 121.414 146.781 121.414C146.453 121.414 146.12 121.365 145.781 121.266V119.555L146.125 119.562C146.552 119.562 146.87 119.497 147.078 119.367C147.292 119.237 147.458 119.021 147.578 118.719L147.844 118.023L144.883 109.547H147.312L148.883 114.805ZM156.141 118H153.875V106H156.141V118ZM160.391 118H158.125V109.547H160.391V118ZM157.992 107.359C157.992 107.021 158.104 106.742 158.328 106.523C158.557 106.305 158.867 106.195 159.258 106.195C159.643 106.195 159.951 106.305 160.18 106.523C160.409 106.742 160.523 107.021 160.523 107.359C160.523 107.703 160.406 107.984 160.172 108.203C159.943 108.422 159.638 108.531 159.258 108.531C158.878 108.531 158.57 108.422 158.336 108.203C158.107 107.984 157.992 107.703 157.992 107.359ZM164.336 109.547L164.406 110.523C165.01 109.768 165.82 109.391 166.836 109.391C167.732 109.391 168.398 109.654 168.836 110.18C169.273 110.706 169.497 111.492 169.508 112.539V118H167.25V112.594C167.25 112.115 167.146 111.768 166.938 111.555C166.729 111.336 166.383 111.227 165.898 111.227C165.263 111.227 164.786 111.497 164.469 112.039V118H162.211V109.547H164.336ZM175.117 118.156C173.878 118.156 172.867 117.776 172.086 117.016C171.31 116.255 170.922 115.242 170.922 113.977V113.758C170.922 112.909 171.086 112.151 171.414 111.484C171.742 110.812 172.206 110.297 172.805 109.938C173.409 109.573 174.096 109.391 174.867 109.391C176.023 109.391 176.932 109.755 177.594 110.484C178.26 111.214 178.594 112.247 178.594 113.586V114.508H173.211C173.284 115.06 173.503 115.503 173.867 115.836C174.237 116.169 174.703 116.336 175.266 116.336C176.135 116.336 176.815 116.021 177.305 115.391L178.414 116.633C178.076 117.112 177.617 117.487 177.039 117.758C176.461 118.023 175.82 118.156 175.117 118.156ZM174.859 111.219C174.411 111.219 174.047 111.37 173.766 111.672C173.49 111.974 173.312 112.406 173.234 112.969H176.375V112.789C176.365 112.289 176.229 111.904 175.969 111.633C175.708 111.357 175.339 111.219 174.859 111.219Z" fill="black"/>
<path d="M71.272 232.288V233.08H75.316C75.112 235.636 73.672 237.7 70.78 239.08L71.308 239.884C74.884 238.132 76.312 235.396 76.312 232.288H71.272ZM78.484 231.124V241.888H79.468V231.124H78.484ZM83.9071 238.672H82.9231V241.648H90.3271V240.844H83.9071V238.672ZM83.9311 233.68H89.1631V235.06H83.9311V233.68ZM87.0391 237.004V235.852H90.1351V231.544H89.1631V232.912H83.9311V231.544H82.9591V235.852H86.0551V237.004H81.6631V237.808H91.4071V237.004H87.0391ZM93.7461 236.32C94.1781 236.32 94.5381 235.972 94.5381 235.492C94.5381 234.988 94.1781 234.64 93.7461 234.64C93.3141 234.64 92.9541 234.988 92.9541 235.492C92.9541 235.972 93.3141 236.32 93.7461 236.32ZM93.7461 241.156C94.1781 241.156 94.5381 240.82 94.5381 240.328C94.5381 239.824 94.1781 239.476 93.7461 239.476C93.3141 239.476 92.9541 239.824 92.9541 240.328C92.9541 240.82 93.3141 241.156 93.7461 241.156ZM98.6296 241H104.162V240.052H101.726C101.282 240.052 100.742 240.1 100.286 240.136C102.35 238.18 103.73 236.392 103.73 234.64C103.73 233.068 102.746 232.036 101.174 232.036C100.058 232.036 99.3016 232.552 98.5816 233.332L99.2176 233.956C99.6976 233.38 100.322 232.936 101.042 232.936C102.134 232.936 102.662 233.668 102.662 234.676C102.662 236.188 101.39 237.94 98.6296 240.352V241ZM106.138 237.7L108.142 234.7C108.394 234.268 108.634 233.836 108.85 233.404H108.898C108.874 233.86 108.838 234.568 108.838 235V237.7H106.138ZM108.838 241H109.87V238.576H111.034V237.7H109.87V232.192H108.658L104.998 237.856V238.576H108.838V241ZM113.262 235.348L114.21 234.208L115.158 235.348L115.686 234.964L114.918 233.716L116.226 233.176L116.022 232.564L114.654 232.888L114.534 231.448H113.886L113.766 232.9L112.398 232.564L112.194 233.176L113.49 233.716L112.734 234.964L113.262 235.348ZM117.544 241H123.076V240.052H120.64C120.196 240.052 119.656 240.1 119.2 240.136C121.264 238.18 122.644 236.392 122.644 234.64C122.644 233.068 121.66 232.036 120.088 232.036C118.972 232.036 118.216 232.552 117.496 233.332L118.132 233.956C118.612 233.38 119.236 232.936 119.956 232.936C121.048 232.936 121.576 233.668 121.576 234.676C121.576 236.188 120.304 237.94 117.544 240.352V241ZM125.052 237.7L127.056 234.7C127.308 234.268 127.548 233.836 127.764 233.404H127.812C127.788 233.86 127.752 234.568 127.752 235V237.7H125.052ZM127.752 241H128.784V238.576H129.948V237.7H128.784V232.192H127.572L123.912 237.856V238.576H127.752V241ZM133.196 243.364L133.88 243.04C132.836 241.336 132.344 239.308 132.344 237.268C132.344 235.228 132.836 233.212 133.88 231.496L133.196 231.184C132.092 232.972 131.432 234.916 131.432 237.268C131.432 239.632 132.092 241.564 133.196 243.364ZM135.487 243.748H136.579V241.54L136.555 240.4C137.143 240.88 137.767 241.156 138.355 241.156C139.855 241.156 141.187 239.872 141.187 237.64C141.187 235.636 140.275 234.316 138.595 234.316C137.839 234.316 137.107 234.748 136.519 235.228H136.483L136.387 234.484H135.487V243.748ZM138.175 240.244C137.743 240.244 137.167 240.064 136.579 239.56V236.14C137.215 235.552 137.779 235.24 138.331 235.24C139.567 235.24 140.047 236.212 140.047 237.652C140.047 239.272 139.255 240.244 138.175 240.244ZM141.782 241H142.934L143.81 239.476C144.038 239.08 144.254 238.684 144.482 238.312H144.542C144.782 238.684 145.022 239.08 145.238 239.476L146.198 241H147.398L145.25 237.712L147.23 234.484H146.09L145.286 235.912C145.094 236.284 144.902 236.644 144.698 237.004H144.65C144.434 236.644 144.206 236.284 144.002 235.912L143.126 234.484H141.95L143.93 237.604L141.782 241ZM148.766 243.364C149.882 241.564 150.542 239.632 150.542 237.268C150.542 234.916 149.882 232.972 148.766 231.184L148.094 231.496C149.126 233.212 149.63 235.228 149.63 237.268C149.63 239.308 149.126 241.336 148.094 243.04L148.766 243.364ZM152.533 243.28C153.613 242.824 154.285 241.924 154.285 240.772C154.285 239.968 153.937 239.476 153.361 239.476C152.917 239.476 152.533 239.776 152.533 240.244C152.533 240.748 152.917 241.012 153.337 241.012C153.385 241.012 153.421 241.012 153.469 241C153.469 241.708 153.025 242.296 152.269 242.632L152.533 243.28ZM158.712 241H163.536V240.088H161.772V232.192H160.932C160.452 232.48 159.888 232.684 159.108 232.828V233.524H160.668V240.088H158.712V241ZM167.829 236.356C168.897 236.356 169.425 237.112 169.425 238.3C169.425 239.5 168.765 240.304 167.925 240.304C166.821 240.304 166.161 239.308 166.029 237.484C166.569 236.68 167.277 236.356 167.829 236.356ZM167.925 241.156C169.293 241.156 170.445 240.004 170.445 238.3C170.445 236.464 169.497 235.54 168.009 235.54C167.312 235.54 166.545 235.948 166.005 236.608C166.053 233.872 167.073 232.948 168.273 232.948C168.813 232.948 169.341 233.2 169.689 233.62L170.289 232.936C169.809 232.42 169.149 232.036 168.237 232.036C166.533 232.036 164.985 233.356 164.985 236.8C164.985 239.704 166.233 241.156 167.925 241.156ZM172.817 235.348L173.765 234.208L174.713 235.348L175.241 234.964L174.473 233.716L175.781 233.176L175.577 232.564L174.209 232.888L174.089 231.448H173.441L173.321 232.9L171.953 232.564L171.749 233.176L173.045 233.716L172.289 234.964L172.817 235.348ZM177.626 241H182.45V240.088H180.686V232.192H179.846C179.366 232.48 178.802 232.684 178.022 232.828V233.524H179.582V240.088H177.626V241ZM186.743 236.356C187.811 236.356 188.339 237.112 188.339 238.3C188.339 239.5 187.679 240.304 186.839 240.304C185.735 240.304 185.075 239.308 184.943 237.484C185.483 236.68 186.191 236.356 186.743 236.356ZM186.839 241.156C188.207 241.156 189.359 240.004 189.359 238.3C189.359 236.464 188.411 235.54 186.923 235.54C186.227 235.54 185.459 235.948 184.919 236.608C184.967 233.872 185.987 232.948 187.187 232.948C187.727 232.948 188.255 233.2 188.603 233.62L189.203 232.936C188.723 232.42 188.063 232.036 187.151 232.036C185.447 232.036 183.899 233.356 183.899 236.8C183.899 239.704 185.147 241.156 186.839 241.156ZM192.751 243.364L193.435 243.04C192.391 241.336 191.899 239.308 191.899 237.268C191.899 235.228 192.391 233.212 193.435 231.496L192.751 231.184C191.647 232.972 190.987 234.916 190.987 237.268C190.987 239.632 191.647 241.564 192.751 243.364ZM195.042 243.748H196.134V241.54L196.11 240.4C196.698 240.88 197.322 241.156 197.91 241.156C199.41 241.156 200.742 239.872 200.742 237.64C200.742 235.636 199.83 234.316 198.15 234.316C197.394 234.316 196.662 234.748 196.074 235.228H196.038L195.942 234.484H195.042V243.748ZM197.73 240.244C197.298 240.244 196.722 240.064 196.134 239.56V236.14C196.77 235.552 197.334 235.24 197.886 235.24C199.122 235.24 199.602 236.212 199.602 237.652C199.602 239.272 198.81 240.244 197.73 240.244ZM201.336 241H202.488L203.364 239.476C203.592 239.08 203.808 238.684 204.036 238.312H204.096C204.336 238.684 204.576 239.08 204.792 239.476L205.752 241H206.952L204.804 237.712L206.784 234.484H205.644L204.84 235.912C204.648 236.284 204.456 236.644 204.252 237.004H204.204C203.988 236.644 203.76 236.284 203.556 235.912L202.68 234.484H201.504L203.484 237.604L201.336 241ZM208.321 243.364C209.437 241.564 210.097 239.632 210.097 237.268C210.097 234.916 209.437 232.972 208.321 231.184L207.649 231.496C208.681 233.212 209.185 235.228 209.185 237.268C209.185 239.308 208.681 241.336 207.649 243.04L208.321 243.364Z" fill="black"/>
<rect x="101.5" y="142.5" width="79" height="79" fill="white" stroke="#F6938A"/>
<rect x="114.833" y="149.167" width="52.3333" height="65.6667" stroke="#9E9E9E"/>
<rect x="173.833" y="155.833" width="52.3333" height="65.6667" transform="rotate(90 173.833 155.833)" stroke="#9E9E9E"/>
<rect x="108.167" y="149.167" width="65.6667" height="65.6667" rx="32.8333" stroke="#9E9E9E"/>
<rect x="114.833" y="155.833" width="52.3333" height="52.3333" fill="#F6938A" fill-opacity="0.5" stroke="#9E9E9E"/>
<path d="M238.276 237.484V238.216H240.46V239.32H241.444V231.124H240.46V237.484H238.276ZM236.08 232.288C237.1 232.288 237.796 232.744 237.796 233.428C237.796 234.124 237.1 234.58 236.08 234.58C235.06 234.58 234.364 234.124 234.364 233.428C234.364 232.744 235.06 232.288 236.08 232.288ZM236.08 235.312C237.652 235.312 238.732 234.58 238.732 233.428C238.732 232.3 237.652 231.556 236.08 231.556C234.508 231.556 233.428 232.3 233.428 233.428C233.428 234.58 234.508 235.312 236.08 235.312ZM235.696 238.936H236.68V236.812C237.652 236.752 238.648 236.644 239.596 236.5L239.512 235.792C237.232 236.08 234.568 236.104 232.576 236.104L232.708 236.92C233.596 236.92 234.628 236.908 235.696 236.86V238.936ZM235.096 240.844V238.516H234.112V241.648H241.72V240.844H235.096ZM251.547 235.804H249.723V236.608H251.547V238.072H252.543V231.124H251.547V233.716H249.735V234.508H251.547V235.804ZM249.723 232.312H247.251V231.028H246.267V232.312H243.699V233.104H249.723V232.312ZM245.235 235.648C245.235 234.904 245.847 234.412 246.747 234.412C247.647 234.412 248.259 234.904 248.259 235.648C248.259 236.404 247.647 236.896 246.747 236.896C245.847 236.896 245.235 236.404 245.235 235.648ZM249.183 235.648C249.183 234.448 248.175 233.656 246.747 233.656C245.307 233.656 244.311 234.448 244.311 235.648C244.311 236.86 245.307 237.652 246.747 237.652C248.175 237.652 249.183 236.86 249.183 235.648ZM249.015 241.12C247.431 241.12 246.447 240.724 246.447 240.04C246.447 239.344 247.431 238.96 249.015 238.96C250.599 238.96 251.571 239.344 251.571 240.04C251.571 240.724 250.599 241.12 249.015 241.12ZM249.015 238.204C246.783 238.204 245.427 238.864 245.427 240.04C245.427 241.204 246.783 241.876 249.015 241.876C251.235 241.876 252.591 241.204 252.591 240.04C252.591 238.864 251.235 238.204 249.015 238.204ZM255.746 236.32C256.178 236.32 256.538 235.972 256.538 235.492C256.538 234.988 256.178 234.64 255.746 234.64C255.314 234.64 254.954 234.988 254.954 235.492C254.954 235.972 255.314 236.32 255.746 236.32ZM255.746 241.156C256.178 241.156 256.538 240.82 256.538 240.328C256.538 239.824 256.178 239.476 255.746 239.476C255.314 239.476 254.954 239.824 254.954 240.328C254.954 240.82 255.314 241.156 255.746 241.156ZM261.158 241H265.982V240.088H264.218V232.192H263.378C262.898 232.48 262.334 232.684 261.554 232.828V233.524H263.114V240.088H261.158V241ZM270.106 241.156C271.762 241.156 272.866 240.16 272.866 238.876C272.866 237.676 272.146 237.016 271.378 236.572V236.512C271.906 236.104 272.554 235.312 272.554 234.388C272.554 233.032 271.642 232.072 270.142 232.072C268.774 232.072 267.73 232.96 267.73 234.304C267.73 235.228 268.27 235.888 268.918 236.332V236.392C268.114 236.824 267.298 237.64 267.298 238.816C267.298 240.172 268.486 241.156 270.106 241.156ZM270.706 236.224C269.674 235.816 268.726 235.36 268.726 234.304C268.726 233.452 269.314 232.876 270.13 232.876C271.078 232.876 271.618 233.584 271.618 234.448C271.618 235.096 271.306 235.696 270.706 236.224ZM270.13 240.34C269.074 240.34 268.294 239.656 268.294 238.72C268.294 237.88 268.786 237.184 269.494 236.728C270.742 237.232 271.822 237.676 271.822 238.852C271.822 239.728 271.138 240.34 270.13 240.34ZM275.262 235.348L276.21 234.208L277.158 235.348L277.686 234.964L276.918 233.716L278.226 233.176L278.022 232.564L276.654 232.888L276.534 231.448H275.886L275.766 232.9L274.398 232.564L274.194 233.176L275.49 233.716L274.734 234.964L275.262 235.348ZM280.072 241H284.896V240.088H283.132V232.192H282.292C281.812 232.48 281.248 232.684 280.468 232.828V233.524H282.028V240.088H280.072V241ZM289.02 241.156C290.676 241.156 291.78 240.16 291.78 238.876C291.78 237.676 291.06 237.016 290.292 236.572V236.512C290.82 236.104 291.468 235.312 291.468 234.388C291.468 233.032 290.556 232.072 289.056 232.072C287.688 232.072 286.644 232.96 286.644 234.304C286.644 235.228 287.184 235.888 287.832 236.332V236.392C287.028 236.824 286.212 237.64 286.212 238.816C286.212 240.172 287.4 241.156 289.02 241.156ZM289.62 236.224C288.588 235.816 287.64 235.36 287.64 234.304C287.64 233.452 288.228 232.876 289.044 232.876C289.992 232.876 290.532 233.584 290.532 234.448C290.532 235.096 290.22 235.696 289.62 236.224ZM289.044 240.34C287.988 240.34 287.208 239.656 287.208 238.72C287.208 237.88 287.7 237.184 288.408 236.728C289.656 237.232 290.736 237.676 290.736 238.852C290.736 239.728 290.052 240.34 289.044 240.34ZM295.196 243.364L295.88 243.04C294.836 241.336 294.344 239.308 294.344 237.268C294.344 235.228 294.836 233.212 295.88 231.496L295.196 231.184C294.092 232.972 293.432 234.916 293.432 237.268C293.432 239.632 294.092 241.564 295.196 243.364ZM297.487 243.748H298.579V241.54L298.555 240.4C299.143 240.88 299.767 241.156 300.355 241.156C301.855 241.156 303.187 239.872 303.187 237.64C303.187 235.636 302.275 234.316 300.595 234.316C299.839 234.316 299.107 234.748 298.519 235.228H298.483L298.387 234.484H297.487V243.748ZM300.175 240.244C299.743 240.244 299.167 240.064 298.579 239.56V236.14C299.215 235.552 299.779 235.24 300.331 235.24C301.567 235.24 302.047 236.212 302.047 237.652C302.047 239.272 301.255 240.244 300.175 240.244ZM303.782 241H304.934L305.81 239.476C306.038 239.08 306.254 238.684 306.482 238.312H306.542C306.782 238.684 307.022 239.08 307.238 239.476L308.198 241H309.398L307.25 237.712L309.23 234.484H308.09L307.286 235.912C307.094 236.284 306.902 236.644 306.698 237.004H306.65C306.434 236.644 306.206 236.284 306.002 235.912L305.126 234.484H303.95L305.93 237.604L303.782 241ZM310.766 243.364C311.882 241.564 312.542 239.632 312.542 237.268C312.542 234.916 311.882 232.972 310.766 231.184L310.094 231.496C311.126 233.212 311.63 235.228 311.63 237.268C311.63 239.308 311.126 241.336 310.094 243.04L310.766 243.364Z" fill="black"/>
<rect x="232.5" y="142.5" width="79" height="79" fill="white" stroke="#9E9E9E"/>
<rect x="245.833" y="149.167" width="52.3333" height="65.6667" stroke="#9E9E9E"/>
<rect x="304.833" y="155.833" width="52.3333" height="65.6667" transform="rotate(90 304.833 155.833)" stroke="#9E9E9E"/>
<rect x="245.833" y="155.833" width="52.3333" height="52.3333" stroke="#9E9E9E"/>
<rect x="239.167" y="149.167" width="65.6667" height="65.6667" rx="32.8333" fill="#F6938A" fill-opacity="0.5" stroke="#9E9E9E"/>
<path d="M341.212 236.38C339.628 235.852 338.512 234.544 338.512 233.104V232.672H340.948V231.88H335.044V232.672H337.504V233.104C337.504 234.616 336.412 236.02 334.78 236.596L335.296 237.364C336.568 236.896 337.564 235.936 338.02 234.712C338.512 235.84 339.496 236.728 340.732 237.16L341.212 236.38ZM336.268 238.996H342.484V241.888H343.468V238.204H336.268V238.996ZM342.484 231.124V237.64H343.468V231.124H342.484ZM349.287 232.06H348.315V233.992C348.315 235.948 347.091 238.012 345.543 238.804L346.131 239.596C347.343 238.948 348.339 237.604 348.807 236.032C349.299 237.508 350.271 238.768 351.411 239.38L352.023 238.6C350.511 237.844 349.287 235.888 349.287 233.992V232.06ZM355.731 235.492H353.955V231.136H352.971V241.888H353.955V236.308H355.731V235.492ZM357.182 231.808V232.612H361.082C360.902 234.436 359.306 235.84 356.69 236.548L357.098 237.328C360.242 236.464 362.138 234.532 362.138 231.808H357.182ZM358.07 238.72H364.082V241.888H365.066V237.928H358.07V238.72ZM366.662 233.848H365.066V231.112H364.082V237.436H365.066V234.664H366.662V233.848ZM375.625 235.804H373.801V236.608H375.625V238.072H376.621V231.124H375.625V233.716H373.813V234.508H375.625V235.804ZM373.801 232.312H371.329V231.028H370.345V232.312H367.777V233.104H373.801V232.312ZM369.313 235.648C369.313 234.904 369.925 234.412 370.825 234.412C371.725 234.412 372.337 234.904 372.337 235.648C372.337 236.404 371.725 236.896 370.825 236.896C369.925 236.896 369.313 236.404 369.313 235.648ZM373.261 235.648C373.261 234.448 372.253 233.656 370.825 233.656C369.385 233.656 368.389 234.448 368.389 235.648C368.389 236.86 369.385 237.652 370.825 237.652C372.253 237.652 373.261 236.86 373.261 235.648ZM373.093 241.12C371.509 241.12 370.525 240.724 370.525 240.04C370.525 239.344 371.509 238.96 373.093 238.96C374.677 238.96 375.649 239.344 375.649 240.04C375.649 240.724 374.677 241.12 373.093 241.12ZM373.093 238.204C370.861 238.204 369.505 238.864 369.505 240.04C369.505 241.204 370.861 241.876 373.093 241.876C375.313 241.876 376.669 241.204 376.669 240.04C376.669 238.864 375.313 238.204 373.093 238.204ZM381.024 243.364L381.708 243.04C380.664 241.336 380.172 239.308 380.172 237.268C380.172 235.228 380.664 233.212 381.708 231.496L381.024 231.184C379.92 232.972 379.26 234.916 379.26 237.268C379.26 239.632 379.92 241.564 381.024 243.364ZM386.039 232.144H385.091V234.196C385.091 236.044 384.203 237.976 382.727 238.84L383.339 239.572C384.407 238.912 385.187 237.7 385.571 236.272C385.955 237.58 386.675 238.72 387.695 239.344L388.259 238.576C386.843 237.712 386.039 235.888 386.039 234.16V232.144ZM388.871 234.988H387.095V235.804H388.871V241.36H389.795V231.364H388.871V234.988ZM391.055 231.124V241.888H391.991V231.124H391.055ZM399.25 239.752V237.724H402.694V236.932H396.07V235.192H402.442V231.916H395.074V232.72H401.482V234.4H395.098V237.724H398.254V239.752H393.874V240.556H403.654V239.752H399.25ZM412.797 235.804H410.973V236.608H412.797V238.072H413.793V231.124H412.797V233.716H410.985V234.508H412.797V235.804ZM410.973 232.312H408.501V231.028H407.517V232.312H404.949V233.104H410.973V232.312ZM406.485 235.648C406.485 234.904 407.097 234.412 407.997 234.412C408.897 234.412 409.509 234.904 409.509 235.648C409.509 236.404 408.897 236.896 407.997 236.896C407.097 236.896 406.485 236.404 406.485 235.648ZM410.433 235.648C410.433 234.448 409.425 233.656 407.997 233.656C406.557 233.656 405.561 234.448 405.561 235.648C405.561 236.86 406.557 237.652 407.997 237.652C409.425 237.652 410.433 236.86 410.433 235.648ZM410.265 241.12C408.681 241.12 407.697 240.724 407.697 240.04C407.697 239.344 408.681 238.96 410.265 238.96C411.849 238.96 412.821 239.344 412.821 240.04C412.821 240.724 411.849 241.12 410.265 241.12ZM410.265 238.204C408.033 238.204 406.677 238.864 406.677 240.04C406.677 241.204 408.033 241.876 410.265 241.876C412.485 241.876 413.841 241.204 413.841 240.04C413.841 238.864 412.485 238.204 410.265 238.204ZM416.516 243.364C417.632 241.564 418.292 239.632 418.292 237.268C418.292 234.916 417.632 232.972 416.516 231.184L415.844 231.496C416.876 233.212 417.38 235.228 417.38 237.268C417.38 239.308 416.876 241.336 415.844 243.04L416.516 243.364ZM421.051 236.32C421.483 236.32 421.843 235.972 421.843 235.492C421.843 234.988 421.483 234.64 421.051 234.64C420.619 234.64 420.259 234.988 420.259 235.492C420.259 235.972 420.619 236.32 421.051 236.32ZM421.051 241.156C421.483 241.156 421.843 240.82 421.843 240.328C421.843 239.824 421.483 239.476 421.051 239.476C420.619 239.476 420.259 239.824 420.259 240.328C420.259 240.82 420.619 241.156 421.051 241.156ZM426.462 241H431.286V240.088H429.522V232.192H428.682C428.202 232.48 427.638 232.684 426.858 232.828V233.524H428.418V240.088H426.462V241ZM435.579 236.356C436.647 236.356 437.175 237.112 437.175 238.3C437.175 239.5 436.515 240.304 435.675 240.304C434.571 240.304 433.911 239.308 433.779 237.484C434.319 236.68 435.027 236.356 435.579 236.356ZM435.675 241.156C437.043 241.156 438.195 240.004 438.195 238.3C438.195 236.464 437.247 235.54 435.759 235.54C435.062 235.54 434.295 235.948 433.755 236.608C433.803 233.872 434.823 232.948 436.023 232.948C436.563 232.948 437.091 233.2 437.439 233.62L438.039 232.936C437.559 232.42 436.899 232.036 435.987 232.036C434.283 232.036 432.735 233.356 432.735 236.8C432.735 239.704 433.983 241.156 435.675 241.156ZM440.567 235.348L441.515 234.208L442.463 235.348L442.991 234.964L442.223 233.716L443.531 233.176L443.327 232.564L441.959 232.888L441.839 231.448H441.191L441.071 232.9L439.703 232.564L439.499 233.176L440.795 233.716L440.039 234.964L440.567 235.348ZM444.848 241H450.38V240.052H447.944C447.5 240.052 446.96 240.1 446.504 240.136C448.568 238.18 449.948 236.392 449.948 234.64C449.948 233.068 448.964 232.036 447.392 232.036C446.276 232.036 445.52 232.552 444.8 233.332L445.436 233.956C445.916 233.38 446.54 232.936 447.26 232.936C448.352 232.936 448.88 233.668 448.88 234.676C448.88 236.188 447.608 237.94 444.848 240.352V241ZM454.313 241.156C455.981 241.156 457.049 239.632 457.049 236.572C457.049 233.524 455.981 232.036 454.313 232.036C452.633 232.036 451.565 233.512 451.565 236.572C451.565 239.632 452.633 241.156 454.313 241.156ZM454.313 240.28C453.305 240.28 452.633 239.164 452.633 236.572C452.633 234.004 453.305 232.912 454.313 232.912C455.309 232.912 455.981 234.004 455.981 236.572C455.981 239.164 455.309 240.28 454.313 240.28ZM460.501 243.364L461.185 243.04C460.141 241.336 459.649 239.308 459.649 237.268C459.649 235.228 460.141 233.212 461.185 231.496L460.501 231.184C459.397 232.972 458.737 234.916 458.737 237.268C458.737 239.632 459.397 241.564 460.501 243.364ZM462.792 243.748H463.884V241.54L463.86 240.4C464.448 240.88 465.072 241.156 465.66 241.156C467.16 241.156 468.492 239.872 468.492 237.64C468.492 235.636 467.58 234.316 465.9 234.316C465.144 234.316 464.412 234.748 463.824 235.228H463.788L463.692 234.484H462.792V243.748ZM465.48 240.244C465.048 240.244 464.472 240.064 463.884 239.56V236.14C464.52 235.552 465.084 235.24 465.636 235.24C466.872 235.24 467.352 236.212 467.352 237.652C467.352 239.272 466.56 240.244 465.48 240.244ZM469.086 241H470.238L471.114 239.476C471.342 239.08 471.558 238.684 471.786 238.312H471.846C472.086 238.684 472.326 239.08 472.542 239.476L473.502 241H474.702L472.554 237.712L474.534 234.484H473.394L472.59 235.912C472.398 236.284 472.206 236.644 472.002 237.004H471.954C471.738 236.644 471.51 236.284 471.306 235.912L470.43 234.484H469.254L471.234 237.604L469.086 241ZM476.071 243.364C477.187 241.564 477.847 239.632 477.847 237.268C477.847 234.916 477.187 232.972 476.071 231.184L475.399 231.496C476.431 233.212 476.935 235.228 476.935 237.268C476.935 239.308 476.431 241.336 475.399 243.04L476.071 243.364Z" fill="black"/>
<rect x="367.5" y="142.5" width="79" height="79" fill="white" stroke="#9E9E9E"/>
<rect x="439.5" y="155.833" width="52.3333" height="65.6667" transform="rotate(90 439.5 155.833)" stroke="#9E9E9E"/>
<rect x="380.5" y="155.833" width="52.3333" height="52.3333" stroke="#9E9E9E"/>
<rect x="373.5" y="149.167" width="65.6667" height="65.6667" rx="32.8333" fill="white" stroke="#9E9E9E"/>
<rect x="380.5" y="149.167" width="52.3333" height="65.6667" fill="#F6938A" fill-opacity="0.5" stroke="#9E9E9E"/>
<path d="M506.212 236.38C504.628 235.852 503.512 234.544 503.512 233.104V232.672H505.948V231.88H500.044V232.672H502.504V233.104C502.504 234.616 501.412 236.02 499.78 236.596L500.296 237.364C501.568 236.896 502.564 235.936 503.02 234.712C503.512 235.84 504.496 236.728 505.732 237.16L506.212 236.38ZM501.268 238.996H507.484V241.888H508.468V238.204H501.268V238.996ZM507.484 231.124V237.64H508.468V231.124H507.484ZM514.287 232.06H513.315V233.992C513.315 235.948 512.091 238.012 510.543 238.804L511.131 239.596C512.343 238.948 513.339 237.604 513.807 236.032C514.299 237.508 515.271 238.768 516.411 239.38L517.023 238.6C515.511 237.844 514.287 235.888 514.287 233.992V232.06ZM520.731 235.492H518.955V231.136H517.971V241.888H518.955V236.308H520.731V235.492ZM522.182 231.808V232.612H526.082C525.902 234.436 524.306 235.84 521.69 236.548L522.098 237.328C525.242 236.464 527.138 234.532 527.138 231.808H522.182ZM523.07 238.72H529.082V241.888H530.066V237.928H523.07V238.72ZM531.662 233.848H530.066V231.112H529.082V237.436H530.066V234.664H531.662V233.848ZM540.625 235.804H538.801V236.608H540.625V238.072H541.621V231.124H540.625V233.716H538.813V234.508H540.625V235.804ZM538.801 232.312H536.329V231.028H535.345V232.312H532.777V233.104H538.801V232.312ZM534.313 235.648C534.313 234.904 534.925 234.412 535.825 234.412C536.725 234.412 537.337 234.904 537.337 235.648C537.337 236.404 536.725 236.896 535.825 236.896C534.925 236.896 534.313 236.404 534.313 235.648ZM538.261 235.648C538.261 234.448 537.253 233.656 535.825 233.656C534.385 233.656 533.389 234.448 533.389 235.648C533.389 236.86 534.385 237.652 535.825 237.652C537.253 237.652 538.261 236.86 538.261 235.648ZM538.093 241.12C536.509 241.12 535.525 240.724 535.525 240.04C535.525 239.344 536.509 238.96 538.093 238.96C539.677 238.96 540.649 239.344 540.649 240.04C540.649 240.724 539.677 241.12 538.093 241.12ZM538.093 238.204C535.861 238.204 534.505 238.864 534.505 240.04C534.505 241.204 535.861 241.876 538.093 241.876C540.313 241.876 541.669 241.204 541.669 240.04C541.669 238.864 540.313 238.204 538.093 238.204ZM546.024 243.364L546.708 243.04C545.664 241.336 545.172 239.308 545.172 237.268C545.172 235.228 545.664 233.212 546.708 231.496L546.024 231.184C544.92 232.972 544.26 234.916 544.26 237.268C544.26 239.632 544.92 241.564 546.024 243.364ZM548.423 232.276V233.092H552.371C552.143 235.636 550.667 237.7 547.919 239.08L548.459 239.848C551.939 238.108 553.343 235.336 553.343 232.276H548.423ZM557.855 235.492H556.127V231.124H555.143V241.888H556.127V236.308H557.855V235.492ZM564.25 239.752V237.724H567.694V236.932H561.07V235.192H567.442V231.916H560.074V232.72H566.482V234.4H560.098V237.724H563.254V239.752H558.874V240.556H568.654V239.752H564.25ZM577.797 235.804H575.973V236.608H577.797V238.072H578.793V231.124H577.797V233.716H575.985V234.508H577.797V235.804ZM575.973 232.312H573.501V231.028H572.517V232.312H569.949V233.104H575.973V232.312ZM571.485 235.648C571.485 234.904 572.097 234.412 572.997 234.412C573.897 234.412 574.509 234.904 574.509 235.648C574.509 236.404 573.897 236.896 572.997 236.896C572.097 236.896 571.485 236.404 571.485 235.648ZM575.433 235.648C575.433 234.448 574.425 233.656 572.997 233.656C571.557 233.656 570.561 234.448 570.561 235.648C570.561 236.86 571.557 237.652 572.997 237.652C574.425 237.652 575.433 236.86 575.433 235.648ZM575.265 241.12C573.681 241.12 572.697 240.724 572.697 240.04C572.697 239.344 573.681 238.96 575.265 238.96C576.849 238.96 577.821 239.344 577.821 240.04C577.821 240.724 576.849 241.12 575.265 241.12ZM575.265 238.204C573.033 238.204 571.677 238.864 571.677 240.04C571.677 241.204 573.033 241.876 575.265 241.876C577.485 241.876 578.841 241.204 578.841 240.04C578.841 238.864 577.485 238.204 575.265 238.204ZM581.516 243.364C582.632 241.564 583.292 239.632 583.292 237.268C583.292 234.916 582.632 232.972 581.516 231.184L580.844 231.496C581.876 233.212 582.38 235.228 582.38 237.268C582.38 239.308 581.876 241.336 580.844 243.04L581.516 243.364ZM586.051 236.32C586.483 236.32 586.843 235.972 586.843 235.492C586.843 234.988 586.483 234.64 586.051 234.64C585.619 234.64 585.259 234.988 585.259 235.492C585.259 235.972 585.619 236.32 586.051 236.32ZM586.051 241.156C586.483 241.156 586.843 240.82 586.843 240.328C586.843 239.824 586.483 239.476 586.051 239.476C585.619 239.476 585.259 239.824 585.259 240.328C585.259 240.82 585.619 241.156 586.051 241.156ZM590.934 241H596.466V240.052H594.03C593.586 240.052 593.046 240.1 592.59 240.136C594.654 238.18 596.034 236.392 596.034 234.64C596.034 233.068 595.05 232.036 593.478 232.036C592.362 232.036 591.606 232.552 590.886 233.332L591.522 233.956C592.002 233.38 592.626 232.936 593.346 232.936C594.438 232.936 594.966 233.668 594.966 234.676C594.966 236.188 593.694 237.94 590.934 240.352V241ZM600.399 241.156C602.067 241.156 603.135 239.632 603.135 236.572C603.135 233.524 602.067 232.036 600.399 232.036C598.719 232.036 597.651 233.512 597.651 236.572C597.651 239.632 598.719 241.156 600.399 241.156ZM600.399 240.28C599.391 240.28 598.719 239.164 598.719 236.572C598.719 234.004 599.391 232.912 600.399 232.912C601.395 232.912 602.067 234.004 602.067 236.572C602.067 239.164 601.395 240.28 600.399 240.28ZM605.567 235.348L606.515 234.208L607.463 235.348L607.991 234.964L607.223 233.716L608.531 233.176L608.327 232.564L606.959 232.888L606.839 231.448H606.191L606.071 232.9L604.703 232.564L604.499 233.176L605.795 233.716L605.039 234.964L605.567 235.348ZM610.376 241H615.2V240.088H613.436V232.192H612.596C612.116 232.48 611.552 232.684 610.772 232.828V233.524H612.332V240.088H610.376V241ZM619.493 236.356C620.561 236.356 621.089 237.112 621.089 238.3C621.089 239.5 620.429 240.304 619.589 240.304C618.485 240.304 617.825 239.308 617.693 237.484C618.233 236.68 618.941 236.356 619.493 236.356ZM619.589 241.156C620.957 241.156 622.109 240.004 622.109 238.3C622.109 236.464 621.161 235.54 619.673 235.54C618.977 235.54 618.209 235.948 617.669 236.608C617.717 233.872 618.737 232.948 619.937 232.948C620.477 232.948 621.005 233.2 621.353 233.62L621.953 232.936C621.473 232.42 620.813 232.036 619.901 232.036C618.197 232.036 616.649 233.356 616.649 236.8C616.649 239.704 617.897 241.156 619.589 241.156ZM625.501 243.364L626.185 243.04C625.141 241.336 624.649 239.308 624.649 237.268C624.649 235.228 625.141 233.212 626.185 231.496L625.501 231.184C624.397 232.972 623.737 234.916 623.737 237.268C623.737 239.632 624.397 241.564 625.501 243.364ZM627.792 243.748H628.884V241.54L628.86 240.4C629.448 240.88 630.072 241.156 630.66 241.156C632.16 241.156 633.492 239.872 633.492 237.64C633.492 235.636 632.58 234.316 630.9 234.316C630.144 234.316 629.412 234.748 628.824 235.228H628.788L628.692 234.484H627.792V243.748ZM630.48 240.244C630.048 240.244 629.472 240.064 628.884 239.56V236.14C629.52 235.552 630.084 235.24 630.636 235.24C631.872 235.24 632.352 236.212 632.352 237.652C632.352 239.272 631.56 240.244 630.48 240.244ZM634.086 241H635.238L636.114 239.476C636.342 239.08 636.558 238.684 636.786 238.312H636.846C637.086 238.684 637.326 239.08 637.542 239.476L638.502 241H639.702L637.554 237.712L639.534 234.484H638.394L637.59 235.912C637.398 236.284 637.206 236.644 637.002 237.004H636.954C636.738 236.644 636.51 236.284 636.306 235.912L635.43 234.484H634.254L636.234 237.604L634.086 241ZM641.071 243.364C642.187 241.564 642.847 239.632 642.847 237.268C642.847 234.916 642.187 232.972 641.071 231.184L640.399 231.496C641.431 233.212 641.935 235.228 641.935 237.268C641.935 239.308 641.431 241.336 640.399 243.04L641.071 243.364Z" fill="black"/>
<rect x="532.5" y="142.5" width="79" height="79" fill="white" stroke="#9E9E9E"/>
<rect x="545.5" y="155.833" width="52.3333" height="52.3333" stroke="#9E9E9E"/>
<rect x="538.5" y="149.167" width="65.6667" height="65.6667" rx="32.8333" fill="white" stroke="#9E9E9E"/>
<rect x="545.5" y="149.167" width="52.3333" height="65.6667" stroke="#9E9E9E"/>
<rect x="604.5" y="155.833" width="52.3333" height="65.6667" transform="rotate(90 604.5 155.833)" fill="#F6938A" fill-opacity="0.5" stroke="#9E9E9E"/>
<rect x="334.5" y="284.5" width="263" height="112" rx="9.5" fill="white" stroke="#E0E0E0"/>
<path d="M355.092 308H356.868V304.4H360.024V302.912H356.868V300.596H360.564V299.108H355.092V308ZM364.553 308.168C366.233 308.168 367.781 306.872 367.781 304.64C367.781 302.408 366.233 301.112 364.553 301.112C362.873 301.112 361.325 302.408 361.325 304.64C361.325 306.872 362.873 308.168 364.553 308.168ZM364.553 306.728C363.641 306.728 363.125 305.912 363.125 304.64C363.125 303.38 363.641 302.552 364.553 302.552C365.465 302.552 365.981 303.38 365.981 304.64C365.981 305.912 365.465 306.728 364.553 306.728ZM372.113 308.168C372.857 308.168 373.673 307.916 374.321 307.352L373.613 306.188C373.241 306.5 372.785 306.728 372.305 306.728C371.345 306.728 370.637 305.912 370.637 304.64C370.637 303.38 371.333 302.552 372.365 302.552C372.737 302.552 373.049 302.708 373.385 302.996L374.225 301.856C373.733 301.436 373.097 301.112 372.269 301.112C370.445 301.112 368.837 302.408 368.837 304.64C368.837 306.872 370.253 308.168 372.113 308.168ZM377.589 308.168C378.501 308.168 379.149 307.724 379.725 307.04H379.773L379.905 308H381.345V301.28H379.581V305.816C379.125 306.416 378.765 306.656 378.213 306.656C377.565 306.656 377.277 306.284 377.277 305.252V301.28H375.513V305.48C375.513 307.16 376.137 308.168 377.589 308.168ZM385.145 308.168C386.897 308.168 387.821 307.22 387.821 306.044C387.821 304.796 386.837 304.352 385.949 304.016C385.241 303.752 384.617 303.572 384.617 303.08C384.617 302.696 384.905 302.432 385.517 302.432C386.009 302.432 386.477 302.66 386.957 303.008L387.749 301.94C387.197 301.52 386.441 301.112 385.469 301.112C383.933 301.112 382.961 301.964 382.961 303.164C382.961 304.292 383.909 304.808 384.761 305.132C385.469 305.408 386.165 305.636 386.165 306.14C386.165 306.56 385.865 306.848 385.193 306.848C384.569 306.848 383.993 306.584 383.393 306.116L382.589 307.22C383.261 307.772 384.245 308.168 385.145 308.168Z" fill="black"/>
<path d="M400.188 308H401.232L401.556 305.396H403.056L402.744 308H403.8L404.112 305.396H405.396V304.256H404.244L404.448 302.612H405.672V301.46H404.592L404.868 299.144H403.836L403.536 301.46H402.024L402.3 299.144H401.28L400.98 301.46H399.744V302.612H400.836L400.632 304.256H399.468V305.396H400.5L400.188 308ZM401.676 304.256L401.88 302.612H403.392L403.188 304.256H401.676ZM408.298 308H410.086C410.23 304.628 410.554 302.888 412.57 300.428V299.348H406.666V300.824H410.662C409.006 303.128 408.454 305.012 408.298 308ZM416.661 308.168C418.461 308.168 419.649 307.136 419.649 305.792C419.649 304.628 418.965 303.992 418.161 303.536V303.476C418.725 303.08 419.301 302.384 419.301 301.532C419.301 300.116 418.293 299.18 416.721 299.18C415.185 299.18 414.045 300.092 414.045 301.52C414.045 302.432 414.549 303.068 415.221 303.56V303.608C414.405 304.04 413.697 304.724 413.697 305.792C413.697 307.184 414.969 308.168 416.661 308.168ZM417.225 303.044C416.301 302.684 415.605 302.312 415.605 301.52C415.605 300.812 416.085 300.428 416.685 300.428C417.429 300.428 417.861 300.932 417.861 301.652C417.861 302.144 417.633 302.612 417.225 303.044ZM416.709 306.92C415.881 306.92 415.221 306.404 415.221 305.6C415.221 304.988 415.569 304.46 416.037 304.088C417.177 304.556 418.005 304.868 418.005 305.732C418.005 306.5 417.465 306.92 416.709 306.92ZM423.511 308.168C425.155 308.168 426.619 307.064 426.619 305.156C426.619 303.308 425.371 302.468 423.883 302.468C423.475 302.468 423.175 302.552 422.815 302.708L422.983 300.824H426.211V299.348H421.459L421.219 303.668L422.023 304.184C422.539 303.848 422.827 303.716 423.355 303.716C424.255 303.716 424.855 304.256 424.855 305.216C424.855 306.188 424.207 306.728 423.283 306.728C422.455 306.728 421.831 306.32 421.327 305.828L420.511 306.956C421.171 307.616 422.107 308.168 423.511 308.168ZM428.25 308H433.59V306.572H431.922V299.348H430.614C430.05 299.696 429.438 299.924 428.55 300.092V301.184H430.158V306.572H428.25V308ZM435.424 308H441.004V306.512H437.2V304.136H440.32V302.648H437.2V300.596H440.872V299.108H435.424V308ZM443.947 308H445.735C445.879 304.628 446.203 302.888 448.219 300.428V299.348H442.315V300.824H446.311C444.655 303.128 444.103 305.012 443.947 308Z" fill="#7851E7"/>
<path d="M370 328H357.83L363.42 322.41L362 321L354 329L362 337L363.41 335.59L357.83 330H370V328Z" fill="#7851E7"/>
<path d="M380 330L392.17 330L386.58 335.59L388 337L396 329L388 321L386.59 322.41L392.17 328L380 328L380 330Z" fill="#7851E7"/>
<path d="M562 325.8H565.429V337H562V325.8ZM568.4 321H571.6V337H568.4V321V321ZM574.8 330.143H578V337H574.8V330.143Z" fill="#7851E7"/>
<path d="M472.113 329.784C472.146 329.528 472.17 329.272 472.17 329C472.17 328.728 472.146 328.472 472.113 328.216L473.848 326.896C474.004 326.776 474.045 326.56 473.947 326.384L472.302 323.616C472.228 323.488 472.088 323.416 471.94 323.416C471.891 323.416 471.841 323.424 471.8 323.44L469.752 324.24C469.325 323.92 468.864 323.656 468.362 323.456L468.05 321.336C468.025 321.144 467.852 321 467.647 321H464.357C464.151 321 463.979 321.144 463.954 321.336L463.642 323.456C463.14 323.656 462.679 323.928 462.252 324.24L460.204 323.44C460.154 323.424 460.105 323.416 460.056 323.416C459.916 323.416 459.776 323.488 459.702 323.616L458.057 326.384C457.95 326.56 458 326.776 458.156 326.896L459.891 328.216C459.858 328.472 459.834 328.736 459.834 329C459.834 329.264 459.858 329.528 459.891 329.784L458.156 331.104C458 331.224 457.958 331.44 458.057 331.616L459.702 334.384C459.776 334.512 459.916 334.584 460.064 334.584C460.113 334.584 460.163 334.576 460.204 334.56L462.252 333.76C462.679 334.08 463.14 334.344 463.642 334.544L463.954 336.664C463.979 336.856 464.151 337 464.357 337H467.647C467.852 337 468.025 336.856 468.05 336.664L468.362 334.544C468.864 334.344 469.325 334.072 469.752 333.76L471.8 334.56C471.849 334.576 471.899 334.584 471.948 334.584C472.088 334.584 472.228 334.512 472.302 334.384L473.947 331.616C474.045 331.44 474.004 331.224 473.848 331.104L472.113 329.784V329.784ZM470.484 328.416C470.517 328.664 470.525 328.832 470.525 329C470.525 329.168 470.509 329.344 470.484 329.584L470.369 330.488L471.101 331.048L471.989 331.72L471.414 332.688L470.369 332.28L469.514 331.944L468.774 332.488C468.42 332.744 468.083 332.936 467.745 333.072L466.874 333.416L466.742 334.32L466.578 335.4H465.426L465.27 334.32L465.138 333.416L464.267 333.072C463.913 332.928 463.584 332.744 463.255 332.504L462.507 331.944L461.635 332.288L460.59 332.696L460.015 331.728L460.903 331.056L461.635 330.496L461.52 329.592C461.495 329.344 461.478 329.16 461.478 329C461.478 328.84 461.495 328.656 461.52 328.416L461.635 327.512L460.903 326.952L460.015 326.28L460.59 325.312L461.635 325.72L462.49 326.056L463.23 325.512C463.584 325.256 463.921 325.064 464.258 324.928L465.13 324.584L465.262 323.68L465.426 322.6H466.569L466.726 323.68L466.857 324.584L467.729 324.928C468.083 325.072 468.412 325.256 468.741 325.496L469.489 326.056L470.361 325.712L471.405 325.304L471.981 326.272L471.101 326.952L470.369 327.512L470.484 328.416ZM466.002 325.8C464.184 325.8 462.712 327.232 462.712 329C462.712 330.768 464.184 332.2 466.002 332.2C467.82 332.2 469.292 330.768 469.292 329C469.292 327.232 467.82 325.8 466.002 325.8ZM466.002 330.6C465.097 330.6 464.357 329.88 464.357 329C464.357 328.12 465.097 327.4 466.002 327.4C466.907 327.4 467.647 328.12 467.647 329C467.647 329.88 466.907 330.6 466.002 330.6Z" fill="#7851E7"/>
<path d="M446.222 335.222H433.778V322.778H440V321H433.778C432.8 321 432 321.8 432 322.778V335.222C432 336.2 432.8 337 433.778 337H446.222C447.2 337 448 336.2 448 335.222V329H446.222V335.222Z" fill="#7851E7"/>
<path d="M442.489 332.733V330.956H439.289L448 322.244L446.756 321L438.045 329.711V326.511H436.267V332.733H442.489Z" fill="#7851E7"/>
<path d="M422 330.143H415.143V337H412.857V330.143H406V327.857H412.857V321H415.143V327.857H422V330.143Z" fill="#7851E7"/>
<path d="M524.4 322.455H523.6V321H522V322.455H514V321H512.4V322.455H511.6C510.72 322.455 510 323.109 510 323.909V335.545C510 336.345 510.72 337 511.6 337H524.4C525.28 337 526 336.345 526 335.545V323.909C526 323.109 525.28 322.455 524.4 322.455ZM524.4 335.545H511.6V327.545H524.4V335.545ZM524.4 326.091H511.6V323.909H524.4V326.091Z" fill="#7851E7"/>
<path d="M550.222 321H537.778C536.8 321 536 321.8 536 322.778V335.222C536 336.2 536.8 337 537.778 337H550.222C551.2 337 552 336.2 552 335.222V322.778C552 321.8 551.2 321 550.222 321ZM550.222 335.222H537.778V322.778H550.222V335.222ZM549.325 326.333L548.071 325.071L542.213 330.929L539.92 328.644L538.658 329.898L542.213 333.444L549.325 326.333Z" fill="#7851E7"/>
<path d="M369.355 360.644C367.722 359.012 365.482 358 362.994 358C358.019 358 354 362.027 354 367C354 371.973 358.019 376 362.994 376C367.193 376 370.694 373.131 371.696 369.25H369.355C368.432 371.871 365.932 373.75 362.994 373.75C359.268 373.75 356.24 370.724 356.24 367C356.24 363.276 359.268 360.25 362.994 360.25C364.863 360.25 366.529 361.026 367.745 362.253L364.12 365.875H372V358L369.355 360.644Z" fill="#7851E7"/>
<path d="M454 361H452C452 358.79 450.21 357 448 357C445.79 357 444 358.79 444 361H442C440.9 361 440 361.9 440 363V375C440 376.1 440.9 377 442 377H454C455.1 377 456 376.1 456 375V363C456 361.9 455.1 361 454 361ZM446 365C446 365.55 445.55 366 445 366C444.45 366 444 365.55 444 365V363H446V365ZM448 359C449.1 359 450 359.9 450 361H446C446 359.9 446.9 359 448 359ZM452 365C452 365.55 451.55 366 451 366C450.45 366 450 365.55 450 365V363H452V365Z" fill="#7851E7"/>
<path d="M391 358C386.032 358 382 362.032 382 367C382 371.968 386.032 376 391 376C395.968 376 400 371.968 400 367C400 362.032 395.968 358 391 358ZM383.8 367C383.8 363.022 387.022 359.8 391 359.8C392.665 359.8 394.195 360.367 395.41 361.321L385.321 371.41C384.367 370.195 383.8 368.665 383.8 367ZM391 374.2C389.335 374.2 387.805 373.633 386.59 372.679L396.679 362.59C397.633 363.805 398.2 365.335 398.2 367C398.2 370.978 394.978 374.2 391 374.2Z" fill="#7851E7"/>
<path d="M476 362.36L482.845 373.316H469.155L476 362.36ZM476 359L466 375H486L476 359ZM476.909 370.789H475.091V372.474H476.909V370.789ZM476.909 365.737H475.091V369.105H476.909V365.737Z" fill="#7851E7"/>
<path d="M507.79 357H497.684C496.758 357 496 357.818 496 358.818V371.545H497.684V358.818H507.79V357ZM510.316 360.636H501.053C500.126 360.636 499.368 361.455 499.368 362.455V375.182C499.368 376.182 500.126 377 501.053 377H510.316C511.242 377 512 376.182 512 375.182V362.455C512 361.455 511.242 360.636 510.316 360.636ZM510.316 375.182H501.053V362.455H510.316V375.182Z" fill="#7851E7"/>
<path d="M428.182 359H411.818C410.818 359 410 359.72 410 360.6V370.2C410 371.08 410.818 371.8 411.818 371.8H418.182L416.364 374.2V375H423.636V374.2L421.818 371.8H428.182C429.182 371.8 430 371.08 430 370.2V360.6C430 359.72 429.182 359 428.182 359ZM428.182 368.6H411.818V360.6H428.182V368.6Z" fill="#7851E7"/>
<path d="M498.222 322.778V335.222H485.778V322.778H498.222ZM498.222 321H485.778C484.8 321 484 321.8 484 322.778V335.222C484 336.2 484.8 337 485.778 337H498.222C499.2 337 500 336.2 500 335.222V322.778C500 321.8 499.2 321 498.222 321ZM493.902 328.876L491.236 332.316L489.333 330.013L486.667 333.444H497.333L493.902 328.876Z" fill="#7851E7"/>
<rect x="608.5" y="284.5" width="263" height="112" rx="9.5" fill="white" stroke="#E0E0E0"/>
<path d="M629.092 308H631.624C634.24 308 635.92 306.512 635.92 303.524C635.92 300.524 634.24 299.108 631.528 299.108H629.092V308ZM630.868 306.572V300.536H631.42C633.076 300.536 634.108 301.352 634.108 303.524C634.108 305.684 633.076 306.572 631.42 306.572H630.868ZM637.514 308H639.278V301.28H637.514V308ZM638.402 300.2C639.002 300.2 639.422 299.816 639.422 299.228C639.422 298.652 639.002 298.268 638.402 298.268C637.79 298.268 637.37 298.652 637.37 299.228C637.37 299.816 637.79 300.2 638.402 300.2ZM643.079 308.168C644.831 308.168 645.755 307.22 645.755 306.044C645.755 304.796 644.771 304.352 643.883 304.016C643.175 303.752 642.551 303.572 642.551 303.08C642.551 302.696 642.839 302.432 643.451 302.432C643.943 302.432 644.411 302.66 644.891 303.008L645.683 301.94C645.131 301.52 644.375 301.112 643.403 301.112C641.867 301.112 640.895 301.964 640.895 303.164C640.895 304.292 641.843 304.808 642.695 305.132C643.403 305.408 644.099 305.636 644.099 306.14C644.099 306.56 643.799 306.848 643.127 306.848C642.503 306.848 641.927 306.584 641.327 306.116L640.523 307.22C641.195 307.772 642.179 308.168 643.079 308.168ZM648.756 308.168C649.524 308.168 650.196 307.784 650.784 307.28H650.832L650.952 308H652.392V304.076C652.392 302.132 651.516 301.112 649.812 301.112C648.756 301.112 647.796 301.508 647.004 302L647.64 303.164C648.264 302.804 648.864 302.528 649.488 302.528C650.316 302.528 650.604 303.032 650.64 303.692C647.928 303.98 646.764 304.736 646.764 306.176C646.764 307.316 647.556 308.168 648.756 308.168ZM649.332 306.788C648.816 306.788 648.444 306.56 648.444 306.032C648.444 305.432 648.996 304.976 650.64 304.772V306.128C650.208 306.548 649.836 306.788 649.332 306.788ZM657.562 308.168C659.038 308.168 660.418 306.836 660.418 304.52C660.418 302.468 659.422 301.112 657.766 301.112C657.106 301.112 656.434 301.436 655.906 301.916L655.954 300.836V298.424H654.19V308H655.57L655.726 307.292H655.774C656.314 307.856 656.962 308.168 657.562 308.168ZM657.166 306.716C656.806 306.716 656.374 306.584 655.954 306.212V303.26C656.41 302.792 656.818 302.564 657.274 302.564C658.198 302.564 658.606 303.272 658.606 304.556C658.606 306.02 657.982 306.716 657.166 306.716ZM663.569 308.168C663.989 308.168 664.277 308.096 664.481 308.012L664.265 306.704C664.145 306.728 664.097 306.728 664.025 306.728C663.857 306.728 663.677 306.596 663.677 306.188V298.424H661.913V306.116C661.913 307.364 662.345 308.168 663.569 308.168ZM668.626 308.168C669.454 308.168 670.306 307.88 670.966 307.424L670.366 306.344C669.886 306.644 669.406 306.812 668.854 306.812C667.858 306.812 667.138 306.236 666.994 305.132H671.134C671.182 304.976 671.218 304.652 671.218 304.316C671.218 302.468 670.258 301.112 668.41 301.112C666.814 301.112 665.278 302.468 665.278 304.64C665.278 306.86 666.742 308.168 668.626 308.168ZM666.97 303.956C667.102 302.984 667.726 302.48 668.434 302.48C669.298 302.48 669.706 303.056 669.706 303.956H666.97ZM675.035 308.168C675.731 308.168 676.403 307.784 676.895 307.304H676.943L677.075 308H678.503V298.424H676.751V300.788L676.811 301.844C676.331 301.4 675.863 301.112 675.107 301.112C673.655 301.112 672.287 302.456 672.287 304.64C672.287 306.848 673.367 308.168 675.035 308.168ZM675.491 306.716C674.603 306.716 674.099 306.02 674.099 304.628C674.099 303.284 674.735 302.564 675.491 302.564C675.911 302.564 676.343 302.696 676.751 303.068V306.02C676.355 306.524 675.959 306.716 675.491 306.716Z" fill="black"/>
<path d="M691.188 308H692.232L692.556 305.396H694.056L693.744 308H694.8L695.112 305.396H696.396V304.256H695.244L695.448 302.612H696.672V301.46H695.592L695.868 299.144H694.836L694.536 301.46H693.024L693.3 299.144H692.28L691.98 301.46H690.744V302.612H691.836L691.632 304.256H690.468V305.396H691.5L691.188 308ZM692.676 304.256L692.88 302.612H694.392L694.188 304.256H692.676ZM701.386 308.168C702.862 308.168 704.242 306.836 704.242 304.52C704.242 302.468 703.246 301.112 701.59 301.112C700.93 301.112 700.258 301.436 699.73 301.916L699.778 300.836V298.424H698.014V308H699.394L699.55 307.292H699.598C700.138 307.856 700.786 308.168 701.386 308.168ZM700.99 306.716C700.63 306.716 700.198 306.584 699.778 306.212V303.26C700.234 302.792 700.642 302.564 701.098 302.564C702.022 302.564 702.43 303.272 702.43 304.556C702.43 306.02 701.806 306.716 700.99 306.716ZM708.101 308.168C708.797 308.168 709.469 307.784 709.961 307.304H710.009L710.141 308H711.569V298.424H709.817V300.788L709.877 301.844C709.397 301.4 708.929 301.112 708.173 301.112C706.721 301.112 705.353 302.456 705.353 304.64C705.353 306.848 706.433 308.168 708.101 308.168ZM708.557 306.716C707.669 306.716 707.165 306.02 707.165 304.628C707.165 303.284 707.801 302.564 708.557 302.564C708.977 302.564 709.409 302.696 709.817 303.068V306.02C709.421 306.524 709.025 306.716 708.557 306.716ZM716.832 308.168C718.308 308.168 719.688 306.836 719.688 304.52C719.688 302.468 718.692 301.112 717.036 301.112C716.376 301.112 715.704 301.436 715.176 301.916L715.224 300.836V298.424H713.46V308H714.84L714.996 307.292H715.044C715.584 307.856 716.232 308.168 716.832 308.168ZM716.436 306.716C716.076 306.716 715.644 306.584 715.224 306.212V303.26C715.68 302.792 716.088 302.564 716.544 302.564C717.468 302.564 717.876 303.272 717.876 304.556C717.876 306.02 717.252 306.716 716.436 306.716ZM723.546 308.168C724.242 308.168 724.914 307.784 725.406 307.304H725.454L725.586 308H727.014V298.424H725.262V300.788L725.322 301.844C724.842 301.4 724.374 301.112 723.618 301.112C722.166 301.112 720.798 302.456 720.798 304.64C720.798 306.848 721.878 308.168 723.546 308.168ZM724.002 306.716C723.114 306.716 722.61 306.02 722.61 304.628C722.61 303.284 723.246 302.564 724.002 302.564C724.422 302.564 724.854 302.696 725.262 303.068V306.02C724.866 306.524 724.47 306.716 724.002 306.716ZM732.277 308.168C733.753 308.168 735.133 306.836 735.133 304.52C735.133 302.468 734.137 301.112 732.481 301.112C731.821 301.112 731.149 301.436 730.621 301.916L730.669 300.836V298.424H728.905V308H730.285L730.441 307.292H730.489C731.029 307.856 731.677 308.168 732.277 308.168ZM731.881 306.716C731.521 306.716 731.089 306.584 730.669 306.212V303.26C731.125 302.792 731.533 302.564 731.989 302.564C732.913 302.564 733.321 303.272 733.321 304.556C733.321 306.02 732.697 306.716 731.881 306.716ZM738.992 308.168C739.688 308.168 740.36 307.784 740.852 307.304H740.9L741.032 308H742.46V298.424H740.708V300.788L740.768 301.844C740.288 301.4 739.82 301.112 739.064 301.112C737.612 301.112 736.244 302.456 736.244 304.64C736.244 306.848 737.324 308.168 738.992 308.168ZM739.448 306.716C738.56 306.716 738.056 306.02 738.056 304.628C738.056 303.284 738.692 302.564 739.448 302.564C739.868 302.564 740.3 302.696 740.708 303.068V306.02C740.312 306.524 739.916 306.716 739.448 306.716Z" fill="#BDBDBD"/>
<path d="M644 328H631.83L637.42 322.41L636 321L628 329L636 337L637.41 335.59L631.83 330H644V328Z" fill="#BDBDBD"/>
<path d="M654 330L666.17 330L660.58 335.59L662 337L670 329L662 321L660.59 322.41L666.17 328L654 328L654 330Z" fill="#BDBDBD"/>
<path d="M836 325.8H839.429V337H836V325.8ZM842.4 321H845.6V337H842.4V321V321ZM848.8 330.143H852V337H848.8V330.143Z" fill="#BDBDBD"/>
<path d="M746.113 329.784C746.145 329.528 746.17 329.272 746.17 329C746.17 328.728 746.145 328.472 746.113 328.216L747.848 326.896C748.004 326.776 748.045 326.56 747.947 326.384L746.302 323.616C746.228 323.488 746.088 323.416 745.94 323.416C745.891 323.416 745.841 323.424 745.8 323.44L743.752 324.24C743.324 323.92 742.864 323.656 742.362 323.456L742.05 321.336C742.025 321.144 741.852 321 741.647 321H738.357C738.151 321 737.979 321.144 737.954 321.336L737.641 323.456C737.14 323.656 736.679 323.928 736.251 324.24L734.204 323.44C734.154 323.424 734.105 323.416 734.056 323.416C733.916 323.416 733.776 323.488 733.702 323.616L732.057 326.384C731.95 326.56 731.999 326.776 732.156 326.896L733.891 328.216C733.858 328.472 733.833 328.736 733.833 329C733.833 329.264 733.858 329.528 733.891 329.784L732.156 331.104C731.999 331.224 731.958 331.44 732.057 331.616L733.702 334.384C733.776 334.512 733.916 334.584 734.064 334.584C734.113 334.584 734.162 334.576 734.204 334.56L736.251 333.76C736.679 334.08 737.14 334.344 737.641 334.544L737.954 336.664C737.979 336.856 738.151 337 738.357 337H741.647C741.852 337 742.025 336.856 742.05 336.664L742.362 334.544C742.864 334.344 743.324 334.072 743.752 333.76L745.8 334.56C745.849 334.576 745.899 334.584 745.948 334.584C746.088 334.584 746.228 334.512 746.302 334.384L747.947 331.616C748.045 331.44 748.004 331.224 747.848 331.104L746.113 329.784V329.784ZM744.484 328.416C744.517 328.664 744.525 328.832 744.525 329C744.525 329.168 744.509 329.344 744.484 329.584L744.369 330.488L745.101 331.048L745.989 331.72L745.413 332.688L744.369 332.28L743.514 331.944L742.773 332.488C742.42 332.744 742.083 332.936 741.745 333.072L740.874 333.416L740.742 334.32L740.578 335.4H739.426L739.27 334.32L739.138 333.416L738.266 333.072C737.913 332.928 737.584 332.744 737.255 332.504L736.506 331.944L735.635 332.288L734.59 332.696L734.014 331.728L734.903 331.056L735.635 330.496L735.52 329.592C735.495 329.344 735.478 329.16 735.478 329C735.478 328.84 735.495 328.656 735.52 328.416L735.635 327.512L734.903 326.952L734.014 326.28L734.59 325.312L735.635 325.72L736.49 326.056L737.23 325.512C737.584 325.256 737.921 325.064 738.258 324.928L739.13 324.584L739.262 323.68L739.426 322.6H740.569L740.726 323.68L740.857 324.584L741.729 324.928C742.083 325.072 742.412 325.256 742.741 325.496L743.489 326.056L744.361 325.712L745.405 325.304L745.981 326.272L745.101 326.952L744.369 327.512L744.484 328.416ZM740.002 325.8C738.184 325.8 736.712 327.232 736.712 329C736.712 330.768 738.184 332.2 740.002 332.2C741.819 332.2 743.292 330.768 743.292 329C743.292 327.232 741.819 325.8 740.002 325.8ZM740.002 330.6C739.097 330.6 738.357 329.88 738.357 329C738.357 328.12 739.097 327.4 740.002 327.4C740.907 327.4 741.647 328.12 741.647 329C741.647 329.88 740.907 330.6 740.002 330.6Z" fill="#BDBDBD"/>
<path d="M720.222 335.222H707.778V322.778H714V321H707.778C706.8 321 706 321.8 706 322.778V335.222C706 336.2 706.8 337 707.778 337H720.222C721.2 337 722 336.2 722 335.222V329H720.222V335.222Z" fill="#BDBDBD"/>
<path d="M716.489 332.733V330.956H713.289L722 322.244L720.756 321L712.045 329.711V326.511H710.267V332.733H716.489Z" fill="#BDBDBD"/>
<path d="M696 330.143H689.143V337H686.857V330.143H680V327.857H686.857V321H689.143V327.857H696V330.143Z" fill="#BDBDBD"/>
<path d="M798.4 322.455H797.6V321H796V322.455H788V321H786.4V322.455H785.6C784.72 322.455 784 323.109 784 323.909V335.545C784 336.345 784.72 337 785.6 337H798.4C799.28 337 800 336.345 800 335.545V323.909C800 323.109 799.28 322.455 798.4 322.455ZM798.4 335.545H785.6V327.545H798.4V335.545ZM798.4 326.091H785.6V323.909H798.4V326.091Z" fill="#BDBDBD"/>
<path d="M824.222 321H811.778C810.8 321 810 321.8 810 322.778V335.222C810 336.2 810.8 337 811.778 337H824.222C825.2 337 826 336.2 826 335.222V322.778C826 321.8 825.2 321 824.222 321ZM824.222 335.222H811.778V322.778H824.222V335.222ZM823.324 326.333L822.071 325.071L816.213 330.929L813.92 328.644L812.658 329.898L816.213 333.444L823.324 326.333Z" fill="#BDBDBD"/>
<path d="M772.222 322.778V335.222H759.778V322.778H772.222ZM772.222 321H759.778C758.8 321 758 321.8 758 322.778V335.222C758 336.2 758.8 337 759.778 337H772.222C773.2 337 774 336.2 774 335.222V322.778C774 321.8 773.2 321 772.222 321ZM767.902 328.876L765.236 332.316L763.333 330.013L760.667 333.444H771.333L767.902 328.876Z" fill="#BDBDBD"/>
<path d="M643.355 360.644C641.722 359.012 639.482 358 636.994 358C632.019 358 628 362.027 628 367C628 371.973 632.019 376 636.994 376C641.193 376 644.694 373.131 645.696 369.25H643.355C642.432 371.871 639.933 373.75 636.994 373.75C633.268 373.75 630.24 370.724 630.24 367C630.24 363.276 633.268 360.25 636.994 360.25C638.863 360.25 640.529 361.026 641.745 362.253L638.12 365.875H646V358L643.355 360.644Z" fill="#BDBDBD"/>
<path d="M728 361H726C726 358.79 724.21 357 722 357C719.79 357 718 358.79 718 361H716C714.9 361 714 361.9 714 363V375C714 376.1 714.9 377 716 377H728C729.1 377 730 376.1 730 375V363C730 361.9 729.1 361 728 361ZM720 365C720 365.55 719.55 366 719 366C718.45 366 718 365.55 718 365V363H720V365ZM722 359C723.1 359 724 359.9 724 361H720C720 359.9 720.9 359 722 359ZM726 365C726 365.55 725.55 366 725 366C724.45 366 724 365.55 724 365V363H726V365Z" fill="#BDBDBD"/>
<path d="M665 358C660.032 358 656 362.032 656 367C656 371.968 660.032 376 665 376C669.968 376 674 371.968 674 367C674 362.032 669.968 358 665 358ZM657.8 367C657.8 363.022 661.022 359.8 665 359.8C666.665 359.8 668.195 360.367 669.41 361.321L659.321 371.41C658.367 370.195 657.8 368.665 657.8 367ZM665 374.2C663.335 374.2 661.805 373.633 660.59 372.679L670.679 362.59C671.633 363.805 672.2 365.335 672.2 367C672.2 370.978 668.978 374.2 665 374.2Z" fill="#BDBDBD"/>
<path d="M750 362.36L756.846 373.316H743.155L750 362.36ZM750 359L740 375H760L750 359ZM750.909 370.789H749.091V372.474H750.909V370.789ZM750.909 365.737H749.091V369.105H750.909V365.737Z" fill="#BDBDBD"/>
<path d="M781.789 357H771.684C770.758 357 770 357.818 770 358.818V371.545H771.684V358.818H781.789V357ZM784.316 360.636H775.053C774.126 360.636 773.368 361.455 773.368 362.455V375.182C773.368 376.182 774.126 377 775.053 377H784.316C785.242 377 786 376.182 786 375.182V362.455C786 361.455 785.242 360.636 784.316 360.636ZM784.316 375.182H775.053V362.455H784.316V375.182Z" fill="#BDBDBD"/>
<path d="M702.182 359H685.818C684.818 359 684 359.72 684 360.6V370.2C684 371.08 684.818 371.8 685.818 371.8H692.182L690.364 374.2V375H697.636V374.2L695.818 371.8H702.182C703.182 371.8 704 371.08 704 370.2V360.6C704 359.72 703.182 359 702.182 359ZM702.182 368.6H685.818V360.6H702.182V368.6Z" fill="#BDBDBD"/>
<rect x="60.5" y="284.5" width="263" height="112" rx="9.5" fill="white" stroke="#E0E0E0"/>
<path d="M81.092 308H83.624C86.24 308 87.92 306.512 87.92 303.524C87.92 300.524 86.24 299.108 83.528 299.108H81.092V308ZM82.868 306.572V300.536H83.42C85.076 300.536 86.108 301.352 86.108 303.524C86.108 305.684 85.076 306.572 83.42 306.572H82.868ZM92.4424 308.168C93.2704 308.168 94.1224 307.88 94.7824 307.424L94.1824 306.344C93.7024 306.644 93.2224 306.812 92.6704 306.812C91.6744 306.812 90.9544 306.236 90.8104 305.132H94.9504C94.9984 304.976 95.0344 304.652 95.0344 304.316C95.0344 302.468 94.0744 301.112 92.2264 301.112C90.6304 301.112 89.0944 302.468 89.0944 304.64C89.0944 306.86 90.5584 308.168 92.4424 308.168ZM90.7864 303.956C90.9184 302.984 91.5424 302.48 92.2504 302.48C93.1144 302.48 93.5224 303.056 93.5224 303.956H90.7864ZM96.7285 308H98.4925V302.672H99.7525V301.28H98.4925V300.704C98.4925 299.96 98.7805 299.648 99.3085 299.648C99.5245 299.648 99.7885 299.696 100.016 299.792L100.34 298.484C100.04 298.376 99.5845 298.256 99.0685 298.256C97.3765 298.256 96.7285 299.336 96.7285 300.74V301.292L95.8285 301.364V302.672H96.7285V308ZM102.268 308.168C103.036 308.168 103.708 307.784 104.296 307.28H104.344L104.464 308H105.904V304.076C105.904 302.132 105.028 301.112 103.324 301.112C102.268 301.112 101.308 301.508 100.516 302L101.152 303.164C101.776 302.804 102.376 302.528 103 302.528C103.828 302.528 104.116 303.032 104.152 303.692C101.44 303.98 100.276 304.736 100.276 306.176C100.276 307.316 101.068 308.168 102.268 308.168ZM102.844 306.788C102.328 306.788 101.956 306.56 101.956 306.032C101.956 305.432 102.508 304.976 104.152 304.772V306.128C103.72 306.548 103.348 306.788 102.844 306.788ZM109.706 308.168C110.618 308.168 111.266 307.724 111.842 307.04H111.89L112.022 308H113.462V301.28H111.698V305.816C111.242 306.416 110.882 306.656 110.33 306.656C109.682 306.656 109.394 306.284 109.394 305.252V301.28H107.63V305.48C107.63 307.16 108.254 308.168 109.706 308.168ZM116.999 308.168C117.419 308.168 117.707 308.096 117.911 308.012L117.695 306.704C117.575 306.728 117.527 306.728 117.455 306.728C117.287 306.728 117.107 306.596 117.107 306.188V298.424H115.343V306.116C115.343 307.364 115.775 308.168 116.999 308.168ZM121.588 308.168C122.176 308.168 122.644 308.036 123.004 307.916L122.716 306.632C122.536 306.704 122.272 306.776 122.056 306.776C121.456 306.776 121.144 306.416 121.144 305.648V302.672H122.8V301.28H121.144V299.468H119.68L119.476 301.28L118.432 301.364V302.672H119.38V305.648C119.38 307.148 119.992 308.168 121.588 308.168Z" fill="black"/>
<path d="M135.188 308H136.232L136.556 305.396H138.056L137.744 308H138.8L139.112 305.396H140.396V304.256H139.244L139.448 302.612H140.672V301.46H139.592L139.868 299.144H138.836L138.536 301.46H137.024L137.3 299.144H136.28L135.98 301.46H134.744V302.612H135.836L135.632 304.256H134.468V305.396H135.5L135.188 308ZM136.676 304.256L136.88 302.612H138.392L138.188 304.256H136.676ZM143.166 302.048C143.166 301.016 143.706 300.512 144.366 300.512C145.098 300.512 145.698 301.064 145.878 302.516C145.47 303.188 144.906 303.464 144.438 303.464C143.658 303.464 143.166 303.02 143.166 302.048ZM144.102 308.168C145.89 308.168 147.534 306.74 147.534 303.44C147.534 300.464 146.022 299.18 144.342 299.18C142.818 299.18 141.546 300.284 141.546 302.048C141.546 303.86 142.614 304.724 144.102 304.724C144.678 304.724 145.434 304.364 145.926 303.752C145.854 305.984 145.014 306.728 143.994 306.728C143.478 306.728 142.938 306.452 142.626 306.092L141.69 307.16C142.206 307.7 143.01 308.168 144.102 308.168ZM152.009 308.168C152.837 308.168 153.689 307.88 154.349 307.424L153.749 306.344C153.269 306.644 152.789 306.812 152.237 306.812C151.241 306.812 150.521 306.236 150.377 305.132H154.517C154.565 304.976 154.601 304.652 154.601 304.316C154.601 302.468 153.641 301.112 151.793 301.112C150.197 301.112 148.661 302.468 148.661 304.64C148.661 306.86 150.125 308.168 152.009 308.168ZM150.353 303.956C150.485 302.984 151.109 302.48 151.817 302.48C152.681 302.48 153.089 303.056 153.089 303.956H150.353ZM157.205 302.048C157.205 301.016 157.745 300.512 158.405 300.512C159.137 300.512 159.737 301.064 159.917 302.516C159.509 303.188 158.945 303.464 158.477 303.464C157.697 303.464 157.205 303.02 157.205 302.048ZM158.141 308.168C159.929 308.168 161.573 306.74 161.573 303.44C161.573 300.464 160.061 299.18 158.381 299.18C156.857 299.18 155.585 300.284 155.585 302.048C155.585 303.86 156.653 304.724 158.141 304.724C158.717 304.724 159.473 304.364 159.965 303.752C159.893 305.984 159.053 306.728 158.033 306.728C157.517 306.728 156.977 306.452 156.665 306.092L155.729 307.16C156.245 307.7 157.049 308.168 158.141 308.168ZM166.048 308.168C166.876 308.168 167.728 307.88 168.388 307.424L167.788 306.344C167.308 306.644 166.828 306.812 166.276 306.812C165.28 306.812 164.56 306.236 164.416 305.132H168.556C168.604 304.976 168.64 304.652 168.64 304.316C168.64 302.468 167.68 301.112 165.832 301.112C164.236 301.112 162.7 302.468 162.7 304.64C162.7 306.86 164.164 308.168 166.048 308.168ZM164.392 303.956C164.524 302.984 165.148 302.48 165.856 302.48C166.72 302.48 167.128 303.056 167.128 303.956H164.392ZM171.245 302.048C171.245 301.016 171.785 300.512 172.445 300.512C173.177 300.512 173.777 301.064 173.957 302.516C173.549 303.188 172.985 303.464 172.517 303.464C171.737 303.464 171.245 303.02 171.245 302.048ZM172.181 308.168C173.969 308.168 175.613 306.74 175.613 303.44C175.613 300.464 174.101 299.18 172.421 299.18C170.897 299.18 169.625 300.284 169.625 302.048C169.625 303.86 170.693 304.724 172.181 304.724C172.757 304.724 173.513 304.364 174.005 303.752C173.933 305.984 173.093 306.728 172.073 306.728C171.557 306.728 171.017 306.452 170.705 306.092L169.769 307.16C170.285 307.7 171.089 308.168 172.181 308.168ZM180.087 308.168C180.915 308.168 181.767 307.88 182.427 307.424L181.827 306.344C181.347 306.644 180.867 306.812 180.315 306.812C179.319 306.812 178.599 306.236 178.455 305.132H182.595C182.643 304.976 182.679 304.652 182.679 304.316C182.679 302.468 181.719 301.112 179.871 301.112C178.275 301.112 176.739 302.468 176.739 304.64C176.739 306.86 178.203 308.168 180.087 308.168ZM178.431 303.956C178.563 302.984 179.187 302.48 179.895 302.48C180.759 302.48 181.167 303.056 181.167 303.956H178.431Z" fill="#9E9E9E"/>
<path d="M96 328H83.83L89.42 322.41L88 321L80 329L88 337L89.41 335.59L83.83 330H96V328Z" fill="#9E9E9E"/>
<path d="M106 330L118.17 330L112.58 335.59L114 337L122 329L114 321L112.59 322.41L118.17 328L106 328L106 330Z" fill="#9E9E9E"/>
<path d="M288 325.8H291.429V337H288V325.8ZM294.4 321H297.6V337H294.4V321V321ZM300.8 330.143H304V337H300.8V330.143Z" fill="#9E9E9E"/>
<path d="M95.3546 360.644C93.7223 359.012 91.4822 358 88.9944 358C84.0188 358 80 362.027 80 367C80 371.973 84.0188 376 88.9944 376C93.1932 376 96.6942 373.131 97.6961 369.25H95.3546C94.4315 371.871 91.9325 373.75 88.9944 373.75C85.2683 373.75 82.2401 370.724 82.2401 367C82.2401 363.276 85.2683 360.25 88.9944 360.25C90.863 360.25 92.5291 361.026 93.7448 362.253L90.1201 365.875H98V358L95.3546 360.644Z" fill="#9E9E9E"/>
<path d="M198.113 329.784C198.146 329.528 198.17 329.272 198.17 329C198.17 328.728 198.146 328.472 198.113 328.216L199.848 326.896C200.004 326.776 200.045 326.56 199.947 326.384L198.302 323.616C198.228 323.488 198.088 323.416 197.94 323.416C197.891 323.416 197.841 323.424 197.8 323.44L195.752 324.24C195.325 323.92 194.864 323.656 194.362 323.456L194.05 321.336C194.025 321.144 193.852 321 193.647 321H190.357C190.151 321 189.979 321.144 189.954 321.336L189.641 323.456C189.14 323.656 188.679 323.928 188.252 324.24L186.204 323.44C186.154 323.424 186.105 323.416 186.056 323.416C185.916 323.416 185.776 323.488 185.702 323.616L184.057 326.384C183.95 326.56 184 326.776 184.156 326.896L185.891 328.216C185.858 328.472 185.834 328.736 185.834 329C185.834 329.264 185.858 329.528 185.891 329.784L184.156 331.104C184 331.224 183.958 331.44 184.057 331.616L185.702 334.384C185.776 334.512 185.916 334.584 186.064 334.584C186.113 334.584 186.163 334.576 186.204 334.56L188.252 333.76C188.679 334.08 189.14 334.344 189.641 334.544L189.954 336.664C189.979 336.856 190.151 337 190.357 337H193.647C193.852 337 194.025 336.856 194.05 336.664L194.362 334.544C194.864 334.344 195.325 334.072 195.752 333.76L197.8 334.56C197.849 334.576 197.899 334.584 197.948 334.584C198.088 334.584 198.228 334.512 198.302 334.384L199.947 331.616C200.045 331.44 200.004 331.224 199.848 331.104L198.113 329.784V329.784ZM196.484 328.416C196.517 328.664 196.525 328.832 196.525 329C196.525 329.168 196.509 329.344 196.484 329.584L196.369 330.488L197.101 331.048L197.989 331.72L197.414 332.688L196.369 332.28L195.514 331.944L194.774 332.488C194.42 332.744 194.083 332.936 193.745 333.072L192.874 333.416L192.742 334.32L192.578 335.4H191.426L191.27 334.32L191.138 333.416L190.267 333.072C189.913 332.928 189.584 332.744 189.255 332.504L188.507 331.944L187.635 332.288L186.59 332.696L186.014 331.728L186.903 331.056L187.635 330.496L187.52 329.592C187.495 329.344 187.478 329.16 187.478 329C187.478 328.84 187.495 328.656 187.52 328.416L187.635 327.512L186.903 326.952L186.014 326.28L186.59 325.312L187.635 325.72L188.49 326.056L189.23 325.512C189.584 325.256 189.921 325.064 190.258 324.928L191.13 324.584L191.262 323.68L191.426 322.6H192.569L192.726 323.68L192.857 324.584L193.729 324.928C194.083 325.072 194.412 325.256 194.741 325.496L195.489 326.056L196.361 325.712L197.405 325.304L197.981 326.272L197.101 326.952L196.369 327.512L196.484 328.416ZM192.002 325.8C190.184 325.8 188.712 327.232 188.712 329C188.712 330.768 190.184 332.2 192.002 332.2C193.819 332.2 195.292 330.768 195.292 329C195.292 327.232 193.819 325.8 192.002 325.8ZM192.002 330.6C191.097 330.6 190.357 329.88 190.357 329C190.357 328.12 191.097 327.4 192.002 327.4C192.907 327.4 193.647 328.12 193.647 329C193.647 329.88 192.907 330.6 192.002 330.6Z" fill="#9E9E9E"/>
<path d="M180 361H178C178 358.79 176.21 357 174 357C171.79 357 170 358.79 170 361H168C166.9 361 166 361.9 166 363V375C166 376.1 166.9 377 168 377H180C181.1 377 182 376.1 182 375V363C182 361.9 181.1 361 180 361ZM172 365C172 365.55 171.55 366 171 366C170.45 366 170 365.55 170 365V363H172V365ZM174 359C175.1 359 176 359.9 176 361H172C172 359.9 172.9 359 174 359ZM178 365C178 365.55 177.55 366 177 366C176.45 366 176 365.55 176 365V363H178V365Z" fill="#9E9E9E"/>
<path d="M117 358C112.032 358 108 362.032 108 367C108 371.968 112.032 376 117 376C121.968 376 126 371.968 126 367C126 362.032 121.968 358 117 358ZM109.8 367C109.8 363.022 113.022 359.8 117 359.8C118.665 359.8 120.195 360.367 121.41 361.321L111.321 371.41C110.367 370.195 109.8 368.665 109.8 367ZM117 374.2C115.335 374.2 113.805 373.633 112.59 372.679L122.679 362.59C123.633 363.805 124.2 365.335 124.2 367C124.2 370.978 120.978 374.2 117 374.2Z" fill="#9E9E9E"/>
<path d="M172.222 335.222H159.778V322.778H166V321H159.778C158.8 321 158 321.8 158 322.778V335.222C158 336.2 158.8 337 159.778 337H172.222C173.2 337 174 336.2 174 335.222V329H172.222V335.222Z" fill="#9E9E9E"/>
<path d="M168.489 332.733V330.956H165.289L174 322.244L172.756 321L164.044 329.711V326.511H162.267V332.733H168.489Z" fill="#9E9E9E"/>
<path d="M148 330.143H141.143V337H138.857V330.143H132V327.857H138.857V321H141.143V327.857H148V330.143Z" fill="#9E9E9E"/>
<path d="M202 362.36L208.845 373.316H195.155L202 362.36ZM202 359L192 375H212L202 359ZM202.909 370.789H201.091V372.474H202.909V370.789ZM202.909 365.737H201.091V369.105H202.909V365.737Z" fill="#9E9E9E"/>
<path d="M250.4 322.455H249.6V321H248V322.455H240V321H238.4V322.455H237.6C236.72 322.455 236 323.109 236 323.909V335.545C236 336.345 236.72 337 237.6 337H250.4C251.28 337 252 336.345 252 335.545V323.909C252 323.109 251.28 322.455 250.4 322.455ZM250.4 335.545H237.6V327.545H250.4V335.545ZM250.4 326.091H237.6V323.909H250.4V326.091Z" fill="#9E9E9E"/>
<path d="M276.222 321H263.778C262.8 321 262 321.8 262 322.778V335.222C262 336.2 262.8 337 263.778 337H276.222C277.2 337 278 336.2 278 335.222V322.778C278 321.8 277.2 321 276.222 321ZM276.222 335.222H263.778V322.778H276.222V335.222ZM275.325 326.333L274.071 325.071L268.213 330.929L265.92 328.644L264.658 329.898L268.213 333.444L275.325 326.333Z" fill="#9E9E9E"/>
<path d="M233.789 357H223.684C222.758 357 222 357.818 222 358.818V371.545H223.684V358.818H233.789V357ZM236.316 360.636H227.053C226.126 360.636 225.368 361.455 225.368 362.455V375.182C225.368 376.182 226.126 377 227.053 377H236.316C237.242 377 238 376.182 238 375.182V362.455C238 361.455 237.242 360.636 236.316 360.636ZM236.316 375.182H227.053V362.455H236.316V375.182Z" fill="#9E9E9E"/>
<path d="M154.182 359H137.818C136.818 359 136 359.72 136 360.6V370.2C136 371.08 136.818 371.8 137.818 371.8H144.182L142.364 374.2V375H149.636V374.2L147.818 371.8H154.182C155.182 371.8 156 371.08 156 370.2V360.6C156 359.72 155.182 359 154.182 359ZM154.182 368.6H137.818V360.6H154.182V368.6Z" fill="#9E9E9E"/>
<path d="M224.222 322.778V335.222H211.778V322.778H224.222ZM224.222 321H211.778C210.8 321 210 321.8 210 322.778V335.222C210 336.2 210.8 337 211.778 337H224.222C225.2 337 226 336.2 226 335.222V322.778C226 321.8 225.2 321 224.222 321ZM219.902 328.876L217.236 332.316L215.333 330.013L212.667 333.444H223.333L219.902 328.876Z" fill="#9E9E9E"/>
<path d="M248 375.23L249.805 377L260 367L249.805 357L248 358.77L256.391 367L248 375.23Z" fill="#9E9E9E"/>
</svg>
