<svg width="700" height="112" viewBox="0 0 700 112" fill="none" xmlns="http://www.w3.org/2000/svg">
<path d="M6.91406 12.0156C6.91406 11.5729 6.75781 11.2344 6.44531 11C6.13281 10.7604 5.57031 10.5104 4.75781 10.25C3.94531 9.98438 3.30208 9.72396 2.82812 9.46875C1.53646 8.77083 0.890625 7.83073 0.890625 6.64844C0.890625 6.03385 1.0625 5.48698 1.40625 5.00781C1.75521 4.52344 2.2526 4.14583 2.89844 3.875C3.54948 3.60417 4.27865 3.46875 5.08594 3.46875C5.89844 3.46875 6.6224 3.61719 7.25781 3.91406C7.89323 4.20573 8.38542 4.61979 8.73438 5.15625C9.08854 5.69271 9.26562 6.30208 9.26562 6.98438H6.92188C6.92188 6.46354 6.75781 6.0599 6.42969 5.77344C6.10156 5.48177 5.64062 5.33594 5.04688 5.33594C4.47396 5.33594 4.02865 5.45833 3.71094 5.70312C3.39323 5.94271 3.23438 6.26042 3.23438 6.65625C3.23438 7.02604 3.41927 7.33594 3.78906 7.58594C4.16406 7.83594 4.71354 8.07031 5.4375 8.28906C6.77083 8.6901 7.74219 9.1875 8.35156 9.78125C8.96094 10.375 9.26562 11.1146 9.26562 12C9.26562 12.9844 8.89323 13.7578 8.14844 14.3203C7.40365 14.8776 6.40104 15.1562 5.14062 15.1562C4.26562 15.1562 3.46875 14.9974 2.75 14.6797C2.03125 14.3568 1.48177 13.9167 1.10156 13.3594C0.726562 12.8021 0.539062 12.1562 0.539062 11.4219H2.89062C2.89062 12.6771 3.64062 13.3047 5.14062 13.3047C5.69792 13.3047 6.13281 13.1927 6.44531 12.9688C6.75781 12.7396 6.91406 12.4219 6.91406 12.0156ZM14.7812 8.75L17.1484 3.625H19.7109L15.9766 10.875V15H13.5938V10.875L9.85938 3.625H12.4297L14.7812 8.75ZM26.5234 12.0156C26.5234 11.5729 26.3672 11.2344 26.0547 11C25.7422 10.7604 25.1797 10.5104 24.3672 10.25C23.5547 9.98438 22.9115 9.72396 22.4375 9.46875C21.1458 8.77083 20.5 7.83073 20.5 6.64844C20.5 6.03385 20.6719 5.48698 21.0156 5.00781C21.3646 4.52344 21.862 4.14583 22.5078 3.875C23.1589 3.60417 23.888 3.46875 24.6953 3.46875C25.5078 3.46875 26.2318 3.61719 26.8672 3.91406C27.5026 4.20573 27.9948 4.61979 28.3438 5.15625C28.6979 5.69271 28.875 6.30208 28.875 6.98438H26.5312C26.5312 6.46354 26.3672 6.0599 26.0391 5.77344C25.7109 5.48177 25.25 5.33594 24.6562 5.33594C24.0833 5.33594 23.638 5.45833 23.3203 5.70312C23.0026 5.94271 22.8438 6.26042 22.8438 6.65625C22.8438 7.02604 23.0286 7.33594 23.3984 7.58594C23.7734 7.83594 24.3229 8.07031 25.0469 8.28906C26.3802 8.6901 27.3516 9.1875 27.9609 9.78125C28.5703 10.375 28.875 11.1146 28.875 12C28.875 12.9844 28.5026 13.7578 27.7578 14.3203C27.013 14.8776 26.0104 15.1562 24.75 15.1562C23.875 15.1562 23.0781 14.9974 22.3594 14.6797C21.6406 14.3568 21.0911 13.9167 20.7109 13.3594C20.3359 12.8021 20.1484 12.1562 20.1484 11.4219H22.5C22.5 12.6771 23.25 13.3047 24.75 13.3047C25.3073 13.3047 25.7422 13.1927 26.0547 12.9688C26.3672 12.7396 26.5234 12.4219 26.5234 12.0156ZM39.0312 5.52344H35.5469V15H33.2031V5.52344H29.7656V3.625H39.0312V5.52344ZM47.2188 10.0703H42.7188V13.1172H48V15H40.375V3.625H47.9844V5.52344H42.7188V8.23438H47.2188V10.0703ZM52.4375 3.625L55.3594 11.875L58.2656 3.625H61.3438V15H58.9922V11.8906L59.2266 6.52344L56.1562 15H54.5469L51.4844 6.53125L51.7188 11.8906V15H49.375V3.625H52.4375ZM76.3047 11.2109C76.2161 12.4349 75.763 13.3984 74.9453 14.1016C74.1328 14.8047 73.0599 15.1562 71.7266 15.1562C70.2682 15.1562 69.1198 14.6667 68.2812 13.6875C67.4479 12.7031 67.0312 11.3542 67.0312 9.64062V8.94531C67.0312 7.85156 67.224 6.88802 67.6094 6.05469C67.9948 5.22135 68.5443 4.58333 69.2578 4.14062C69.9766 3.69271 70.8099 3.46875 71.7578 3.46875C73.0703 3.46875 74.1276 3.82031 74.9297 4.52344C75.7318 5.22656 76.1953 6.21354 76.3203 7.48438H73.9766C73.9193 6.75 73.7135 6.21875 73.3594 5.89062C73.0104 5.55729 72.4766 5.39062 71.7578 5.39062C70.9766 5.39062 70.3906 5.67188 70 6.23438C69.6146 6.79167 69.4167 7.65885 69.4062 8.83594V9.69531C69.4062 10.9245 69.5911 11.8229 69.9609 12.3906C70.3359 12.9583 70.9245 13.2422 71.7266 13.2422C72.4505 13.2422 72.9896 13.0781 73.3438 12.75C73.7031 12.4167 73.9089 11.9036 73.9609 11.2109H76.3047ZM87.1875 9.57031C87.1875 10.6901 86.9896 11.6719 86.5938 12.5156C86.1979 13.3594 85.6302 14.0104 84.8906 14.4688C84.1562 14.9271 83.3125 15.1562 82.3594 15.1562C81.4167 15.1562 80.5755 14.9297 79.8359 14.4766C79.0964 14.0234 78.5234 13.3776 78.1172 12.5391C77.7109 11.6953 77.5052 10.7266 77.5 9.63281V9.07031C77.5 7.95052 77.7005 6.96615 78.1016 6.11719C78.5078 5.26302 79.0781 4.60938 79.8125 4.15625C80.5521 3.69792 81.3958 3.46875 82.3438 3.46875C83.2917 3.46875 84.1328 3.69792 84.8672 4.15625C85.6068 4.60938 86.1771 5.26302 86.5781 6.11719C86.9844 6.96615 87.1875 7.94792 87.1875 9.0625V9.57031ZM84.8125 9.05469C84.8125 7.86198 84.599 6.95573 84.1719 6.33594C83.7448 5.71615 83.1354 5.40625 82.3438 5.40625C81.5573 5.40625 80.9505 5.71354 80.5234 6.32812C80.0964 6.9375 79.8802 7.83333 79.875 9.01562V9.57031C79.875 10.7318 80.0885 11.6328 80.5156 12.2734C80.9427 12.9141 81.5573 13.2344 82.3594 13.2344C83.1458 13.2344 83.75 12.9271 84.1719 12.3125C84.5938 11.6927 84.8073 10.7917 84.8125 9.60938V9.05469ZM91.2344 13.1172H96.2109V15H88.8906V3.625H91.2344V13.1172ZM106.406 9.57031C106.406 10.6901 106.208 11.6719 105.812 12.5156C105.417 13.3594 104.849 14.0104 104.109 14.4688C103.375 14.9271 102.531 15.1562 101.578 15.1562C100.635 15.1562 99.7943 14.9297 99.0547 14.4766C98.3151 14.0234 97.7422 13.3776 97.3359 12.5391C96.9297 11.6953 96.724 10.7266 96.7188 9.63281V9.07031C96.7188 7.95052 96.9193 6.96615 97.3203 6.11719C97.7266 5.26302 98.2969 4.60938 99.0312 4.15625C99.7708 3.69792 100.615 3.46875 101.562 3.46875C102.51 3.46875 103.352 3.69792 104.086 4.15625C104.826 4.60938 105.396 5.26302 105.797 6.11719C106.203 6.96615 106.406 7.94792 106.406 9.0625V9.57031ZM104.031 9.05469C104.031 7.86198 103.818 6.95573 103.391 6.33594C102.964 5.71615 102.354 5.40625 101.562 5.40625C100.776 5.40625 100.169 5.71354 99.7422 6.32812C99.3151 6.9375 99.099 7.83333 99.0938 9.01562V9.57031C99.0938 10.7318 99.3073 11.6328 99.7344 12.2734C100.161 12.9141 100.776 13.2344 101.578 13.2344C102.365 13.2344 102.969 12.9271 103.391 12.3125C103.812 11.6927 104.026 10.7917 104.031 9.60938V9.05469ZM112.32 10.8359H110.453V15H108.109V3.625H112.336C113.68 3.625 114.716 3.92448 115.445 4.52344C116.174 5.1224 116.539 5.96875 116.539 7.0625C116.539 7.83854 116.37 8.48698 116.031 9.00781C115.698 9.52344 115.19 9.9349 114.508 10.2422L116.969 14.8906V15H114.453L112.32 10.8359ZM110.453 8.9375H112.344C112.932 8.9375 113.388 8.78906 113.711 8.49219C114.034 8.1901 114.195 7.77604 114.195 7.25C114.195 6.71354 114.042 6.29167 113.734 5.98438C113.432 5.67708 112.966 5.52344 112.336 5.52344H110.453V8.9375ZM124.227 12.0156C124.227 11.5729 124.07 11.2344 123.758 11C123.445 10.7604 122.883 10.5104 122.07 10.25C121.258 9.98438 120.615 9.72396 120.141 9.46875C118.849 8.77083 118.203 7.83073 118.203 6.64844C118.203 6.03385 118.375 5.48698 118.719 5.00781C119.068 4.52344 119.565 4.14583 120.211 3.875C120.862 3.60417 121.591 3.46875 122.398 3.46875C123.211 3.46875 123.935 3.61719 124.57 3.91406C125.206 4.20573 125.698 4.61979 126.047 5.15625C126.401 5.69271 126.578 6.30208 126.578 6.98438H124.234C124.234 6.46354 124.07 6.0599 123.742 5.77344C123.414 5.48177 122.953 5.33594 122.359 5.33594C121.786 5.33594 121.341 5.45833 121.023 5.70312C120.706 5.94271 120.547 6.26042 120.547 6.65625C120.547 7.02604 120.732 7.33594 121.102 7.58594C121.477 7.83594 122.026 8.07031 122.75 8.28906C124.083 8.6901 125.055 9.1875 125.664 9.78125C126.273 10.375 126.578 11.1146 126.578 12C126.578 12.9844 126.206 13.7578 125.461 14.3203C124.716 14.8776 123.714 15.1562 122.453 15.1562C121.578 15.1562 120.781 14.9974 120.062 14.6797C119.344 14.3568 118.794 13.9167 118.414 13.3594C118.039 12.8021 117.852 12.1562 117.852 11.4219H120.203C120.203 12.6771 120.953 13.3047 122.453 13.3047C123.01 13.3047 123.445 13.1927 123.758 12.9688C124.07 12.7396 124.227 12.4219 124.227 12.0156Z" fill="black"/>
<rect y="39" width="160" height="40" fill="#F16464"/>
<rect x="180" y="39" width="160" height="40" fill="#F5AB35"/>
<rect x="360" y="39" width="160" height="40" fill="#47C1C3"/>
<rect x="540" y="39" width="160" height="40" fill="#00A0E1"/>
<path d="M60.4824 60.5977H58.9355L58.4668 63H57.6289L58.0977 60.5977H56.6973V59.7949H58.25L58.6543 57.7207H57.1426V56.9062H58.8125L59.293 54.4688H60.1309L59.6504 56.9062H61.1973L61.6777 54.4688H62.5215L62.041 56.9062H63.2363V57.7207H61.8828L61.4785 59.7949H62.7969V60.5977H61.3262L60.8574 63H60.0137L60.4824 60.5977ZM59.0879 59.7949H60.6348L61.0391 57.7207H59.4922L59.0879 59.7949ZM69.0898 59.2324H65.5098V63H64.3848V54.4688H69.6699V55.3945H65.5098V58.3125H69.0898V59.2324ZM74.2988 63H73.209V55.7754L71.0234 56.5781V55.5938L74.1289 54.4277H74.2988V63ZM81.7285 54.4629V55.3828H81.5293C80.6855 55.3984 80.0137 55.6484 79.5137 56.1328C79.0137 56.6172 78.7246 57.2988 78.6465 58.1777C79.0957 57.6621 79.709 57.4043 80.4863 57.4043C81.2285 57.4043 81.8203 57.666 82.2617 58.1895C82.707 58.7129 82.9297 59.3887 82.9297 60.2168C82.9297 61.0957 82.6895 61.7988 82.209 62.3262C81.7324 62.8535 81.0918 63.1172 80.2871 63.1172C79.4707 63.1172 78.8086 62.8047 78.3008 62.1797C77.793 61.5508 77.5391 60.7422 77.5391 59.7539V59.3379C77.5391 57.7676 77.873 56.5684 78.541 55.7402C79.2129 54.9082 80.2109 54.4824 81.5352 54.4629H81.7285ZM80.3047 58.3066C79.9336 58.3066 79.5918 58.418 79.2793 58.6406C78.9668 58.8633 78.75 59.1426 78.6289 59.4785V59.877C78.6289 60.5801 78.7871 61.1465 79.1035 61.5762C79.4199 62.0059 79.8145 62.2207 80.2871 62.2207C80.7754 62.2207 81.1582 62.041 81.4355 61.6816C81.7168 61.3223 81.8574 60.8516 81.8574 60.2695C81.8574 59.6836 81.7148 59.2109 81.4297 58.8516C81.1484 58.4883 80.7734 58.3066 80.3047 58.3066ZM88.7891 60.1348H89.9727V61.0195H88.7891V63H87.6992V61.0195H83.8145V60.3809L87.6348 54.4688H88.7891V60.1348ZM85.0449 60.1348H87.6992V55.9512L87.5703 56.1855L85.0449 60.1348ZM95.2051 54.4629V55.3828H95.0059C94.1621 55.3984 93.4902 55.6484 92.9902 56.1328C92.4902 56.6172 92.2012 57.2988 92.123 58.1777C92.5723 57.6621 93.1855 57.4043 93.9629 57.4043C94.7051 57.4043 95.2969 57.666 95.7383 58.1895C96.1836 58.7129 96.4062 59.3887 96.4062 60.2168C96.4062 61.0957 96.166 61.7988 95.6855 62.3262C95.209 62.8535 94.5684 63.1172 93.7637 63.1172C92.9473 63.1172 92.2852 62.8047 91.7773 62.1797C91.2695 61.5508 91.0156 60.7422 91.0156 59.7539V59.3379C91.0156 57.7676 91.3496 56.5684 92.0176 55.7402C92.6895 54.9082 93.6875 54.4824 95.0117 54.4629H95.2051ZM93.7812 58.3066C93.4102 58.3066 93.0684 58.418 92.7559 58.6406C92.4434 58.8633 92.2266 59.1426 92.1055 59.4785V59.877C92.1055 60.5801 92.2637 61.1465 92.5801 61.5762C92.8965 62.0059 93.291 62.2207 93.7637 62.2207C94.252 62.2207 94.6348 62.041 94.9121 61.6816C95.1934 61.3223 95.334 60.8516 95.334 60.2695C95.334 59.6836 95.1914 59.2109 94.9062 58.8516C94.625 58.4883 94.25 58.3066 93.7812 58.3066ZM102.266 60.1348H103.449V61.0195H102.266V63H101.176V61.0195H97.291V60.3809L101.111 54.4688H102.266V60.1348ZM98.5215 60.1348H101.176V55.9512L101.047 56.1855L98.5215 60.1348Z" fill="black"/>
<path d="M240.482 60.5977H238.936L238.467 63H237.629L238.098 60.5977H236.697V59.7949H238.25L238.654 57.7207H237.143V56.9062H238.812L239.293 54.4688H240.131L239.65 56.9062H241.197L241.678 54.4688H242.521L242.041 56.9062H243.236V57.7207H241.883L241.479 59.7949H242.797V60.5977H241.326L240.857 63H240.014L240.482 60.5977ZM239.088 59.7949H240.635L241.039 57.7207H239.492L239.088 59.7949ZM249.09 59.2324H245.51V63H244.385V54.4688H249.67V55.3945H245.51V58.3125H249.09V59.2324ZM251.234 58.7227L251.668 54.4688H256.039V55.4707H252.588L252.33 57.7969C252.748 57.5508 253.223 57.4277 253.754 57.4277C254.531 57.4277 255.148 57.6855 255.605 58.2012C256.062 58.7129 256.291 59.4062 256.291 60.2812C256.291 61.1602 256.053 61.8535 255.576 62.3613C255.104 62.8652 254.441 63.1172 253.59 63.1172C252.836 63.1172 252.221 62.9082 251.744 62.4902C251.268 62.0723 250.996 61.4941 250.93 60.7559H251.955C252.021 61.2441 252.195 61.6133 252.477 61.8633C252.758 62.1094 253.129 62.2324 253.59 62.2324C254.094 62.2324 254.488 62.0605 254.773 61.7168C255.062 61.373 255.207 60.8984 255.207 60.293C255.207 59.7227 255.051 59.2656 254.738 58.9219C254.43 58.5742 254.018 58.4004 253.502 58.4004C253.029 58.4004 252.658 58.5039 252.389 58.7109L252.102 58.9453L251.234 58.7227ZM262.467 60.7734H258.893L258.09 63H256.93L260.188 54.4688H261.172L264.436 63H263.281L262.467 60.7734ZM259.232 59.8477H262.133L260.68 55.8574L259.232 59.8477ZM265.584 63V54.4688H268.373C269.299 54.4688 269.994 54.6602 270.459 55.043C270.928 55.4258 271.162 55.9922 271.162 56.7422C271.162 57.1406 271.049 57.4941 270.822 57.8027C270.596 58.1074 270.287 58.3438 269.896 58.5117C270.357 58.6406 270.721 58.8867 270.986 59.25C271.256 59.6094 271.391 60.0391 271.391 60.5391C271.391 61.3047 271.143 61.9062 270.646 62.3438C270.15 62.7812 269.449 63 268.543 63H265.584ZM266.709 59.0098V62.0801H268.566C269.09 62.0801 269.502 61.9453 269.803 61.6758C270.107 61.4023 270.26 61.0273 270.26 60.5508C270.26 59.5234 269.701 59.0098 268.584 59.0098H266.709ZM266.709 58.1074H268.408C268.9 58.1074 269.293 57.9844 269.586 57.7383C269.883 57.4922 270.031 57.1582 270.031 56.7363C270.031 56.2676 269.895 55.9277 269.621 55.7168C269.348 55.502 268.932 55.3945 268.373 55.3945H266.709V58.1074ZM274.355 58.207H275.17C275.682 58.1992 276.084 58.0645 276.377 57.8027C276.67 57.541 276.816 57.1875 276.816 56.7422C276.816 55.7422 276.318 55.2422 275.322 55.2422C274.854 55.2422 274.479 55.377 274.197 55.6465C273.92 55.9121 273.781 56.2656 273.781 56.707H272.697C272.697 56.0312 272.943 55.4707 273.436 55.0254C273.932 54.5762 274.561 54.3516 275.322 54.3516C276.127 54.3516 276.758 54.5645 277.215 54.9902C277.672 55.416 277.9 56.0078 277.9 56.7656C277.9 57.1367 277.779 57.4961 277.537 57.8438C277.299 58.1914 276.973 58.4512 276.559 58.623C277.027 58.7715 277.389 59.0176 277.643 59.3613C277.9 59.7051 278.029 60.125 278.029 60.6211C278.029 61.3867 277.779 61.9941 277.279 62.4434C276.779 62.8926 276.129 63.1172 275.328 63.1172C274.527 63.1172 273.875 62.9004 273.371 62.4668C272.871 62.0332 272.621 61.4609 272.621 60.75H273.711C273.711 61.1992 273.857 61.5586 274.15 61.8281C274.443 62.0977 274.836 62.2324 275.328 62.2324C275.852 62.2324 276.252 62.0957 276.529 61.8223C276.807 61.5488 276.945 61.1562 276.945 60.6445C276.945 60.1484 276.793 59.7676 276.488 59.502C276.184 59.2363 275.744 59.0996 275.17 59.0918H274.355V58.207ZM280.016 58.7227L280.449 54.4688H284.82V55.4707H281.369L281.111 57.7969C281.529 57.5508 282.004 57.4277 282.535 57.4277C283.312 57.4277 283.93 57.6855 284.387 58.2012C284.844 58.7129 285.072 59.4062 285.072 60.2812C285.072 61.1602 284.834 61.8535 284.357 62.3613C283.885 62.8652 283.223 63.1172 282.371 63.1172C281.617 63.1172 281.002 62.9082 280.525 62.4902C280.049 62.0723 279.777 61.4941 279.711 60.7559H280.736C280.803 61.2441 280.977 61.6133 281.258 61.8633C281.539 62.1094 281.91 62.2324 282.371 62.2324C282.875 62.2324 283.27 62.0605 283.555 61.7168C283.844 61.373 283.988 60.8984 283.988 60.293C283.988 59.7227 283.832 59.2656 283.52 58.9219C283.211 58.5742 282.799 58.4004 282.283 58.4004C281.811 58.4004 281.439 58.5039 281.17 58.7109L280.883 58.9453L280.016 58.7227Z" fill="black"/>
<path d="M420.482 60.5977H418.936L418.467 63H417.629L418.098 60.5977H416.697V59.7949H418.25L418.654 57.7207H417.143V56.9062H418.812L419.293 54.4688H420.131L419.65 56.9062H421.197L421.678 54.4688H422.521L422.041 56.9062H423.236V57.7207H421.883L421.479 59.7949H422.797V60.5977H421.326L420.857 63H420.014L420.482 60.5977ZM419.088 59.7949H420.635L421.039 57.7207H419.492L419.088 59.7949ZM428.68 60.1348H429.863V61.0195H428.68V63H427.59V61.0195H423.705V60.3809L427.525 54.4688H428.68V60.1348ZM424.936 60.1348H427.59V55.9512L427.461 56.1855L424.936 60.1348ZM436.35 55.0781L432.816 63H431.68L435.201 55.3594H430.584V54.4688H436.35V55.0781ZM444.137 60.293C444.031 61.1953 443.697 61.8926 443.135 62.3848C442.576 62.873 441.832 63.1172 440.902 63.1172C439.895 63.1172 439.086 62.7559 438.477 62.0332C437.871 61.3105 437.568 60.3438 437.568 59.1328V58.3125C437.568 57.5195 437.709 56.8223 437.99 56.2207C438.275 55.6191 438.678 55.1582 439.197 54.8379C439.717 54.5137 440.318 54.3516 441.002 54.3516C441.908 54.3516 442.635 54.6055 443.182 55.1133C443.729 55.6172 444.047 56.3164 444.137 57.2109H443.006C442.908 56.5312 442.695 56.0391 442.367 55.7344C442.043 55.4297 441.588 55.2773 441.002 55.2773C440.283 55.2773 439.719 55.543 439.309 56.0742C438.902 56.6055 438.699 57.3613 438.699 58.3418V59.168C438.699 60.0938 438.893 60.8301 439.279 61.377C439.666 61.9238 440.207 62.1973 440.902 62.1973C441.527 62.1973 442.006 62.0566 442.338 61.7754C442.674 61.4902 442.896 60.9961 443.006 60.293H444.137ZM448.959 63H447.869V55.7754L445.684 56.5781V55.5938L448.789 54.4277H448.959V63ZM458.691 60.293C458.586 61.1953 458.252 61.8926 457.689 62.3848C457.131 62.873 456.387 63.1172 455.457 63.1172C454.449 63.1172 453.641 62.7559 453.031 62.0332C452.426 61.3105 452.123 60.3438 452.123 59.1328V58.3125C452.123 57.5195 452.264 56.8223 452.545 56.2207C452.83 55.6191 453.232 55.1582 453.752 54.8379C454.271 54.5137 454.873 54.3516 455.557 54.3516C456.463 54.3516 457.189 54.6055 457.736 55.1133C458.283 55.6172 458.602 56.3164 458.691 57.2109H457.561C457.463 56.5312 457.25 56.0391 456.922 55.7344C456.598 55.4297 456.143 55.2773 455.557 55.2773C454.838 55.2773 454.273 55.543 453.863 56.0742C453.457 56.6055 453.254 57.3613 453.254 58.3418V59.168C453.254 60.0938 453.447 60.8301 453.834 61.377C454.221 61.9238 454.762 62.1973 455.457 62.1973C456.082 62.1973 456.561 62.0566 456.893 61.7754C457.229 61.4902 457.451 60.9961 457.561 60.293H458.691ZM461.527 58.207H462.342C462.854 58.1992 463.256 58.0645 463.549 57.8027C463.842 57.541 463.988 57.1875 463.988 56.7422C463.988 55.7422 463.49 55.2422 462.494 55.2422C462.025 55.2422 461.65 55.377 461.369 55.6465C461.092 55.9121 460.953 56.2656 460.953 56.707H459.869C459.869 56.0312 460.115 55.4707 460.607 55.0254C461.104 54.5762 461.732 54.3516 462.494 54.3516C463.299 54.3516 463.93 54.5645 464.387 54.9902C464.844 55.416 465.072 56.0078 465.072 56.7656C465.072 57.1367 464.951 57.4961 464.709 57.8438C464.471 58.1914 464.145 58.4512 463.73 58.623C464.199 58.7715 464.561 59.0176 464.814 59.3613C465.072 59.7051 465.201 60.125 465.201 60.6211C465.201 61.3867 464.951 61.9941 464.451 62.4434C463.951 62.8926 463.301 63.1172 462.5 63.1172C461.699 63.1172 461.047 62.9004 460.543 62.4668C460.043 62.0332 459.793 61.4609 459.793 60.75H460.883C460.883 61.1992 461.029 61.5586 461.322 61.8281C461.615 62.0977 462.008 62.2324 462.5 62.2324C463.023 62.2324 463.424 62.0957 463.701 61.8223C463.979 61.5488 464.117 61.1562 464.117 60.6445C464.117 60.1484 463.965 59.7676 463.66 59.502C463.355 59.2363 462.916 59.0996 462.342 59.0918H461.527V58.207Z" fill="black"/>
<path d="M600.482 60.5977H598.936L598.467 63H597.629L598.098 60.5977H596.697V59.7949H598.25L598.654 57.7207H597.143V56.9062H598.812L599.293 54.4688H600.131L599.65 56.9062H601.197L601.678 54.4688H602.521L602.041 56.9062H603.236V57.7207H601.883L601.479 59.7949H602.797V60.5977H601.326L600.857 63H600.014L600.482 60.5977ZM599.088 59.7949H600.635L601.039 57.7207H599.492L599.088 59.7949ZM609.453 59.3613C609.453 60.6309 609.236 61.5742 608.803 62.1914C608.369 62.8086 607.691 63.1172 606.77 63.1172C605.859 63.1172 605.186 62.8164 604.748 62.2148C604.311 61.6094 604.084 60.707 604.068 59.5078V58.0605C604.068 56.8066 604.285 55.875 604.719 55.2656C605.152 54.6562 605.832 54.3516 606.758 54.3516C607.676 54.3516 608.352 54.6465 608.785 55.2363C609.219 55.8223 609.441 56.7285 609.453 57.9551V59.3613ZM608.369 57.8789C608.369 56.9609 608.24 56.293 607.982 55.875C607.725 55.4531 607.316 55.2422 606.758 55.2422C606.203 55.2422 605.799 55.4512 605.545 55.8691C605.291 56.2871 605.16 56.9297 605.152 57.7969V59.5312C605.152 60.4531 605.285 61.1348 605.551 61.5762C605.82 62.0137 606.227 62.2324 606.77 62.2324C607.305 62.2324 607.701 62.0254 607.959 61.6113C608.221 61.1973 608.357 60.5449 608.369 59.6543V57.8789ZM616.191 59.3613C616.191 60.6309 615.975 61.5742 615.541 62.1914C615.107 62.8086 614.43 63.1172 613.508 63.1172C612.598 63.1172 611.924 62.8164 611.486 62.2148C611.049 61.6094 610.822 60.707 610.807 59.5078V58.0605C610.807 56.8066 611.023 55.875 611.457 55.2656C611.891 54.6562 612.57 54.3516 613.496 54.3516C614.414 54.3516 615.09 54.6465 615.523 55.2363C615.957 55.8223 616.18 56.7285 616.191 57.9551V59.3613ZM615.107 57.8789C615.107 56.9609 614.979 56.293 614.721 55.875C614.463 55.4531 614.055 55.2422 613.496 55.2422C612.941 55.2422 612.537 55.4512 612.283 55.8691C612.029 56.2871 611.898 56.9297 611.891 57.7969V59.5312C611.891 60.4531 612.023 61.1348 612.289 61.5762C612.559 62.0137 612.965 62.2324 613.508 62.2324C614.043 62.2324 614.439 62.0254 614.697 61.6113C614.959 61.1973 615.096 60.5449 615.107 59.6543V57.8789ZM622.572 60.7734H618.998L618.195 63H617.035L620.293 54.4688H621.277L624.541 63H623.387L622.572 60.7734ZM619.338 59.8477H622.238L620.785 55.8574L619.338 59.8477ZM630.758 59.3613C630.758 60.6309 630.541 61.5742 630.107 62.1914C629.674 62.8086 628.996 63.1172 628.074 63.1172C627.164 63.1172 626.49 62.8164 626.053 62.2148C625.615 61.6094 625.389 60.707 625.373 59.5078V58.0605C625.373 56.8066 625.59 55.875 626.023 55.2656C626.457 54.6562 627.137 54.3516 628.062 54.3516C628.98 54.3516 629.656 54.6465 630.09 55.2363C630.523 55.8223 630.746 56.7285 630.758 57.9551V59.3613ZM629.674 57.8789C629.674 56.9609 629.545 56.293 629.287 55.875C629.029 55.4531 628.621 55.2422 628.062 55.2422C627.508 55.2422 627.104 55.4512 626.85 55.8691C626.596 56.2871 626.465 56.9297 626.457 57.7969V59.5312C626.457 60.4531 626.59 61.1348 626.855 61.5762C627.125 62.0137 627.531 62.2324 628.074 62.2324C628.609 62.2324 629.006 62.0254 629.264 61.6113C629.525 61.1973 629.662 60.5449 629.674 59.6543V57.8789ZM637.25 59.0566H633.553V62.0801H637.848V63H632.428V54.4688H637.789V55.3945H633.553V58.1367H637.25V59.0566ZM642.529 63H641.439V55.7754L639.254 56.5781V55.5938L642.359 54.4277H642.529V63Z" fill="black"/>
<path d="M13.1191 91.5488H11.1152V95H9.98438V86.4688H12.8086C13.7695 86.4688 14.5078 86.6875 15.0234 87.125C15.543 87.5625 15.8027 88.1992 15.8027 89.0352C15.8027 89.5664 15.6582 90.0293 15.3691 90.4238C15.084 90.8184 14.6855 91.1133 14.1738 91.3086L16.1777 94.9297V95H14.9707L13.1191 91.5488ZM11.1152 90.6289H12.8438C13.4023 90.6289 13.8457 90.4844 14.1738 90.1953C14.5059 89.9062 14.6719 89.5195 14.6719 89.0352C14.6719 88.5078 14.5137 88.1035 14.1973 87.8223C13.8848 87.541 13.4316 87.3984 12.8379 87.3945H11.1152V90.6289ZM19.8457 95.1172C18.9863 95.1172 18.2871 94.8359 17.748 94.2734C17.209 93.707 16.9395 92.9512 16.9395 92.0059V91.8066C16.9395 91.1777 17.0586 90.6172 17.2969 90.125C17.5391 89.6289 17.875 89.2422 18.3047 88.9648C18.7383 88.6836 19.207 88.543 19.7109 88.543C20.5352 88.543 21.1758 88.8145 21.6328 89.3574C22.0898 89.9004 22.3184 90.6777 22.3184 91.6895V92.1406H18.0234C18.0391 92.7656 18.2207 93.2715 18.5684 93.6582C18.9199 94.041 19.3652 94.2324 19.9043 94.2324C20.2871 94.2324 20.6113 94.1543 20.877 93.998C21.1426 93.8418 21.375 93.6348 21.5742 93.377L22.2363 93.8926C21.7051 94.709 20.9082 95.1172 19.8457 95.1172ZM19.7109 89.4336C19.2734 89.4336 18.9062 89.5938 18.6094 89.9141C18.3125 90.2305 18.1289 90.6758 18.0586 91.25H21.2344V91.168C21.2031 90.6172 21.0547 90.1914 20.7891 89.8906C20.5234 89.5859 20.1641 89.4336 19.7109 89.4336ZM24.5977 88.6602L24.627 89.3633C25.0918 88.8164 25.7188 88.543 26.5078 88.543C27.3945 88.543 27.998 88.8828 28.3184 89.5625C28.5293 89.2578 28.8027 89.0117 29.1387 88.8242C29.4785 88.6367 29.8789 88.543 30.3398 88.543C31.7305 88.543 32.4375 89.2793 32.4609 90.752V95H31.377V90.8164C31.377 90.3633 31.2734 90.0254 31.0664 89.8027C30.8594 89.5762 30.5117 89.4629 30.0234 89.4629C29.6211 89.4629 29.2871 89.584 29.0215 89.8262C28.7559 90.0645 28.6016 90.3867 28.5586 90.793V95H27.4688V90.8457C27.4688 89.9238 27.0176 89.4629 26.1152 89.4629C25.4043 89.4629 24.918 89.7656 24.6562 90.3711V95H23.5723V88.6602H24.5977ZM33.8145 91.7715C33.8145 91.1504 33.9355 90.5918 34.1777 90.0957C34.4238 89.5996 34.7637 89.2168 35.1973 88.9473C35.6348 88.6777 36.1328 88.543 36.6914 88.543C37.5547 88.543 38.252 88.8418 38.7832 89.4395C39.3184 90.0371 39.5859 90.832 39.5859 91.8242V91.9004C39.5859 92.5176 39.4668 93.0723 39.2285 93.5645C38.9941 94.0527 38.6562 94.4336 38.2148 94.707C37.7773 94.9805 37.2734 95.1172 36.7031 95.1172C35.8438 95.1172 35.1465 94.8184 34.6113 94.2207C34.0801 93.623 33.8145 92.832 33.8145 91.8477V91.7715ZM34.9043 91.9004C34.9043 92.6035 35.0664 93.168 35.3906 93.5938C35.7188 94.0195 36.1562 94.2324 36.7031 94.2324C37.2539 94.2324 37.6914 94.0176 38.0156 93.5879C38.3398 93.1543 38.502 92.5488 38.502 91.7715C38.502 91.0762 38.3359 90.5137 38.0039 90.084C37.6758 89.6504 37.2383 89.4336 36.6914 89.4336C36.1562 89.4336 35.7246 89.6465 35.3965 90.0723C35.0684 90.498 34.9043 91.1074 34.9043 91.9004ZM42.9434 93.5293L44.5137 88.6602H45.6211L43.3477 95H42.5215L40.2246 88.6602H41.332L42.9434 93.5293ZM49.2129 95.1172C48.3535 95.1172 47.6543 94.8359 47.1152 94.2734C46.5762 93.707 46.3066 92.9512 46.3066 92.0059V91.8066C46.3066 91.1777 46.4258 90.6172 46.6641 90.125C46.9062 89.6289 47.2422 89.2422 47.6719 88.9648C48.1055 88.6836 48.5742 88.543 49.0781 88.543C49.9023 88.543 50.543 88.8145 51 89.3574C51.457 89.9004 51.6855 90.6777 51.6855 91.6895V92.1406H47.3906C47.4062 92.7656 47.5879 93.2715 47.9355 93.6582C48.2871 94.041 48.7324 94.2324 49.2715 94.2324C49.6543 94.2324 49.9785 94.1543 50.2441 93.998C50.5098 93.8418 50.7422 93.6348 50.9414 93.377L51.6035 93.8926C51.0723 94.709 50.2754 95.1172 49.2129 95.1172ZM49.0781 89.4336C48.6406 89.4336 48.2734 89.5938 47.9766 89.9141C47.6797 90.2305 47.4961 90.6758 47.4258 91.25H50.6016V91.168C50.5703 90.6172 50.4219 90.1914 50.1562 89.8906C49.8906 89.5859 49.5312 89.4336 49.0781 89.4336ZM52.9102 96.6992L52.2949 96.2773C52.6621 95.7656 52.8535 95.2383 52.8691 94.6953V93.7168H53.9297V94.5664C53.9297 94.9609 53.832 95.3555 53.6367 95.75C53.4453 96.1445 53.2031 96.4609 52.9102 96.6992ZM63.2695 91.0566H59.5723V94.0801H63.8672V95H58.4473V86.4688H63.8086V87.3945H59.5723V90.1367H63.2695V91.0566ZM68.1621 89.6328C67.998 89.6055 67.8203 89.5918 67.6289 89.5918C66.918 89.5918 66.4355 89.8945 66.1816 90.5V95H65.0977V88.6602H66.1523L66.1699 89.3926C66.5254 88.8262 67.0293 88.543 67.6816 88.543C67.8926 88.543 68.0527 88.5703 68.1621 88.625V89.6328ZM72.2285 89.6328C72.0645 89.6055 71.8867 89.5918 71.6953 89.5918C70.9844 89.5918 70.502 89.8945 70.248 90.5V95H69.1641V88.6602H70.2188L70.2363 89.3926C70.5918 88.8262 71.0957 88.543 71.748 88.543C71.959 88.543 72.1191 88.5703 72.2285 88.625V89.6328ZM72.8262 91.7715C72.8262 91.1504 72.9473 90.5918 73.1895 90.0957C73.4355 89.5996 73.7754 89.2168 74.209 88.9473C74.6465 88.6777 75.1445 88.543 75.7031 88.543C76.5664 88.543 77.2637 88.8418 77.7949 89.4395C78.3301 90.0371 78.5977 90.832 78.5977 91.8242V91.9004C78.5977 92.5176 78.4785 93.0723 78.2402 93.5645C78.0059 94.0527 77.668 94.4336 77.2266 94.707C76.7891 94.9805 76.2852 95.1172 75.7148 95.1172C74.8555 95.1172 74.1582 94.8184 73.623 94.2207C73.0918 93.623 72.8262 92.832 72.8262 91.8477V91.7715ZM73.916 91.9004C73.916 92.6035 74.0781 93.168 74.4023 93.5938C74.7305 94.0195 75.168 94.2324 75.7148 94.2324C76.2656 94.2324 76.7031 94.0176 77.0273 93.5879C77.3516 93.1543 77.5137 92.5488 77.5137 91.7715C77.5137 91.0762 77.3477 90.5137 77.0156 90.084C76.6875 89.6504 76.25 89.4336 75.7031 89.4336C75.168 89.4336 74.7363 89.6465 74.4082 90.0723C74.0801 90.498 73.916 91.1074 73.916 91.9004ZM83.0215 89.6328C82.8574 89.6055 82.6797 89.5918 82.4883 89.5918C81.7773 89.5918 81.2949 89.8945 81.041 90.5V95H79.957V88.6602H81.0117L81.0293 89.3926C81.3848 88.8262 81.8887 88.543 82.541 88.543C82.752 88.543 82.9121 88.5703 83.0215 88.625V89.6328ZM83.2617 96.6992L82.6465 96.2773C83.0137 95.7656 83.2051 95.2383 83.2207 94.6953V93.7168H84.2812V94.5664C84.2812 94.9609 84.1836 95.3555 83.9883 95.75C83.7969 96.1445 83.5547 96.4609 83.2617 96.6992ZM88.7988 95V86.4688H91.5879C92.5137 86.4688 93.209 86.6602 93.6738 87.043C94.1426 87.4258 94.377 87.9922 94.377 88.7422C94.377 89.1406 94.2637 89.4941 94.0371 89.8027C93.8105 90.1074 93.502 90.3438 93.1113 90.5117C93.5723 90.6406 93.9355 90.8867 94.2012 91.25C94.4707 91.6094 94.6055 92.0391 94.6055 92.5391C94.6055 93.3047 94.3574 93.9062 93.8613 94.3438C93.3652 94.7812 92.6641 95 91.7578 95H88.7988ZM89.9238 91.0098V94.0801H91.7812C92.3047 94.0801 92.7168 93.9453 93.0176 93.6758C93.3223 93.4023 93.4746 93.0273 93.4746 92.5508C93.4746 91.5234 92.916 91.0098 91.7988 91.0098H89.9238ZM89.9238 90.1074H91.623C92.1152 90.1074 92.5078 89.9844 92.8008 89.7383C93.0977 89.4922 93.2461 89.1582 93.2461 88.7363C93.2461 88.2676 93.1094 87.9277 92.8359 87.7168C92.5625 87.502 92.1465 87.3945 91.5879 87.3945H89.9238V90.1074ZM100.02 94.373C99.5977 94.8691 98.9785 95.1172 98.1621 95.1172C97.4863 95.1172 96.9707 94.9219 96.6152 94.5312C96.2637 94.1367 96.0859 93.5547 96.082 92.7852V88.6602H97.166V92.7559C97.166 93.7168 97.5566 94.1973 98.3379 94.1973C99.166 94.1973 99.7168 93.8887 99.9902 93.2715V88.6602H101.074V95H100.043L100.02 94.373ZM106.418 93.3184C106.418 93.0254 106.307 92.7988 106.084 92.6387C105.865 92.4746 105.48 92.334 104.93 92.2168C104.383 92.0996 103.947 91.959 103.623 91.7949C103.303 91.6309 103.064 91.4355 102.908 91.209C102.756 90.9824 102.68 90.7129 102.68 90.4004C102.68 89.8809 102.898 89.4414 103.336 89.082C103.777 88.7227 104.34 88.543 105.023 88.543C105.742 88.543 106.324 88.7285 106.77 89.0996C107.219 89.4707 107.443 89.9453 107.443 90.5234H106.354C106.354 90.2266 106.227 89.9707 105.973 89.7559C105.723 89.541 105.406 89.4336 105.023 89.4336C104.629 89.4336 104.32 89.5195 104.098 89.6914C103.875 89.8633 103.764 90.0879 103.764 90.3652C103.764 90.627 103.867 90.8242 104.074 90.957C104.281 91.0898 104.654 91.2168 105.193 91.3379C105.736 91.459 106.176 91.6035 106.512 91.7715C106.848 91.9395 107.096 92.1426 107.256 92.3809C107.42 92.6152 107.502 92.9023 107.502 93.2422C107.502 93.8086 107.275 94.2637 106.822 94.6074C106.369 94.9473 105.781 95.1172 105.059 95.1172C104.551 95.1172 104.102 95.0273 103.711 94.8477C103.32 94.668 103.014 94.418 102.791 94.0977C102.572 93.7734 102.463 93.4238 102.463 93.0488H103.547C103.566 93.4121 103.711 93.7012 103.98 93.916C104.254 94.127 104.613 94.2324 105.059 94.2324C105.469 94.2324 105.797 94.1504 106.043 93.9863C106.293 93.8184 106.418 93.5957 106.418 93.3184ZM110.988 93.4121L112.465 88.6602H113.625L111.076 95.9785C110.682 97.0332 110.055 97.5605 109.195 97.5605L108.99 97.543L108.586 97.4668V96.5879L108.879 96.6113C109.246 96.6113 109.531 96.5371 109.734 96.3887C109.941 96.2402 110.111 95.9688 110.244 95.5742L110.484 94.9297L108.223 88.6602H109.406L110.988 93.4121ZM113.93 96.6992L113.314 96.2773C113.682 95.7656 113.873 95.2383 113.889 94.6953V93.7168H114.949V94.5664C114.949 94.9609 114.852 95.3555 114.656 95.75C114.465 96.1445 114.223 96.4609 113.93 96.6992ZM124.172 91.2324H120.592V95H119.467V86.4688H124.752V87.3945H120.592V90.3125H124.172V91.2324ZM129.645 95C129.582 94.875 129.531 94.6523 129.492 94.332C128.988 94.8555 128.387 95.1172 127.688 95.1172C127.062 95.1172 126.549 94.9414 126.146 94.5898C125.748 94.2344 125.549 93.7852 125.549 93.2422C125.549 92.582 125.799 92.0703 126.299 91.707C126.803 91.3398 127.51 91.1562 128.42 91.1562H129.475V90.6582C129.475 90.2793 129.361 89.9785 129.135 89.7559C128.908 89.5293 128.574 89.416 128.133 89.416C127.746 89.416 127.422 89.5137 127.16 89.709C126.898 89.9043 126.768 90.1406 126.768 90.418H125.678C125.678 90.1016 125.789 89.7969 126.012 89.5039C126.238 89.207 126.543 88.9727 126.926 88.8008C127.312 88.6289 127.736 88.543 128.197 88.543C128.928 88.543 129.5 88.7266 129.914 89.0938C130.328 89.457 130.543 89.959 130.559 90.5996V93.5176C130.559 94.0996 130.633 94.5625 130.781 94.9062V95H129.645ZM127.846 94.1738C128.186 94.1738 128.508 94.0859 128.812 93.9102C129.117 93.7344 129.338 93.5059 129.475 93.2246V91.9238H128.625C127.297 91.9238 126.633 92.3125 126.633 93.0898C126.633 93.4297 126.746 93.6953 126.973 93.8867C127.199 94.0781 127.49 94.1738 127.846 94.1738ZM133.436 95H132.352V88.6602H133.436V95ZM132.264 86.9785C132.264 86.8027 132.316 86.6543 132.422 86.5332C132.531 86.4121 132.691 86.3516 132.902 86.3516C133.113 86.3516 133.273 86.4121 133.383 86.5332C133.492 86.6543 133.547 86.8027 133.547 86.9785C133.547 87.1543 133.492 87.3008 133.383 87.418C133.273 87.5352 133.113 87.5938 132.902 87.5938C132.691 87.5938 132.531 87.5352 132.422 87.418C132.316 87.3008 132.264 87.1543 132.264 86.9785ZM136.354 95H135.27V86H136.354V95ZM140.725 95.1172C139.865 95.1172 139.166 94.8359 138.627 94.2734C138.088 93.707 137.818 92.9512 137.818 92.0059V91.8066C137.818 91.1777 137.938 90.6172 138.176 90.125C138.418 89.6289 138.754 89.2422 139.184 88.9648C139.617 88.6836 140.086 88.543 140.59 88.543C141.414 88.543 142.055 88.8145 142.512 89.3574C142.969 89.9004 143.197 90.6777 143.197 91.6895V92.1406H138.902C138.918 92.7656 139.1 93.2715 139.447 93.6582C139.799 94.041 140.244 94.2324 140.783 94.2324C141.166 94.2324 141.49 94.1543 141.756 93.998C142.021 93.8418 142.254 93.6348 142.453 93.377L143.115 93.8926C142.584 94.709 141.787 95.1172 140.725 95.1172ZM140.59 89.4336C140.152 89.4336 139.785 89.5938 139.488 89.9141C139.191 90.2305 139.008 90.6758 138.938 91.25H142.113V91.168C142.082 90.6172 141.934 90.1914 141.668 89.8906C141.402 89.5859 141.043 89.4336 140.59 89.4336ZM144.193 91.7773C144.193 90.8047 144.424 90.0234 144.885 89.4336C145.346 88.8398 145.949 88.543 146.695 88.543C147.438 88.543 148.025 88.7969 148.459 89.3047V86H149.543V95H148.547L148.494 94.3203C148.061 94.8516 147.457 95.1172 146.684 95.1172C145.949 95.1172 145.35 94.8164 144.885 94.2148C144.424 93.6133 144.193 92.8281 144.193 91.8594V91.7773ZM145.277 91.9004C145.277 92.6191 145.426 93.1816 145.723 93.5879C146.02 93.9941 146.43 94.1973 146.953 94.1973C147.641 94.1973 148.143 93.8887 148.459 93.2715V90.3594C148.135 89.7617 147.637 89.4629 146.965 89.4629C146.434 89.4629 146.02 89.668 145.723 90.0781C145.426 90.4883 145.277 91.0957 145.277 91.9004Z" fill="#F16464"/>
<path d="M240.83 92.3105L240.994 93.4355L241.234 92.4219L242.922 86.4688H243.871L245.518 92.4219L245.752 93.4531L245.934 92.3047L247.258 86.4688H248.389L246.32 95H245.295L243.537 88.7832L243.402 88.1328L243.268 88.7832L241.445 95H240.42L238.357 86.4688H239.482L240.83 92.3105ZM253.188 95C253.125 94.875 253.074 94.6523 253.035 94.332C252.531 94.8555 251.93 95.1172 251.23 95.1172C250.605 95.1172 250.092 94.9414 249.689 94.5898C249.291 94.2344 249.092 93.7852 249.092 93.2422C249.092 92.582 249.342 92.0703 249.842 91.707C250.346 91.3398 251.053 91.1562 251.963 91.1562H253.018V90.6582C253.018 90.2793 252.904 89.9785 252.678 89.7559C252.451 89.5293 252.117 89.416 251.676 89.416C251.289 89.416 250.965 89.5137 250.703 89.709C250.441 89.9043 250.311 90.1406 250.311 90.418H249.221C249.221 90.1016 249.332 89.7969 249.555 89.5039C249.781 89.207 250.086 88.9727 250.469 88.8008C250.855 88.6289 251.279 88.543 251.74 88.543C252.471 88.543 253.043 88.7266 253.457 89.0938C253.871 89.457 254.086 89.959 254.102 90.5996V93.5176C254.102 94.0996 254.176 94.5625 254.324 94.9062V95H253.188ZM251.389 94.1738C251.729 94.1738 252.051 94.0859 252.355 93.9102C252.66 93.7344 252.881 93.5059 253.018 93.2246V91.9238H252.168C250.84 91.9238 250.176 92.3125 250.176 93.0898C250.176 93.4297 250.289 93.6953 250.516 93.8867C250.742 94.0781 251.033 94.1738 251.389 94.1738ZM258.865 89.6328C258.701 89.6055 258.523 89.5918 258.332 89.5918C257.621 89.5918 257.139 89.8945 256.885 90.5V95H255.801V88.6602H256.855L256.873 89.3926C257.229 88.8262 257.732 88.543 258.385 88.543C258.596 88.543 258.756 88.5703 258.865 88.625V89.6328ZM260.893 88.6602L260.928 89.457C261.412 88.8477 262.045 88.543 262.826 88.543C264.166 88.543 264.842 89.2988 264.854 90.8105V95H263.77V90.8047C263.766 90.3477 263.66 90.0098 263.453 89.791C263.25 89.5723 262.932 89.4629 262.498 89.4629C262.146 89.4629 261.838 89.5566 261.572 89.7441C261.307 89.9316 261.1 90.1777 260.951 90.4824V95H259.867V88.6602H260.893ZM267.666 95H266.582V88.6602H267.666V95ZM266.494 86.9785C266.494 86.8027 266.547 86.6543 266.652 86.5332C266.762 86.4121 266.922 86.3516 267.133 86.3516C267.344 86.3516 267.504 86.4121 267.613 86.5332C267.723 86.6543 267.777 86.8027 267.777 86.9785C267.777 87.1543 267.723 87.3008 267.613 87.418C267.504 87.5352 267.344 87.5938 267.133 87.5938C266.922 87.5938 266.762 87.5352 266.652 87.418C266.547 87.3008 266.494 87.1543 266.494 86.9785ZM270.432 88.6602L270.467 89.457C270.951 88.8477 271.584 88.543 272.365 88.543C273.705 88.543 274.381 89.2988 274.393 90.8105V95H273.309V90.8047C273.305 90.3477 273.199 90.0098 272.992 89.791C272.789 89.5723 272.471 89.4629 272.037 89.4629C271.686 89.4629 271.377 89.5566 271.111 89.7441C270.846 89.9316 270.639 90.1777 270.49 90.4824V95H269.406V88.6602H270.432ZM275.77 91.7773C275.77 90.7891 275.998 90.0039 276.455 89.4219C276.912 88.8359 277.518 88.543 278.271 88.543C279.045 88.543 279.648 88.8164 280.082 89.3633L280.135 88.6602H281.125V94.8477C281.125 95.668 280.881 96.3145 280.393 96.7871C279.908 97.2598 279.256 97.4961 278.436 97.4961C277.979 97.4961 277.531 97.3984 277.094 97.2031C276.656 97.0078 276.322 96.7402 276.092 96.4004L276.654 95.75C277.119 96.3242 277.688 96.6113 278.359 96.6113C278.887 96.6113 279.297 96.4629 279.59 96.166C279.887 95.8691 280.035 95.4512 280.035 94.9121V94.3672C279.602 94.8672 279.01 95.1172 278.26 95.1172C277.518 95.1172 276.916 94.8184 276.455 94.2207C275.998 93.623 275.77 92.8086 275.77 91.7773ZM276.859 91.9004C276.859 92.6152 277.006 93.1777 277.299 93.5879C277.592 93.9941 278.002 94.1973 278.529 94.1973C279.213 94.1973 279.715 93.8867 280.035 93.2656V90.3711C279.703 89.7656 279.205 89.4629 278.541 89.4629C278.014 89.4629 277.602 89.668 277.305 90.0781C277.008 90.4883 276.859 91.0957 276.859 91.9004Z" fill="#F5AB35"/>
<path d="M367.266 92.293C367.16 93.1953 366.826 93.8926 366.264 94.3848C365.705 94.873 364.961 95.1172 364.031 95.1172C363.023 95.1172 362.215 94.7559 361.605 94.0332C361 93.3105 360.697 92.3438 360.697 91.1328V90.3125C360.697 89.5195 360.838 88.8223 361.119 88.2207C361.404 87.6191 361.807 87.1582 362.326 86.8379C362.846 86.5137 363.447 86.3516 364.131 86.3516C365.037 86.3516 365.764 86.6055 366.311 87.1133C366.857 87.6172 367.176 88.3164 367.266 89.2109H366.135C366.037 88.5312 365.824 88.0391 365.496 87.7344C365.172 87.4297 364.717 87.2773 364.131 87.2773C363.412 87.2773 362.848 87.543 362.438 88.0742C362.031 88.6055 361.828 89.3613 361.828 90.3418V91.168C361.828 92.0938 362.021 92.8301 362.408 93.377C362.795 93.9238 363.336 94.1973 364.031 94.1973C364.656 94.1973 365.135 94.0566 365.467 93.7754C365.803 93.4902 366.025 92.9961 366.135 92.293H367.266ZM368.35 91.7715C368.35 91.1504 368.471 90.5918 368.713 90.0957C368.959 89.5996 369.299 89.2168 369.732 88.9473C370.17 88.6777 370.668 88.543 371.227 88.543C372.09 88.543 372.787 88.8418 373.318 89.4395C373.854 90.0371 374.121 90.832 374.121 91.8242V91.9004C374.121 92.5176 374.002 93.0723 373.764 93.5645C373.529 94.0527 373.191 94.4336 372.75 94.707C372.312 94.9805 371.809 95.1172 371.238 95.1172C370.379 95.1172 369.682 94.8184 369.146 94.2207C368.615 93.623 368.35 92.832 368.35 91.8477V91.7715ZM369.439 91.9004C369.439 92.6035 369.602 93.168 369.926 93.5938C370.254 94.0195 370.691 94.2324 371.238 94.2324C371.789 94.2324 372.227 94.0176 372.551 93.5879C372.875 93.1543 373.037 92.5488 373.037 91.7715C373.037 91.0762 372.871 90.5137 372.539 90.084C372.211 89.6504 371.773 89.4336 371.227 89.4336C370.691 89.4336 370.26 89.6465 369.932 90.0723C369.604 90.498 369.439 91.1074 369.439 91.9004ZM376.506 88.6602L376.541 89.457C377.025 88.8477 377.658 88.543 378.439 88.543C379.779 88.543 380.455 89.2988 380.467 90.8105V95H379.383V90.8047C379.379 90.3477 379.273 90.0098 379.066 89.791C378.863 89.5723 378.545 89.4629 378.111 89.4629C377.76 89.4629 377.451 89.5566 377.186 89.7441C376.92 89.9316 376.713 90.1777 376.564 90.4824V95H375.48V88.6602H376.506ZM382.465 95V89.498H381.463V88.6602H382.465V88.1211C382.465 87.4141 382.666 86.8633 383.068 86.4688C383.475 86.0742 384.047 85.877 384.785 85.877C385.223 85.877 385.775 85.9961 386.443 86.2344L386.262 87.1484C385.773 86.9531 385.309 86.8555 384.867 86.8555C384.402 86.8555 384.066 86.9609 383.859 87.1719C383.656 87.3789 383.555 87.6914 383.555 88.1094V88.6602H384.85V89.498H383.555V95H382.465ZM386.982 95H385.893V88.6602H386.982V95ZM391.811 89.6328C391.646 89.6055 391.469 89.5918 391.277 89.5918C390.566 89.5918 390.084 89.8945 389.83 90.5V95H388.746V88.6602H389.801L389.818 89.3926C390.174 88.8262 390.678 88.543 391.33 88.543C391.541 88.543 391.701 88.5703 391.811 88.625V89.6328ZM393.832 88.6602L393.861 89.3633C394.326 88.8164 394.953 88.543 395.742 88.543C396.629 88.543 397.232 88.8828 397.553 89.5625C397.764 89.2578 398.037 89.0117 398.373 88.8242C398.713 88.6367 399.113 88.543 399.574 88.543C400.965 88.543 401.672 89.2793 401.695 90.752V95H400.611V90.8164C400.611 90.3633 400.508 90.0254 400.301 89.8027C400.094 89.5762 399.746 89.4629 399.258 89.4629C398.855 89.4629 398.521 89.584 398.256 89.8262C397.99 90.0645 397.836 90.3867 397.793 90.793V95H396.703V90.8457C396.703 89.9238 396.252 89.4629 395.35 89.4629C394.639 89.4629 394.152 89.7656 393.891 90.3711V95H392.807V88.6602H393.832ZM403.301 96.6992L402.686 96.2773C403.053 95.7656 403.244 95.2383 403.26 94.6953V93.7168H404.32V94.5664C404.32 94.9609 404.223 95.3555 404.027 95.75C403.836 96.1445 403.594 96.4609 403.301 96.6992ZM411.352 91.1973C410.387 90.9199 409.684 90.5801 409.242 90.1777C408.805 89.7715 408.586 89.2715 408.586 88.6777C408.586 88.0059 408.854 87.4512 409.389 87.0137C409.928 86.5723 410.627 86.3516 411.486 86.3516C412.072 86.3516 412.594 86.4648 413.051 86.6914C413.512 86.918 413.867 87.2305 414.117 87.6289C414.371 88.0273 414.498 88.4629 414.498 88.9355H413.367C413.367 88.4199 413.203 88.0156 412.875 87.7227C412.547 87.4258 412.084 87.2773 411.486 87.2773C410.932 87.2773 410.498 87.4004 410.186 87.6465C409.877 87.8887 409.723 88.2266 409.723 88.6602C409.723 89.0078 409.869 89.3027 410.162 89.5449C410.459 89.7832 410.961 90.002 411.668 90.2012C412.379 90.4004 412.934 90.6211 413.332 90.8633C413.734 91.1016 414.031 91.3809 414.223 91.7012C414.418 92.0215 414.516 92.3984 414.516 92.832C414.516 93.5234 414.246 94.0781 413.707 94.4961C413.168 94.9102 412.447 95.1172 411.545 95.1172C410.959 95.1172 410.412 95.0059 409.904 94.7832C409.396 94.5566 409.004 94.248 408.727 93.8574C408.453 93.4668 408.316 93.0234 408.316 92.5273H409.447C409.447 93.043 409.637 93.4512 410.016 93.752C410.398 94.0488 410.908 94.1973 411.545 94.1973C412.139 94.1973 412.594 94.0762 412.91 93.834C413.227 93.5918 413.385 93.2617 413.385 92.8438C413.385 92.4258 413.238 92.1035 412.945 91.877C412.652 91.6465 412.121 91.4199 411.352 91.1973ZM419.707 94.373C419.285 94.8691 418.666 95.1172 417.85 95.1172C417.174 95.1172 416.658 94.9219 416.303 94.5312C415.951 94.1367 415.773 93.5547 415.77 92.7852V88.6602H416.854V92.7559C416.854 93.7168 417.244 94.1973 418.025 94.1973C418.854 94.1973 419.404 93.8887 419.678 93.2715V88.6602H420.762V95H419.73L419.707 94.373ZM424.957 94.2324C425.344 94.2324 425.682 94.1152 425.971 93.8809C426.26 93.6465 426.42 93.3535 426.451 93.002H427.477C427.457 93.3652 427.332 93.7109 427.102 94.0391C426.871 94.3672 426.562 94.6289 426.176 94.8242C425.793 95.0195 425.387 95.1172 424.957 95.1172C424.094 95.1172 423.406 94.8301 422.895 94.2559C422.387 93.6777 422.133 92.8887 422.133 91.8887V91.707C422.133 91.0898 422.246 90.541 422.473 90.0605C422.699 89.5801 423.023 89.207 423.445 88.9414C423.871 88.6758 424.373 88.543 424.951 88.543C425.662 88.543 426.252 88.7559 426.721 89.1816C427.193 89.6074 427.445 90.1602 427.477 90.8398H426.451C426.42 90.4297 426.264 90.0938 425.982 89.832C425.705 89.5664 425.361 89.4336 424.951 89.4336C424.4 89.4336 423.973 89.6328 423.668 90.0312C423.367 90.4258 423.217 90.998 423.217 91.748V91.9531C423.217 92.6836 423.367 93.2461 423.668 93.6406C423.969 94.0352 424.398 94.2324 424.957 94.2324ZM431.238 94.2324C431.625 94.2324 431.963 94.1152 432.252 93.8809C432.541 93.6465 432.701 93.3535 432.732 93.002H433.758C433.738 93.3652 433.613 93.7109 433.383 94.0391C433.152 94.3672 432.844 94.6289 432.457 94.8242C432.074 95.0195 431.668 95.1172 431.238 95.1172C430.375 95.1172 429.688 94.8301 429.176 94.2559C428.668 93.6777 428.414 92.8887 428.414 91.8887V91.707C428.414 91.0898 428.527 90.541 428.754 90.0605C428.98 89.5801 429.305 89.207 429.727 88.9414C430.152 88.6758 430.654 88.543 431.232 88.543C431.943 88.543 432.533 88.7559 433.002 89.1816C433.475 89.6074 433.727 90.1602 433.758 90.8398H432.732C432.701 90.4297 432.545 90.0938 432.264 89.832C431.986 89.5664 431.643 89.4336 431.232 89.4336C430.682 89.4336 430.254 89.6328 429.949 90.0312C429.648 90.4258 429.498 90.998 429.498 91.748V91.9531C429.498 92.6836 429.648 93.2461 429.949 93.6406C430.25 94.0352 430.68 94.2324 431.238 94.2324ZM437.607 95.1172C436.748 95.1172 436.049 94.8359 435.51 94.2734C434.971 93.707 434.701 92.9512 434.701 92.0059V91.8066C434.701 91.1777 434.82 90.6172 435.059 90.125C435.301 89.6289 435.637 89.2422 436.066 88.9648C436.5 88.6836 436.969 88.543 437.473 88.543C438.297 88.543 438.938 88.8145 439.395 89.3574C439.852 89.9004 440.08 90.6777 440.08 91.6895V92.1406H435.785C435.801 92.7656 435.982 93.2715 436.33 93.6582C436.682 94.041 437.127 94.2324 437.666 94.2324C438.049 94.2324 438.373 94.1543 438.639 93.998C438.904 93.8418 439.137 93.6348 439.336 93.377L439.998 93.8926C439.467 94.709 438.67 95.1172 437.607 95.1172ZM437.473 89.4336C437.035 89.4336 436.668 89.5938 436.371 89.9141C436.074 90.2305 435.891 90.6758 435.82 91.25H438.996V91.168C438.965 90.6172 438.816 90.1914 438.551 89.8906C438.285 89.5859 437.926 89.4336 437.473 89.4336ZM445.031 93.3184C445.031 93.0254 444.92 92.7988 444.697 92.6387C444.479 92.4746 444.094 92.334 443.543 92.2168C442.996 92.0996 442.561 91.959 442.236 91.7949C441.916 91.6309 441.678 91.4355 441.521 91.209C441.369 90.9824 441.293 90.7129 441.293 90.4004C441.293 89.8809 441.512 89.4414 441.949 89.082C442.391 88.7227 442.953 88.543 443.637 88.543C444.355 88.543 444.938 88.7285 445.383 89.0996C445.832 89.4707 446.057 89.9453 446.057 90.5234H444.967C444.967 90.2266 444.84 89.9707 444.586 89.7559C444.336 89.541 444.02 89.4336 443.637 89.4336C443.242 89.4336 442.934 89.5195 442.711 89.6914C442.488 89.8633 442.377 90.0879 442.377 90.3652C442.377 90.627 442.48 90.8242 442.688 90.957C442.895 91.0898 443.268 91.2168 443.807 91.3379C444.35 91.459 444.789 91.6035 445.125 91.7715C445.461 91.9395 445.709 92.1426 445.869 92.3809C446.033 92.6152 446.115 92.9023 446.115 93.2422C446.115 93.8086 445.889 94.2637 445.436 94.6074C444.982 94.9473 444.395 95.1172 443.672 95.1172C443.164 95.1172 442.715 95.0273 442.324 94.8477C441.934 94.668 441.627 94.418 441.404 94.0977C441.186 93.7734 441.076 93.4238 441.076 93.0488H442.16C442.18 93.4121 442.324 93.7012 442.594 93.916C442.867 94.127 443.227 94.2324 443.672 94.2324C444.082 94.2324 444.41 94.1504 444.656 93.9863C444.906 93.8184 445.031 93.5957 445.031 93.3184ZM451.219 93.3184C451.219 93.0254 451.107 92.7988 450.885 92.6387C450.666 92.4746 450.281 92.334 449.73 92.2168C449.184 92.0996 448.748 91.959 448.424 91.7949C448.104 91.6309 447.865 91.4355 447.709 91.209C447.557 90.9824 447.48 90.7129 447.48 90.4004C447.48 89.8809 447.699 89.4414 448.137 89.082C448.578 88.7227 449.141 88.543 449.824 88.543C450.543 88.543 451.125 88.7285 451.57 89.0996C452.02 89.4707 452.244 89.9453 452.244 90.5234H451.154C451.154 90.2266 451.027 89.9707 450.773 89.7559C450.523 89.541 450.207 89.4336 449.824 89.4336C449.43 89.4336 449.121 89.5195 448.898 89.6914C448.676 89.8633 448.564 90.0879 448.564 90.3652C448.564 90.627 448.668 90.8242 448.875 90.957C449.082 91.0898 449.455 91.2168 449.994 91.3379C450.537 91.459 450.977 91.6035 451.312 91.7715C451.648 91.9395 451.896 92.1426 452.057 92.3809C452.221 92.6152 452.303 92.9023 452.303 93.2422C452.303 93.8086 452.076 94.2637 451.623 94.6074C451.17 94.9473 450.582 95.1172 449.859 95.1172C449.352 95.1172 448.902 95.0273 448.512 94.8477C448.121 94.668 447.814 94.418 447.592 94.0977C447.373 93.7734 447.264 93.4238 447.264 93.0488H448.348C448.367 93.4121 448.512 93.7012 448.781 93.916C449.055 94.127 449.414 94.2324 449.859 94.2324C450.27 94.2324 450.598 94.1504 450.844 93.9863C451.094 93.8184 451.219 93.5957 451.219 93.3184ZM453.68 96.6992L453.064 96.2773C453.432 95.7656 453.623 95.2383 453.639 94.6953V93.7168H454.699V94.5664C454.699 94.9609 454.602 95.3555 454.406 95.75C454.215 96.1445 453.973 96.4609 453.68 96.6992ZM463.928 92.7734H460.354L459.551 95H458.391L461.648 86.4688H462.633L465.896 95H464.742L463.928 92.7734ZM460.693 91.8477H463.594L462.141 87.8574L460.693 91.8477ZM468.674 93.5293L470.244 88.6602H471.352L469.078 95H468.252L465.955 88.6602H467.062L468.674 93.5293ZM476.215 95C476.152 94.875 476.102 94.6523 476.062 94.332C475.559 94.8555 474.957 95.1172 474.258 95.1172C473.633 95.1172 473.119 94.9414 472.717 94.5898C472.318 94.2344 472.119 93.7852 472.119 93.2422C472.119 92.582 472.369 92.0703 472.869 91.707C473.373 91.3398 474.08 91.1562 474.99 91.1562H476.045V90.6582C476.045 90.2793 475.932 89.9785 475.705 89.7559C475.479 89.5293 475.145 89.416 474.703 89.416C474.316 89.416 473.992 89.5137 473.73 89.709C473.469 89.9043 473.338 90.1406 473.338 90.418H472.248C472.248 90.1016 472.359 89.7969 472.582 89.5039C472.809 89.207 473.113 88.9727 473.496 88.8008C473.883 88.6289 474.307 88.543 474.768 88.543C475.498 88.543 476.07 88.7266 476.484 89.0938C476.898 89.457 477.113 89.959 477.129 90.5996V93.5176C477.129 94.0996 477.203 94.5625 477.352 94.9062V95H476.215ZM474.416 94.1738C474.756 94.1738 475.078 94.0859 475.383 93.9102C475.688 93.7344 475.908 93.5059 476.045 93.2246V91.9238H475.195C473.867 91.9238 473.203 92.3125 473.203 93.0898C473.203 93.4297 473.316 93.6953 473.543 93.8867C473.77 94.0781 474.061 94.1738 474.416 94.1738ZM480.006 95H478.922V86H480.006V95ZM482.924 95H481.84V88.6602H482.924V95ZM481.752 86.9785C481.752 86.8027 481.805 86.6543 481.91 86.5332C482.02 86.4121 482.18 86.3516 482.391 86.3516C482.602 86.3516 482.762 86.4121 482.871 86.5332C482.98 86.6543 483.035 86.8027 483.035 86.9785C483.035 87.1543 482.98 87.3008 482.871 87.418C482.762 87.5352 482.602 87.5938 482.391 87.5938C482.18 87.5938 482.02 87.5352 481.91 87.418C481.805 87.3008 481.752 87.1543 481.752 86.9785ZM488.578 95C488.516 94.875 488.465 94.6523 488.426 94.332C487.922 94.8555 487.32 95.1172 486.621 95.1172C485.996 95.1172 485.482 94.9414 485.08 94.5898C484.682 94.2344 484.482 93.7852 484.482 93.2422C484.482 92.582 484.732 92.0703 485.232 91.707C485.736 91.3398 486.443 91.1562 487.354 91.1562H488.408V90.6582C488.408 90.2793 488.295 89.9785 488.068 89.7559C487.842 89.5293 487.508 89.416 487.066 89.416C486.68 89.416 486.355 89.5137 486.094 89.709C485.832 89.9043 485.701 90.1406 485.701 90.418H484.611C484.611 90.1016 484.723 89.7969 484.945 89.5039C485.172 89.207 485.477 88.9727 485.859 88.8008C486.246 88.6289 486.67 88.543 487.131 88.543C487.861 88.543 488.434 88.7266 488.848 89.0938C489.262 89.457 489.477 89.959 489.492 90.5996V93.5176C489.492 94.0996 489.566 94.5625 489.715 94.9062V95H488.578ZM486.779 94.1738C487.119 94.1738 487.441 94.0859 487.746 93.9102C488.051 93.7344 488.271 93.5059 488.408 93.2246V91.9238H487.559C486.23 91.9238 485.566 92.3125 485.566 93.0898C485.566 93.4297 485.68 93.6953 485.906 93.8867C486.133 94.0781 486.424 94.1738 486.779 94.1738ZM496.559 91.9004C496.559 92.8691 496.336 93.6484 495.891 94.2383C495.445 94.8242 494.848 95.1172 494.098 95.1172C493.297 95.1172 492.678 94.834 492.24 94.2676L492.188 95H491.191V86H492.275V89.3574C492.713 88.8145 493.316 88.543 494.086 88.543C494.855 88.543 495.459 88.834 495.896 89.416C496.338 89.998 496.559 90.7949 496.559 91.8066V91.9004ZM495.475 91.7773C495.475 91.0391 495.332 90.4688 495.047 90.0664C494.762 89.6641 494.352 89.4629 493.816 89.4629C493.102 89.4629 492.588 89.7949 492.275 90.459V93.2012C492.607 93.8652 493.125 94.1973 493.828 94.1973C494.348 94.1973 494.752 93.9961 495.041 93.5938C495.33 93.1914 495.475 92.5859 495.475 91.7773ZM499.107 95H498.023V86H499.107V95ZM503.479 95.1172C502.619 95.1172 501.92 94.8359 501.381 94.2734C500.842 93.707 500.572 92.9512 500.572 92.0059V91.8066C500.572 91.1777 500.691 90.6172 500.93 90.125C501.172 89.6289 501.508 89.2422 501.938 88.9648C502.371 88.6836 502.84 88.543 503.344 88.543C504.168 88.543 504.809 88.8145 505.266 89.3574C505.723 89.9004 505.951 90.6777 505.951 91.6895V92.1406H501.656C501.672 92.7656 501.854 93.2715 502.201 93.6582C502.553 94.041 502.998 94.2324 503.537 94.2324C503.92 94.2324 504.244 94.1543 504.51 93.998C504.775 93.8418 505.008 93.6348 505.207 93.377L505.869 93.8926C505.338 94.709 504.541 95.1172 503.479 95.1172ZM503.344 89.4336C502.906 89.4336 502.539 89.5938 502.242 89.9141C501.945 90.2305 501.762 90.6758 501.691 91.25H504.867V91.168C504.836 90.6172 504.688 90.1914 504.422 89.8906C504.156 89.5859 503.797 89.4336 503.344 89.4336ZM507.176 96.6992L506.561 96.2773C506.928 95.7656 507.119 95.2383 507.135 94.6953V93.7168H508.195V94.5664C508.195 94.9609 508.098 95.3555 507.902 95.75C507.711 96.1445 507.469 96.4609 507.176 96.6992ZM365.701 106.773H362.127L361.324 109H360.164L363.422 100.469H364.406L367.67 109H366.516L365.701 106.773ZM362.467 105.848H365.367L363.914 101.857L362.467 105.848ZM368.385 105.777C368.385 104.805 368.615 104.023 369.076 103.434C369.537 102.84 370.141 102.543 370.887 102.543C371.629 102.543 372.217 102.797 372.65 103.305V100H373.734V109H372.738L372.686 108.32C372.252 108.852 371.648 109.117 370.875 109.117C370.141 109.117 369.541 108.816 369.076 108.215C368.615 107.613 368.385 106.828 368.385 105.859V105.777ZM369.469 105.9C369.469 106.619 369.617 107.182 369.914 107.588C370.211 107.994 370.621 108.197 371.145 108.197C371.832 108.197 372.334 107.889 372.65 107.271V104.359C372.326 103.762 371.828 103.463 371.156 103.463C370.625 103.463 370.211 103.668 369.914 104.078C369.617 104.488 369.469 105.096 369.469 105.9ZM375.158 105.777C375.158 104.805 375.389 104.023 375.85 103.434C376.311 102.84 376.914 102.543 377.66 102.543C378.402 102.543 378.99 102.797 379.424 103.305V100H380.508V109H379.512L379.459 108.32C379.025 108.852 378.422 109.117 377.648 109.117C376.914 109.117 376.314 108.816 375.85 108.215C375.389 107.613 375.158 106.828 375.158 105.859V105.777ZM376.242 105.9C376.242 106.619 376.391 107.182 376.688 107.588C376.984 107.994 377.395 108.197 377.918 108.197C378.605 108.197 379.107 107.889 379.424 107.271V104.359C379.1 103.762 378.602 103.463 377.93 103.463C377.398 103.463 376.984 103.668 376.688 104.078C376.391 104.488 376.242 105.096 376.242 105.9ZM384.826 109.117C383.967 109.117 383.268 108.836 382.729 108.273C382.189 107.707 381.92 106.951 381.92 106.006V105.807C381.92 105.178 382.039 104.617 382.277 104.125C382.52 103.629 382.855 103.242 383.285 102.965C383.719 102.684 384.188 102.543 384.691 102.543C385.516 102.543 386.156 102.814 386.613 103.357C387.07 103.9 387.299 104.678 387.299 105.689V106.141H383.004C383.02 106.766 383.201 107.271 383.549 107.658C383.9 108.041 384.346 108.232 384.885 108.232C385.268 108.232 385.592 108.154 385.857 107.998C386.123 107.842 386.355 107.635 386.555 107.377L387.217 107.893C386.686 108.709 385.889 109.117 384.826 109.117ZM384.691 103.434C384.254 103.434 383.887 103.594 383.59 103.914C383.293 104.23 383.109 104.676 383.039 105.25H386.215V105.168C386.184 104.617 386.035 104.191 385.77 103.891C385.504 103.586 385.145 103.434 384.691 103.434ZM388.295 105.777C388.295 104.805 388.525 104.023 388.986 103.434C389.447 102.84 390.051 102.543 390.797 102.543C391.539 102.543 392.127 102.797 392.561 103.305V100H393.645V109H392.648L392.596 108.32C392.162 108.852 391.559 109.117 390.785 109.117C390.051 109.117 389.451 108.816 388.986 108.215C388.525 107.613 388.295 106.828 388.295 105.859V105.777ZM389.379 105.9C389.379 106.619 389.527 107.182 389.824 107.588C390.121 107.994 390.531 108.197 391.055 108.197C391.742 108.197 392.244 107.889 392.561 107.271V104.359C392.236 103.762 391.738 103.463 391.066 103.463C390.535 103.463 390.121 103.668 389.824 104.078C389.527 104.488 389.379 105.096 389.379 105.9ZM395.549 109.732H394.617L398.18 100.469H399.105L395.549 109.732ZM406.723 106.293C406.617 107.195 406.283 107.893 405.721 108.385C405.162 108.873 404.418 109.117 403.488 109.117C402.48 109.117 401.672 108.756 401.062 108.033C400.457 107.311 400.154 106.344 400.154 105.133V104.312C400.154 103.52 400.295 102.822 400.576 102.221C400.861 101.619 401.264 101.158 401.783 100.838C402.303 100.514 402.904 100.352 403.588 100.352C404.494 100.352 405.221 100.605 405.768 101.113C406.314 101.617 406.633 102.316 406.723 103.211H405.592C405.494 102.531 405.281 102.039 404.953 101.734C404.629 101.43 404.174 101.277 403.588 101.277C402.869 101.277 402.305 101.543 401.895 102.074C401.488 102.605 401.285 103.361 401.285 104.342V105.168C401.285 106.094 401.479 106.83 401.865 107.377C402.252 107.924 402.793 108.197 403.488 108.197C404.113 108.197 404.592 108.057 404.924 107.775C405.26 107.49 405.482 106.996 405.592 106.293H406.723ZM407.807 105.771C407.807 105.15 407.928 104.592 408.17 104.096C408.416 103.6 408.756 103.217 409.189 102.947C409.627 102.678 410.125 102.543 410.684 102.543C411.547 102.543 412.244 102.842 412.775 103.439C413.311 104.037 413.578 104.832 413.578 105.824V105.9C413.578 106.518 413.459 107.072 413.221 107.564C412.986 108.053 412.648 108.434 412.207 108.707C411.77 108.98 411.266 109.117 410.695 109.117C409.836 109.117 409.139 108.818 408.604 108.221C408.072 107.623 407.807 106.832 407.807 105.848V105.771ZM408.896 105.9C408.896 106.604 409.059 107.168 409.383 107.594C409.711 108.02 410.148 108.232 410.695 108.232C411.246 108.232 411.684 108.018 412.008 107.588C412.332 107.154 412.494 106.549 412.494 105.771C412.494 105.076 412.328 104.514 411.996 104.084C411.668 103.65 411.23 103.434 410.684 103.434C410.148 103.434 409.717 103.646 409.389 104.072C409.061 104.498 408.896 105.107 408.896 105.9ZM415.957 102.66L415.986 103.363C416.451 102.816 417.078 102.543 417.867 102.543C418.754 102.543 419.357 102.883 419.678 103.562C419.889 103.258 420.162 103.012 420.498 102.824C420.838 102.637 421.238 102.543 421.699 102.543C423.09 102.543 423.797 103.279 423.82 104.752V109H422.736V104.816C422.736 104.363 422.633 104.025 422.426 103.803C422.219 103.576 421.871 103.463 421.383 103.463C420.98 103.463 420.646 103.584 420.381 103.826C420.115 104.064 419.961 104.387 419.918 104.793V109H418.828V104.846C418.828 103.924 418.377 103.463 417.475 103.463C416.764 103.463 416.277 103.766 416.016 104.371V109H414.932V102.66H415.957ZM430.816 105.9C430.816 106.865 430.596 107.643 430.154 108.232C429.713 108.822 429.115 109.117 428.361 109.117C427.592 109.117 426.986 108.873 426.545 108.385V111.438H425.461V102.66H426.451L426.504 103.363C426.945 102.816 427.559 102.543 428.344 102.543C429.105 102.543 429.707 102.83 430.148 103.404C430.594 103.979 430.816 104.777 430.816 105.801V105.9ZM429.732 105.777C429.732 105.062 429.58 104.498 429.275 104.084C428.971 103.67 428.553 103.463 428.021 103.463C427.365 103.463 426.873 103.754 426.545 104.336V107.365C426.869 107.943 427.365 108.232 428.033 108.232C428.553 108.232 428.965 108.027 429.27 107.617C429.578 107.203 429.732 106.59 429.732 105.777ZM433.377 109H432.293V100H433.377V109ZM437.748 109.117C436.889 109.117 436.189 108.836 435.65 108.273C435.111 107.707 434.842 106.951 434.842 106.006V105.807C434.842 105.178 434.961 104.617 435.199 104.125C435.441 103.629 435.777 103.242 436.207 102.965C436.641 102.684 437.109 102.543 437.613 102.543C438.438 102.543 439.078 102.814 439.535 103.357C439.992 103.9 440.221 104.678 440.221 105.689V106.141H435.926C435.941 106.766 436.123 107.271 436.471 107.658C436.822 108.041 437.268 108.232 437.807 108.232C438.189 108.232 438.514 108.154 438.779 107.998C439.045 107.842 439.277 107.635 439.477 107.377L440.139 107.893C439.607 108.709 438.811 109.117 437.748 109.117ZM437.613 103.434C437.176 103.434 436.809 103.594 436.512 103.914C436.215 104.23 436.031 104.676 435.961 105.25H439.137V105.168C439.105 104.617 438.957 104.191 438.691 103.891C438.426 103.586 438.066 103.434 437.613 103.434ZM442.951 101.125V102.66H444.135V103.498H442.951V107.43C442.951 107.684 443.004 107.875 443.109 108.004C443.215 108.129 443.395 108.191 443.648 108.191C443.773 108.191 443.945 108.168 444.164 108.121V109C443.879 109.078 443.602 109.117 443.332 109.117C442.848 109.117 442.482 108.971 442.236 108.678C441.99 108.385 441.867 107.969 441.867 107.43V103.498H440.713V102.66H441.867V101.125H442.951ZM448.037 109.117C447.178 109.117 446.479 108.836 445.939 108.273C445.4 107.707 445.131 106.951 445.131 106.006V105.807C445.131 105.178 445.25 104.617 445.488 104.125C445.73 103.629 446.066 103.242 446.496 102.965C446.93 102.684 447.398 102.543 447.902 102.543C448.727 102.543 449.367 102.814 449.824 103.357C450.281 103.9 450.51 104.678 450.51 105.689V106.141H446.215C446.23 106.766 446.412 107.271 446.76 107.658C447.111 108.041 447.557 108.232 448.096 108.232C448.479 108.232 448.803 108.154 449.068 107.998C449.334 107.842 449.566 107.635 449.766 107.377L450.428 107.893C449.896 108.709 449.1 109.117 448.037 109.117ZM447.902 103.434C447.465 103.434 447.098 103.594 446.801 103.914C446.504 104.23 446.32 104.676 446.25 105.25H449.426V105.168C449.395 104.617 449.246 104.191 448.98 103.891C448.715 103.586 448.355 103.434 447.902 103.434Z" fill="#47C1C3"/>
<path d="M547.547 95H546.416V91.0566H542.115V95H540.99V86.4688H542.115V90.1367H546.416V86.4688H547.547V95ZM552.006 95.1172C551.146 95.1172 550.447 94.8359 549.908 94.2734C549.369 93.707 549.1 92.9512 549.1 92.0059V91.8066C549.1 91.1777 549.219 90.6172 549.457 90.125C549.699 89.6289 550.035 89.2422 550.465 88.9648C550.898 88.6836 551.367 88.543 551.871 88.543C552.695 88.543 553.336 88.8145 553.793 89.3574C554.25 89.9004 554.479 90.6777 554.479 91.6895V92.1406H550.184C550.199 92.7656 550.381 93.2715 550.729 93.6582C551.08 94.041 551.525 94.2324 552.064 94.2324C552.447 94.2324 552.771 94.1543 553.037 93.998C553.303 93.8418 553.535 93.6348 553.734 93.377L554.396 93.8926C553.865 94.709 553.068 95.1172 552.006 95.1172ZM551.871 89.4336C551.434 89.4336 551.066 89.5938 550.77 89.9141C550.473 90.2305 550.289 90.6758 550.219 91.25H553.395V91.168C553.363 90.6172 553.215 90.1914 552.949 89.8906C552.684 89.5859 552.324 89.4336 551.871 89.4336ZM556.916 95H555.832V86H556.916V95ZM564.012 91.9004C564.012 92.8652 563.791 93.6426 563.35 94.2324C562.908 94.8223 562.311 95.1172 561.557 95.1172C560.787 95.1172 560.182 94.873 559.74 94.3848V97.4375H558.656V88.6602H559.646L559.699 89.3633C560.141 88.8164 560.754 88.543 561.539 88.543C562.301 88.543 562.902 88.8301 563.344 89.4043C563.789 89.9785 564.012 90.7773 564.012 91.8008V91.9004ZM562.928 91.7773C562.928 91.0625 562.775 90.498 562.471 90.084C562.166 89.6699 561.748 89.4629 561.217 89.4629C560.561 89.4629 560.068 89.7539 559.74 90.3359V93.3652C560.064 93.9434 560.561 94.2324 561.229 94.2324C561.748 94.2324 562.16 94.0273 562.465 93.6172C562.773 93.2031 562.928 92.5898 562.928 91.7773ZM565.359 96.6992L564.744 96.2773C565.111 95.7656 565.303 95.2383 565.318 94.6953V93.7168H566.379V94.5664C566.379 94.9609 566.281 95.3555 566.086 95.75C565.895 96.1445 565.652 96.4609 565.359 96.6992ZM572.104 95H570.979V86.4688H572.104V95ZM575.021 88.6602L575.057 89.457C575.541 88.8477 576.174 88.543 576.955 88.543C578.295 88.543 578.971 89.2988 578.982 90.8105V95H577.898V90.8047C577.895 90.3477 577.789 90.0098 577.582 89.791C577.379 89.5723 577.061 89.4629 576.627 89.4629C576.275 89.4629 575.967 89.5566 575.701 89.7441C575.436 89.9316 575.229 90.1777 575.08 90.4824V95H573.996V88.6602H575.021ZM581.15 95V89.498H580.148V88.6602H581.15V88.0098C581.15 87.3301 581.332 86.8047 581.695 86.4336C582.059 86.0625 582.572 85.877 583.236 85.877C583.486 85.877 583.734 85.9102 583.98 85.9766L583.922 86.8555C583.738 86.8203 583.543 86.8027 583.336 86.8027C582.984 86.8027 582.713 86.9062 582.521 87.1133C582.33 87.3164 582.234 87.6094 582.234 87.9922V88.6602H583.588V89.498H582.234V95H581.15ZM584.502 91.7715C584.502 91.1504 584.623 90.5918 584.865 90.0957C585.111 89.5996 585.451 89.2168 585.885 88.9473C586.322 88.6777 586.82 88.543 587.379 88.543C588.242 88.543 588.939 88.8418 589.471 89.4395C590.006 90.0371 590.273 90.832 590.273 91.8242V91.9004C590.273 92.5176 590.154 93.0723 589.916 93.5645C589.682 94.0527 589.344 94.4336 588.902 94.707C588.465 94.9805 587.961 95.1172 587.391 95.1172C586.531 95.1172 585.834 94.8184 585.299 94.2207C584.768 93.623 584.502 92.832 584.502 91.8477V91.7715ZM585.592 91.9004C585.592 92.6035 585.754 93.168 586.078 93.5938C586.406 94.0195 586.844 94.2324 587.391 94.2324C587.941 94.2324 588.379 94.0176 588.703 93.5879C589.027 93.1543 589.189 92.5488 589.189 91.7715C589.189 91.0762 589.023 90.5137 588.691 90.084C588.363 89.6504 587.926 89.4336 587.379 89.4336C586.844 89.4336 586.412 89.6465 586.084 90.0723C585.756 90.498 585.592 91.1074 585.592 91.9004ZM594.697 89.6328C594.533 89.6055 594.355 89.5918 594.164 89.5918C593.453 89.5918 592.971 89.8945 592.717 90.5V95H591.633V88.6602H592.688L592.705 89.3926C593.061 88.8262 593.564 88.543 594.217 88.543C594.428 88.543 594.588 88.5703 594.697 88.625V89.6328ZM596.719 88.6602L596.748 89.3633C597.213 88.8164 597.84 88.543 598.629 88.543C599.516 88.543 600.119 88.8828 600.439 89.5625C600.65 89.2578 600.924 89.0117 601.26 88.8242C601.6 88.6367 602 88.543 602.461 88.543C603.852 88.543 604.559 89.2793 604.582 90.752V95H603.498V90.8164C603.498 90.3633 603.395 90.0254 603.188 89.8027C602.98 89.5762 602.633 89.4629 602.145 89.4629C601.742 89.4629 601.408 89.584 601.143 89.8262C600.877 90.0645 600.723 90.3867 600.68 90.793V95H599.59V90.8457C599.59 89.9238 599.139 89.4629 598.236 89.4629C597.525 89.4629 597.039 89.7656 596.777 90.3711V95H595.693V88.6602H596.719ZM610.137 95C610.074 94.875 610.023 94.6523 609.984 94.332C609.48 94.8555 608.879 95.1172 608.18 95.1172C607.555 95.1172 607.041 94.9414 606.639 94.5898C606.24 94.2344 606.041 93.7852 606.041 93.2422C606.041 92.582 606.291 92.0703 606.791 91.707C607.295 91.3398 608.002 91.1562 608.912 91.1562H609.967V90.6582C609.967 90.2793 609.854 89.9785 609.627 89.7559C609.4 89.5293 609.066 89.416 608.625 89.416C608.238 89.416 607.914 89.5137 607.652 89.709C607.391 89.9043 607.26 90.1406 607.26 90.418H606.17C606.17 90.1016 606.281 89.7969 606.504 89.5039C606.73 89.207 607.035 88.9727 607.418 88.8008C607.805 88.6289 608.229 88.543 608.689 88.543C609.42 88.543 609.992 88.7266 610.406 89.0938C610.82 89.457 611.035 89.959 611.051 90.5996V93.5176C611.051 94.0996 611.125 94.5625 611.273 94.9062V95H610.137ZM608.338 94.1738C608.678 94.1738 609 94.0859 609.305 93.9102C609.609 93.7344 609.83 93.5059 609.967 93.2246V91.9238H609.117C607.789 91.9238 607.125 92.3125 607.125 93.0898C607.125 93.4297 607.238 93.6953 607.465 93.8867C607.691 94.0781 607.982 94.1738 608.338 94.1738ZM614.221 87.125V88.6602H615.404V89.498H614.221V93.4297C614.221 93.6836 614.273 93.875 614.379 94.0039C614.484 94.1289 614.664 94.1914 614.918 94.1914C615.043 94.1914 615.215 94.168 615.434 94.1211V95C615.148 95.0781 614.871 95.1172 614.602 95.1172C614.117 95.1172 613.752 94.9707 613.506 94.6777C613.26 94.3848 613.137 93.9688 613.137 93.4297V89.498H611.982V88.6602H613.137V87.125H614.221ZM617.854 95H616.77V88.6602H617.854V95ZM616.682 86.9785C616.682 86.8027 616.734 86.6543 616.84 86.5332C616.949 86.4121 617.109 86.3516 617.32 86.3516C617.531 86.3516 617.691 86.4121 617.801 86.5332C617.91 86.6543 617.965 86.8027 617.965 86.9785C617.965 87.1543 617.91 87.3008 617.801 87.418C617.691 87.5352 617.531 87.5938 617.32 87.5938C617.109 87.5938 616.949 87.5352 616.84 87.418C616.734 87.3008 616.682 87.1543 616.682 86.9785ZM619.307 91.7715C619.307 91.1504 619.428 90.5918 619.67 90.0957C619.916 89.5996 620.256 89.2168 620.689 88.9473C621.127 88.6777 621.625 88.543 622.184 88.543C623.047 88.543 623.744 88.8418 624.275 89.4395C624.811 90.0371 625.078 90.832 625.078 91.8242V91.9004C625.078 92.5176 624.959 93.0723 624.721 93.5645C624.486 94.0527 624.148 94.4336 623.707 94.707C623.27 94.9805 622.766 95.1172 622.195 95.1172C621.336 95.1172 620.639 94.8184 620.104 94.2207C619.572 93.623 619.307 92.832 619.307 91.8477V91.7715ZM620.396 91.9004C620.396 92.6035 620.559 93.168 620.883 93.5938C621.211 94.0195 621.648 94.2324 622.195 94.2324C622.746 94.2324 623.184 94.0176 623.508 93.5879C623.832 93.1543 623.994 92.5488 623.994 91.7715C623.994 91.0762 623.828 90.5137 623.496 90.084C623.168 89.6504 622.73 89.4336 622.184 89.4336C621.648 89.4336 621.217 89.6465 620.889 90.0723C620.561 90.498 620.396 91.1074 620.396 91.9004ZM627.463 88.6602L627.498 89.457C627.982 88.8477 628.615 88.543 629.396 88.543C630.736 88.543 631.412 89.2988 631.424 90.8105V95H630.34V90.8047C630.336 90.3477 630.23 90.0098 630.023 89.791C629.82 89.5723 629.502 89.4629 629.068 89.4629C628.717 89.4629 628.408 89.5566 628.143 89.7441C627.877 89.9316 627.67 90.1777 627.521 90.4824V95H626.438V88.6602H627.463ZM633.023 96.6992L632.408 96.2773C632.775 95.7656 632.967 95.2383 632.982 94.6953V93.7168H634.043V94.5664C634.043 94.9609 633.945 95.3555 633.75 95.75C633.559 96.1445 633.316 96.4609 633.023 96.6992ZM642.141 95H641.01L636.715 88.4258V95H635.584V86.4688H636.715L641.021 93.0723V86.4688H642.141V95ZM646.6 95.1172C645.74 95.1172 645.041 94.8359 644.502 94.2734C643.963 93.707 643.693 92.9512 643.693 92.0059V91.8066C643.693 91.1777 643.812 90.6172 644.051 90.125C644.293 89.6289 644.629 89.2422 645.059 88.9648C645.492 88.6836 645.961 88.543 646.465 88.543C647.289 88.543 647.93 88.8145 648.387 89.3574C648.844 89.9004 649.072 90.6777 649.072 91.6895V92.1406H644.777C644.793 92.7656 644.975 93.2715 645.322 93.6582C645.674 94.041 646.119 94.2324 646.658 94.2324C647.041 94.2324 647.365 94.1543 647.631 93.998C647.896 93.8418 648.129 93.6348 648.328 93.377L648.99 93.8926C648.459 94.709 647.662 95.1172 646.6 95.1172ZM646.465 89.4336C646.027 89.4336 645.66 89.5938 645.363 89.9141C645.066 90.2305 644.883 90.6758 644.812 91.25H647.988V91.168C647.957 90.6172 647.809 90.1914 647.543 89.8906C647.277 89.5859 646.918 89.4336 646.465 89.4336ZM655.945 93.5059L657.164 88.6602H658.248L656.402 95H655.523L653.982 90.1953L652.482 95H651.604L649.764 88.6602H650.842L652.09 93.4062L653.566 88.6602H654.439L655.945 93.5059Z" fill="#00A0E1"/>
</svg>
